<svg xmlns="http://www.w3.org/2000/svg" viewBox="0 0 341.17 336.61"><defs><style>.cls-1{fill:#fff;}</style></defs><g id="Layer_2" data-name="Layer 2"><g id="Layer_1-2" data-name="Layer 1"><path class="cls-1" d="M339.27,185,301.32,60.4a43.68,43.68,0,0,0-31.91-29.82L142.51,1.13a43.66,43.66,0,0,0-41.78,12.72L11.77,109a43.69,43.69,0,0,0-9.88,42.55l38,124.63A43.7,43.7,0,0,0,71.75,306l126.91,29.45a43.67,43.67,0,0,0,41.78-12.72l89-95.18A43.68,43.68,0,0,0,339.27,185Zm-140.68-3.87-13.35,14.28A12.25,12.25,0,0,1,173.53,199l-19-4.42a12.25,12.25,0,0,1-8.94-8.35l-5.69-18.7a12.23,12.23,0,0,1,2.77-11.92L156,141.33a12.25,12.25,0,0,1,11.71-3.57l19,4.42a12.26,12.26,0,0,1,8.94,8.36l5.69,18.7A12.24,12.24,0,0,1,198.59,181.16Z"/></g></g></svg>