<svg xmlns="http://www.w3.org/2000/svg" xmlns:xlink="http://www.w3.org/1999/xlink" viewBox="0 0 45.84 50.02"><defs><style>.cls-1{opacity:0.8;fill:url(#radial-gradient);}</style><radialGradient id="radial-gradient" cx="22.92" cy="25.01" r="23.99" gradientUnits="userSpaceOnUse"><stop offset="0" stop-color="#2ec8f8" stop-opacity="0.8"/><stop offset="0.21" stop-color="#33c9f8" stop-opacity="0.8"/><stop offset="0.41" stop-color="#44cbf6" stop-opacity="0.79"/><stop offset="0.61" stop-color="#5fcff4" stop-opacity="0.78"/><stop offset="0.81" stop-color="#85d4f0" stop-opacity="0.76"/><stop offset="0.96" stop-color="#abd9ed" stop-opacity="0.74"/></radialGradient></defs><g id="Layer_2" data-name="Layer 2"><g id="Layer_1-2" data-name="Layer 1"><path class="cls-1" d="M45.82,36.72l-1.6-7.1a1,1,0,0,0-1-.8h-3l-.7-3a1,1,0,0,0-1-.79l-9.2.4a1,1,0,0,0-.8.5l-.4.6L25,24.93l3.1-1.71.4.6a1,1,0,0,0,.8.5l9.2.4h0a1,1,0,0,0,1-.79l.7-3h3a1,1,0,0,0,1-.8l1.6-7.1a1.09,1.09,0,0,0-.7-1.2l-7.3-2.2a1,1,0,0,0-1.1.4l-1.5,2.5-3.1-.9a1.15,1.15,0,0,0-1.2.5l-4.2,7.8a.91.91,0,0,0,0,1l.3.5-3.1,1.79v-3.4h.7a1.27,1.27,0,0,0,.8-.39l5-7.3a1,1,0,0,0-.2-1.31l-2.3-2,1.5-2.4a.93.93,0,0,0-.2-1.29L23.62.23a1,1,0,0,0-1.3,0l-5.6,4.9a1,1,0,0,0-.2,1.3l1.4,2.3-2.3,2a1,1,0,0,0-.2,1.3l5,7.3a.91.91,0,0,0,.8.4h.7v3.4l-3.2-1.7.3-.5a.91.91,0,0,0,0-1l-4.1-7.7a1.08,1.08,0,0,0-1.2-.5l-3.1.9-1.5-2.5A.83.83,0,0,0,8,9.73l-7.3,2.2a1.09,1.09,0,0,0-.7,1.2l1.6,7.09a1,1,0,0,0,1,.8h3l.7,3a1,1,0,0,0,1,.8h0l9.2-.4a1,1,0,0,0,.8-.5l.4-.6,3.1,1.7-3.1,1.7-.4-.6a1,1,0,0,0-.8-.5l-9.2-.4a1,1,0,0,0-1,.8l-.7,3h-3a1,1,0,0,0-1,.8L0,36.92a1.09,1.09,0,0,0,.7,1.2L8,40.32a1,1,0,0,0,1.1-.4l1.5-2.5,3.1.9a1.15,1.15,0,0,0,1.2-.5l4.2-7.8a.91.91,0,0,0,0-1l-.3-.5,3.2-1.7v3.4h-.7a1.23,1.23,0,0,0-.8.4l-5,7.3a1,1,0,0,0,.2,1.3l2.3,2-1.5,2.4a1,1,0,0,0,.2,1.3l5.7,4.9a.84.84,0,0,0,.7.2,1.35,1.35,0,0,0,.7-.2l5.6-4.9a1,1,0,0,0,.2-1.3l-1.7-2.49,2.3-2a1,1,0,0,0,.2-1.3l-5-7.3a.91.91,0,0,0-.8-.4h-.7v-3.4l3.1,1.7-.3.5a.91.91,0,0,0,0,1l4.2,7.8a1.05,1.05,0,0,0,.9.5h.3l3.1-.9,1.5,2.5a.84.84,0,0,0,1.1.4l7.3-2.2A1.3,1.3,0,0,0,45.82,36.72ZM38,11.93l5.6,1.7L42.42,19h-1.8l.8-3.5a1.09,1.09,0,0,0-.7-1.2l-3.6-1.1Zm-5.7,2,7,2.1-1.5,6.69-2.2-.1,1-4.4a1.09,1.09,0,0,0-.7-1.2l-4.5-1.4Zm-2,3.6,4,1.2-.9,3.8-3.5-.21-1.1-1.89ZM18.52,6l4.4-3.8L27.32,6l-.9,1.4-2.8-2.5a1.05,1.05,0,0,0-1.3,0l-2.8,2.5Zm4.4,1,5.4,4.7-1.2,1.7-3.6-3.11a1.05,1.05,0,0,0-1.3,0l-3.6,3.11-1.2-1.7Zm-3.1,8,3.1-2.7L26,15l-1.9,2.79h-2.4ZM3.42,19l-1.3-5.4,5.6-1.7.8,1.4-3.6,1.1a1.09,1.09,0,0,0-.7,1.2l.8,3.5H3.42Zm3.1-3,7-2.1,1,1.79L10,17.12a1.09,1.09,0,0,0-.7,1.2l1,4.4-2.2.1Zm9.4,6.29-3.6.21-.9-3.8,4-1.2,1.6,3ZM7.82,37.93l-5.6-1.71,1.2-5.4h1.8l-.8,3.51a1.09,1.09,0,0,0,.7,1.2l3.6,1.1Zm5.7-2-7-2.1L8,27.13l2.2.1-1,4.4a1.09,1.09,0,0,0,.7,1.2l4.5,1.4Zm2-3.6-4-1.2.9-3.8,3.6.2,1.1,1.9Zm11.8,11.5-4.4,3.8-4.4-3.8.9-1.4,2.8,2.5a.84.84,0,0,0,.7.2,1.45,1.45,0,0,0,.7-.2l2.8-2.5Zm-4.4-1-5.4-4.7,1.2-1.7,3.6,3.09a.84.84,0,0,0,.7.2,1.35,1.35,0,0,0,.7-.2l3.6-3.09,1.2,1.7Zm3.1-8-3.1,2.6-3.1-2.71,1.9-2.79h2.4Zm3.9-7.3,3.6-.21.9,3.81-4,1.2-1.6-3Zm1.4,6.6,4.5-1.41a1.09,1.09,0,0,0,.7-1.2l-1-4.4,2.2-.1,1.5,6.7-7,2.1Zm6.7,3.8-.8-1.41,3.6-1.09a1.1,1.1,0,0,0,.7-1.21l-.8-3.5h1.8l1.3,5.41Z"/></g></g></svg>