<svg xmlns="http://www.w3.org/2000/svg" xmlns:xlink="http://www.w3.org/1999/xlink" viewBox="0 0 79.8 90"><defs><style>.cls-1{opacity:0.8;fill:url(#radial-gradient);}</style><radialGradient id="radial-gradient" cx="39.9" cy="45" r="42.53" gradientUnits="userSpaceOnUse"><stop offset="0" stop-color="#2ec8f8" stop-opacity="0.8"/><stop offset="0.38" stop-color="#68d0f3" stop-opacity="0.77"/><stop offset="0.76" stop-color="#99d7ef" stop-opacity="0.75"/><stop offset="0.96" stop-color="#abd9ed" stop-opacity="0.74"/></radialGradient></defs><g id="Layer_2" data-name="Layer 2"><g id="Layer_1-2" data-name="Layer 1"><path class="cls-1" d="M79.32,49.39a3.58,3.58,0,0,0-4.9-1.32l-11,6.36L47.07,45l16.34-9.43,11,6.36a3.67,3.67,0,0,0,1.79.48A3.59,3.59,0,0,0,78,35.72l-7.43-4.29,7-4A3.59,3.59,0,1,0,74,21.19l-7,4V16.64a3.59,3.59,0,1,0-7.17,0V29.36L43.49,38.79V19.92l11-6.35a3.58,3.58,0,0,0-3.58-6.21l-7.43,4.28v-8a3.59,3.59,0,0,0-7.18,0v8.05L28.89,7.36a3.59,3.59,0,1,0-3.59,6.21l11,6.36V38.79L20,29.36V16.64a3.59,3.59,0,1,0-7.17,0v8.58l-7-4A3.59,3.59,0,1,0,2.24,27.4l7,4L1.79,35.72a3.59,3.59,0,0,0,1.8,6.69,3.64,3.64,0,0,0,1.79-.48l11-6.36L32.74,45,16.41,54.43l-11-6.36a3.59,3.59,0,0,0-3.59,6.21l7.43,4.29-7,4a3.59,3.59,0,0,0,1.8,6.69,3.54,3.54,0,0,0,1.79-.48l7-4v8.58a3.59,3.59,0,0,0,7.17,0V60.64l16.33-9.43V70.08l-11,6.35a3.59,3.59,0,0,0,1.8,6.7,3.55,3.55,0,0,0,1.79-.49l7.43-4.28v8a3.59,3.59,0,1,0,7.17,0v-8l7.42,4.28a3.59,3.59,0,1,0,3.59-6.21l-11-6.35V51.22l16.31,9.42V73.36a3.59,3.59,0,1,0,7.17,0V64.79l7,4a3.59,3.59,0,0,0,3.59-6.21l-7-4L78,54.29A3.6,3.6,0,0,0,79.32,49.39Z"/></g></g></svg>