<svg xmlns="http://www.w3.org/2000/svg" xmlns:xlink="http://www.w3.org/1999/xlink" viewBox="0 0 43.59 50"><defs><style>.cls-1{opacity:0.7;fill:url(#radial-gradient);}</style><radialGradient id="radial-gradient" cx="21.8" cy="25" r="23.45" gradientUnits="userSpaceOnUse"><stop offset="0.22" stop-color="#2ec8f8" stop-opacity="0.8"/><stop offset="0.39" stop-color="#44cbf6" stop-opacity="0.79"/><stop offset="0.73" stop-color="#7ed3f1" stop-opacity="0.76"/><stop offset="0.96" stop-color="#abd9ed" stop-opacity="0.74"/></radialGradient></defs><g id="Layer_2" data-name="Layer 2"><g id="Layer_1-2" data-name="Layer 1"><path class="cls-1" d="M43.1,36.1l-1.5-.9a2.51,2.51,0,0,1,.7-.4,1,1,0,1,0-.5-1.9,3.9,3.9,0,0,0-2,1.3l-1.9-1.1a3.23,3.23,0,0,1,1.7-1,1,1,0,0,0,.7-1.2,1.09,1.09,0,0,0-1.2-.7,5.31,5.31,0,0,0-2.9,1.9L34.3,31a4.42,4.42,0,0,1,2.3-1.5,1,1,0,0,0,.7-1.2,1,1,0,0,0-1.2-.7A6.35,6.35,0,0,0,32.6,30l-1.4-.8L29.8,25l1.3-4.2,1.5-.9a6.69,6.69,0,0,0,3.6,2.2,1,1,0,1,0,.5-1.9,4.78,4.78,0,0,1-2.3-1.3l1.8-1a6,6,0,0,0,3,1.9,1,1,0,1,0,.5-1.9,4,4,0,0,1-1.8-1l1.8-1.1A5,5,0,0,0,42,17.2a1,1,0,0,0,.5-1.9,3.13,3.13,0,0,1-1-.5l1.5-.9a1.11,1.11,0,0,0,.4-1.4,1.11,1.11,0,0,0-1.4-.4l-1.4.9a2,2,0,0,1,.1-.8,1,1,0,0,0-1.9-.5,3.94,3.94,0,0,0,.1,2.4L37,15.2a4.44,4.44,0,0,1-.1-2,1,1,0,0,0-1.9-.5,6,6,0,0,0,.2,3.5l-1.9,1.1a5.29,5.29,0,0,1-.2-2.8,1,1,0,0,0-1.9-.5,7,7,0,0,0,.3,4.3l-1.4.8L25.8,18l-3-3.2V13.1a6.76,6.76,0,0,0,3.7-2,1,1,0,1,0-1.4-1.4A4.88,4.88,0,0,1,22.8,11V9A5.91,5.91,0,0,0,26,7.3a1,1,0,1,0-1.4-1.4,4,4,0,0,1-1.8,1V4.8a4.1,4.1,0,0,0,2.3-1.3,1,1,0,0,0,0-1.4,1,1,0,0,0-1.4,0,2.36,2.36,0,0,1-.9.6V1a1,1,0,0,0-2,0V2.7a1.79,1.79,0,0,1-.7-.5,1,1,0,0,0-1.4,0,1,1,0,0,0,0,1.4,3.6,3.6,0,0,0,2.1,1.1V7a3.15,3.15,0,0,1-1.7-.9,1,1,0,1,0-1.4,1.4,5.81,5.81,0,0,0,3.1,1.6v2.1A4.87,4.87,0,0,1,18.3,10a1,1,0,0,0-1.4,1.4,5.92,5.92,0,0,0,3.9,1.8v1.7l-3,3.2-4.3,1L12,18.2a7.48,7.48,0,0,0,.2-4.2,1,1,0,1,0-1.9.5,6.15,6.15,0,0,1,0,2.7l-1.8-1a5.54,5.54,0,0,0,.1-3.6,1,1,0,0,0-1.9.5,3.4,3.4,0,0,1,0,2L4.8,14a5,5,0,0,0,.1-2.7,1,1,0,0,0-1.2-.7A1,1,0,0,0,3,11.8a4.1,4.1,0,0,1,.1,1.1L1.6,12a1,1,0,0,0-1.4.4,1,1,0,0,0,.4,1.4l1.5.9a3.55,3.55,0,0,1-.9.4,1,1,0,0,0-.7,1.2,1,1,0,0,0,1.3.7,3.9,3.9,0,0,0,2-1.3l1.9,1.1a3.23,3.23,0,0,1-1.7,1A1,1,0,0,0,3.3,19a1,1,0,0,0,1.2.7,5.31,5.31,0,0,0,2.9-1.9l1.9,1.1A4.42,4.42,0,0,1,7,20.4a1,1,0,0,0-.7,1.2,1,1,0,0,0,1.2.7A6.35,6.35,0,0,0,11,19.9l1.4.8L13.8,25l-1.3,4.2-1.5.9a6.47,6.47,0,0,0-3.6-2.2,1,1,0,1,0-.5,1.9,4.78,4.78,0,0,1,2.3,1.3l-1.8,1a6,6,0,0,0-3-1.9,1,1,0,0,0-.5,1.9,4,4,0,0,1,1.8,1L3.8,34.2a5,5,0,0,0-2.3-1.4,1,1,0,0,0-1.2.7A1,1,0,0,0,1,34.7a3.13,3.13,0,0,1,1,.5l-1.5.9a1.11,1.11,0,0,0-.4,1.4,1.11,1.11,0,0,0,1.4.4L3,37a2,2,0,0,1-.1.8A1,1,0,0,0,3.6,39a1,1,0,0,0,1.2-.7,3.62,3.62,0,0,0,0-2.3l1.9-1.1a4.44,4.44,0,0,1,.1,2,1,1,0,0,0,.7,1.2,1,1,0,0,0,1.2-.7,6,6,0,0,0-.2-3.5l1.8-1.1a5.29,5.29,0,0,1,.2,2.8,1,1,0,0,0,1.9.5,6.39,6.39,0,0,0-.3-4.3l1.4-.8,4.3,1,3,3.2v1.7a6.76,6.76,0,0,0-3.7,2,1,1,0,0,0,1.4,1.4A4.88,4.88,0,0,1,20.8,39v2c-1.7.3-4.4,1.9-3.2,3.1a1,1,0,0,0,1.4,0,4,4,0,0,1,1.8-1v2.1c-1.5.3-3.4,1.6-2.3,2.7a1,1,0,0,0,1.4,0,2.36,2.36,0,0,1,.9-.6V49a1,1,0,0,0,2,0V47.3a1.79,1.79,0,0,1,.7.5,1,1,0,0,0,1.4-1.4,4.45,4.45,0,0,0-2.1-1.2V43a3.15,3.15,0,0,1,1.7.9,1,1,0,1,0,1.4-1.4,5.81,5.81,0,0,0-3.1-1.6V38.8A4.87,4.87,0,0,1,25.3,40a1,1,0,0,0,1.4-1.4,6.14,6.14,0,0,0-3.9-1.8V35.1l3-3.2,4.3-1,1.5.9a7.48,7.48,0,0,0-.2,4.2,1,1,0,0,0,1,.7,1,1,0,0,0,1-1.3,6.15,6.15,0,0,1,0-2.7l1.8,1a5.54,5.54,0,0,0-.1,3.6,1,1,0,0,0,1,.7,1,1,0,0,0,1-1.3,3.4,3.4,0,0,1,0-2L38.8,36a4.93,4.93,0,0,0-.1,2.7,1,1,0,0,0,1,.7,1,1,0,0,0,1-1.3,4.48,4.48,0,0,1-.1-1.1l1.5.9a1,1,0,0,0,1.4-.4A1.11,1.11,0,0,0,43.1,36.1ZM15.8,24.7l-.7-2.5L19.8,25,15,27.7l.7-2.4A1.27,1.27,0,0,0,15.8,24.7Zm5,7.5L19,30.3a2.19,2.19,0,0,0-.5-.3L16,29.4l4.8-2.7Zm0-8.9L16,20.6l2.5-.6a.55.55,0,0,0,.5-.3l1.8-1.9Zm2-5.5,1.8,1.9a2.19,2.19,0,0,0,.5.3l2.5.6-4.8,2.7Zm2.3,12.3a.55.55,0,0,0-.5.3l-1.8,1.8V26.7l4.8,2.7ZM23.8,25l4.8-2.7-.8,2.4a.64.64,0,0,0,0,.6l.7,2.5Z"/></g></g></svg>