<?xml version="1.0" encoding="utf-8"?>
<!-- Generator: Adobe Illustrator 25.0.1, SVG Export Plug-In . SVG Version: 6.00 Build 0)  -->
<svg version="1.1" id="Layer_1" xmlns="http://www.w3.org/2000/svg" xmlns:xlink="http://www.w3.org/1999/xlink" x="0px" y="0px"
	 viewBox="0 0 52 65" style="enable-background:new 0 0 52 65;" xml:space="preserve">
<style type="text/css">
	.st0{opacity:0.8;fill:url(#SVGID_1_);}
</style>
<radialGradient id="SVGID_1_" cx="26" cy="26.0875" r="23.9887" gradientUnits="userSpaceOnUse">
	<stop  offset="0" style="stop-color:#2EC8F8;stop-opacity:0.8"/>
	<stop  offset="0.1759" style="stop-color:#32C9F8;stop-opacity:0.789"/>
	<stop  offset="0.3475" style="stop-color:#3ECAF7;stop-opacity:0.7783"/>
	<stop  offset="0.5175" style="stop-color:#51CDF5;stop-opacity:0.7677"/>
	<stop  offset="0.6863" style="stop-color:#6DD1F2;stop-opacity:0.7572"/>
	<stop  offset="0.8529" style="stop-color:#90D5EF;stop-opacity:0.7468"/>
	<stop  offset="0.9613" style="stop-color:#ABD9ED;stop-opacity:0.74"/>
</radialGradient>
<path class="st0" d="M48.9,37.8l-1.6-7.1c-0.1-0.5-0.5-0.8-1-0.8h-3l-0.7-3c-0.1-0.5-0.5-0.8-1-0.8l-9.2,0.4c-0.3,0-0.6,0.2-0.8,0.5
	l-0.4,0.6L28.1,26l3.1-1.7l0.4,0.6c0.2,0.3,0.5,0.5,0.8,0.5l9.2,0.4l0,0c0.5,0,0.9-0.3,1-0.8l0.7-3h3l0,0c0.5,0,0.9-0.3,1-0.8
	l1.6-7.1c0.1-0.5-0.2-1-0.7-1.2l-7.3-2.2c-0.4-0.1-0.9,0-1.1,0.4l-1.5,2.5l-3.1-0.9c-0.5-0.1-0.9,0.1-1.2,0.5L29.8,21
	c-0.2,0.3-0.2,0.7,0,1l0.3,0.5L27,24.3v-3.4h0.7c0.3,0,0.6-0.2,0.8-0.4l5-7.3c0.3-0.4,0.2-1-0.2-1.3l-2.3-2l1.5-2.4
	c0.3-0.4,0.2-1-0.2-1.3l-5.6-4.9c-0.4-0.3-0.9-0.3-1.3,0l-5.6,4.9c-0.4,0.3-0.5,0.9-0.2,1.3L21,9.8l-2.3,2c-0.4,0.3-0.5,0.9-0.2,1.3
	l5,7.3c0.2,0.3,0.5,0.4,0.8,0.4H25v3.4l-3.2-1.7l0.3-0.5c0.2-0.3,0.2-0.7,0-1L18,13.3c-0.2-0.4-0.7-0.6-1.2-0.5l-3.1,0.9l-1.5-2.5
	c-0.2-0.4-0.7-0.6-1.1-0.4L3.8,13c-0.5,0.2-0.8,0.7-0.7,1.2l1.6,7.1c0.1,0.5,0.5,0.8,1,0.8h3l0.7,3c0.1,0.5,0.5,0.8,1,0.8l0,0
	l9.2-0.4c0.3,0,0.6-0.2,0.8-0.5l0.4-0.6l3.1,1.7l-3.1,1.7l-0.4-0.6c-0.2-0.3-0.5-0.5-0.8-0.5l-9.2-0.4c-0.5,0-0.9,0.3-1,0.8l-0.7,3
	h-3l0,0c-0.5,0-0.9,0.3-1,0.8L3.1,38c-0.1,0.5,0.2,1,0.7,1.2l7.3,2.2c0.4,0.1,0.9,0,1.1-0.4l1.5-2.5l3.1,0.9
	c0.5,0.1,0.9-0.1,1.2-0.5l4.2-7.8c0.2-0.3,0.2-0.7,0-1l-0.3-0.5l3.2-1.7v3.4h-0.7c-0.3,0-0.6,0.2-0.8,0.4l-5,7.3
	c-0.3,0.4-0.2,1,0.2,1.3l2.3,2l-1.5,2.4c-0.3,0.4-0.2,1,0.2,1.3l5.7,4.9c0.2,0.2,0.4,0.2,0.7,0.2s0.5-0.1,0.7-0.2l5.6-4.9
	c0.4-0.3,0.5-0.9,0.2-1.3L31,42.2l2.3-2c0.4-0.3,0.5-0.9,0.2-1.3l-5-7.3c-0.2-0.3-0.5-0.4-0.8-0.4H27v-3.4l3.1,1.7L29.8,30
	c-0.2,0.3-0.2,0.7,0,1l4.2,7.8c0.2,0.3,0.5,0.5,0.9,0.5c0.1,0,0.2,0,0.3,0l3.1-0.9l1.5,2.5c0.2,0.4,0.7,0.6,1.1,0.4l7.3-2.2
	C48.7,38.8,49,38.3,48.9,37.8z M41.1,13l5.6,1.7l-1.2,5.4h-1.8l0.8-3.5c0.1-0.5-0.2-1-0.7-1.2l-3.6-1.1L41.1,13z M35.4,15l7,2.1
	l-1.5,6.7l-2.2-0.1l1-4.4c0.1-0.5-0.2-1-0.7-1.2l-4.5-1.4L35.4,15z M33.4,18.6l4,1.2l-0.9,3.8L33,23.4l-1.1-1.9L33.4,18.6z
	 M21.6,7.1L26,3.3l4.4,3.8l-0.9,1.4L26.7,6c-0.4-0.3-0.9-0.3-1.3,0l-2.8,2.5L21.6,7.1z M26,8.1l5.4,4.7l-1.2,1.7l-3.6-3.1
	c-0.4-0.3-0.9-0.3-1.3,0l-3.6,3.1l-1.2-1.7L26,8.1z M22.9,16.1l3.1-2.7l3.1,2.7l-1.9,2.8h-2.4L22.9,16.1z M6.5,20.1l-1.3-5.4
	l5.6-1.7l0.8,1.4L8,15.5c-0.5,0.2-0.8,0.7-0.7,1.2l0.8,3.5H6.5V20.1z M9.6,17.1l7-2.1l1,1.8l-4.5,1.4c-0.5,0.2-0.8,0.7-0.7,1.2
	l1,4.4l-2.2,0.1L9.6,17.1z M19,23.4l-3.6,0.2l-0.9-3.8l4-1.2l1.6,3L19,23.4z M10.9,39l-5.6-1.7l1.2-5.4h1.8l-0.8,3.5
	c-0.1,0.5,0.2,1,0.7,1.2l3.6,1.1L10.9,39z M16.6,37l-7-2.1l1.5-6.7l2.2,0.1l-1,4.4c-0.1,0.5,0.2,1,0.7,1.2l4.5,1.4L16.6,37z
	 M18.6,33.4l-4-1.2l0.9-3.8l3.6,0.2l1.1,1.9L18.6,33.4z M30.4,44.9L26,48.7l-4.4-3.8l0.9-1.4l2.8,2.5c0.2,0.2,0.4,0.2,0.7,0.2
	s0.5-0.1,0.7-0.2l2.8-2.5L30.4,44.9z M26,43.9l-5.4-4.7l1.2-1.7l3.6,3.1c0.2,0.2,0.4,0.2,0.7,0.2s0.5-0.1,0.7-0.2l3.6-3.1l1.2,1.7
	L26,43.9z M29.1,35.9L26,38.5l-3.1-2.7l1.9-2.8h2.4L29.1,35.9z M33,28.6l3.6-0.2l0.9,3.8l-4,1.2l-1.6-3L33,28.6z M34.4,35.2l4.5-1.4
	c0.5-0.2,0.8-0.7,0.7-1.2l-1-4.4l2.2-0.1l1.5,6.7l-7,2.1L34.4,35.2z M41.1,39l-0.8-1.4l3.6-1.1c0.5-0.2,0.8-0.7,0.7-1.2l-0.8-3.5
	h1.8l1.3,5.4L41.1,39z"/>
</svg>
