<?xml version="1.0" encoding="utf-8"?>
<!-- Generator: Adobe Illustrator 25.0.1, SVG Export Plug-In . SVG Version: 6.00 Build 0)  -->
<svg version="1.1" id="Layer_1" xmlns="http://www.w3.org/2000/svg" xmlns:xlink="http://www.w3.org/1999/xlink" x="0px" y="0px"
	 viewBox="0 0 52 65" style="enable-background:new 0 0 52 65;" xml:space="preserve">
<style type="text/css">
	.st0{opacity:0.7;fill:url(#SVGID_1_);}
</style>
<radialGradient id="SVGID_1_" cx="26" cy="26" r="23.453" gradientUnits="userSpaceOnUse">
	<stop  offset="0.2165" style="stop-color:#2EC8F8;stop-opacity:0.8"/>
	<stop  offset="0.3481" style="stop-color:#3ECAF7;stop-opacity:0.7894"/>
	<stop  offset="0.6056" style="stop-color:#68D0F3;stop-opacity:0.7687"/>
	<stop  offset="0.9613" style="stop-color:#ABD9ED;stop-opacity:0.74"/>
</radialGradient>
<path class="st0" d="M47.3,37.1l-1.5-0.9c0.2-0.2,0.5-0.3,0.7-0.4c0.5-0.1,0.9-0.7,0.7-1.2c-0.1-0.5-0.7-0.9-1.2-0.7
	c-0.8,0.2-1.5,0.7-2,1.3l-1.9-1.1c0.4-0.5,1-0.8,1.7-1c0.5-0.1,0.9-0.7,0.7-1.2s-0.7-0.8-1.2-0.7c-1.2,0.3-2.2,1-2.9,1.9L38.5,32
	c0.6-0.7,1.4-1.3,2.3-1.5c0.5-0.1,0.9-0.7,0.7-1.2s-0.7-0.9-1.2-0.7c-1.5,0.4-2.7,1.3-3.5,2.4l-1.4-0.8L34,26l1.3-4.2l1.5-0.9
	c0.9,1,2.1,1.9,3.6,2.2c0.5,0.1,1.1-0.2,1.2-0.7c0.1-0.5-0.2-1.1-0.7-1.2c-0.9-0.2-1.7-0.7-2.3-1.3l1.8-1c0.8,0.9,1.8,1.6,3,1.9
	c0.5,0.1,1.1-0.2,1.2-0.7c0.1-0.5-0.2-1.1-0.7-1.2c-0.7-0.2-1.3-0.5-1.8-1l1.8-1.1c0.6,0.7,1.4,1.1,2.3,1.4c0.5,0.1,1.1-0.2,1.2-0.7
	c0.1-0.5-0.2-1.1-0.7-1.2c-0.4-0.1-0.7-0.3-1-0.5l1.5-0.9c0.5-0.3,0.6-0.9,0.4-1.4c-0.3-0.5-0.9-0.6-1.4-0.4L44.8,14
	c0-0.3,0-0.6,0.1-0.8c0.1-0.5-0.2-1.1-0.7-1.2c-0.5-0.1-1.1,0.2-1.2,0.7c-0.2,0.8-0.2,1.6,0.1,2.4l-1.9,1.1c-0.2-0.6-0.2-1.3-0.1-2
	c0.1-0.5-0.2-1.1-0.7-1.2c-0.5-0.1-1.1,0.2-1.2,0.7c-0.3,1.2-0.2,2.4,0.2,3.5l-1.9,1.1c-0.3-0.9-0.4-1.8-0.2-2.8
	c0.1-0.5-0.2-1.1-0.7-1.2c-0.5-0.1-1.1,0.2-1.2,0.7c-0.4,1.5-0.2,3,0.3,4.3l-1.4,0.8L30,19l-3-3.2v-1.7c1.4-0.3,2.7-0.9,3.7-2
	c0.4-0.4,0.4-1,0-1.4s-1-0.4-1.4,0c-0.7,0.7-1.5,1.1-2.3,1.3v-2c1.2-0.2,2.3-0.8,3.2-1.7c0.4-0.4,0.4-1,0-1.4s-1-0.4-1.4,0
	c-0.5,0.5-1.1,0.8-1.8,1V5.8c0.9-0.2,1.7-0.6,2.3-1.3c0.4-0.4,0.4-1,0-1.4s-1-0.4-1.4,0c-0.3,0.3-0.6,0.5-0.9,0.6V2c0-0.6-0.4-1-1-1
	s-1,0.4-1,1v1.7c-0.3-0.1-0.5-0.3-0.7-0.5c-0.4-0.4-1-0.4-1.4,0s-0.4,1,0,1.4c0.6,0.6,1.3,1,2.1,1.1V8c-0.6-0.1-1.2-0.4-1.7-0.9
	c-0.4-0.4-1-0.4-1.4,0s-0.4,1,0,1.4c0.9,0.9,2,1.4,3.1,1.6v2.1c-0.9-0.1-1.8-0.6-2.5-1.2c-0.4-0.4-1-0.4-1.4,0s-0.4,1,0,1.4
	c1.1,1.1,2.4,1.7,3.9,1.8v1.7l-3,3.2l-4.3,1l-1.5-0.9c0.5-1.3,0.5-2.8,0.2-4.2c-0.1-0.5-0.7-0.9-1.2-0.7c-0.5,0.1-0.9,0.7-0.7,1.2
	c0.2,0.9,0.2,1.8,0,2.7l-1.8-1c0.4-1.1,0.5-2.4,0.1-3.6c-0.1-0.5-0.7-0.9-1.2-0.7c-0.5,0.1-0.9,0.7-0.7,1.2c0.2,0.7,0.2,1.4,0,2
	L9,15c0.3-0.9,0.3-1.8,0.1-2.7c-0.1-0.5-0.7-0.9-1.2-0.7c-0.5,0.1-0.9,0.7-0.7,1.2c0.1,0.4,0.1,0.7,0.1,1.1L5.8,13
	c-0.5-0.3-1.1-0.1-1.4,0.4s-0.1,1.1,0.4,1.4l1.5,0.9C6,15.9,5.7,16,5.4,16.1c-0.5,0.1-0.9,0.7-0.7,1.2C4.9,17.9,5.4,18.2,6,18
	c0.8-0.2,1.5-0.7,2-1.3l1.9,1.1c-0.4,0.5-1,0.8-1.7,1c-0.5,0.1-0.9,0.7-0.7,1.2c0.1,0.5,0.7,0.8,1.2,0.7c1.2-0.3,2.2-1,2.9-1.9
	l1.9,1.1c-0.6,0.7-1.4,1.3-2.3,1.5c-0.5,0.1-0.9,0.7-0.7,1.2c0.1,0.5,0.7,0.8,1.2,0.7c1.5-0.4,2.7-1.3,3.5-2.4l1.4,0.8L18,26
	l-1.3,4.2l-1.5,0.9c-0.9-1.1-2.2-1.9-3.6-2.2c-0.5-0.1-1.1,0.2-1.2,0.7c-0.1,0.5,0.2,1.1,0.7,1.2c0.9,0.2,1.7,0.7,2.3,1.3l-1.8,1
	c-0.8-0.9-1.8-1.6-3-1.9c-0.5-0.1-1.1,0.2-1.2,0.7c-0.1,0.5,0.2,1.1,0.7,1.2c0.7,0.2,1.3,0.5,1.8,1L8,35.2c-0.6-0.7-1.4-1.1-2.3-1.4
	c-0.5-0.1-1.1,0.2-1.2,0.7s0.2,1.1,0.7,1.2c0.4,0.1,0.7,0.3,1,0.5l-1.5,0.9c-0.5,0.3-0.6,0.9-0.4,1.4c0.3,0.5,0.9,0.6,1.4,0.4
	L7.2,38c0,0.3,0,0.6-0.1,0.8C7,39.3,7.3,39.9,7.8,40c0.5,0.1,1.1-0.2,1.2-0.7c0.3-0.7,0.2-1.6,0-2.3l1.9-1.1c0.2,0.6,0.2,1.3,0.1,2
	c-0.1,0.5,0.2,1.1,0.7,1.2c0.5,0.1,1.1-0.2,1.2-0.7c0.3-1.2,0.2-2.4-0.2-3.5l1.8-1.1c0.3,0.9,0.4,1.8,0.2,2.8
	c-0.1,0.5,0.2,1.1,0.7,1.2c0.5,0.1,1.1-0.2,1.2-0.7c0.4-1.4,0.3-2.9-0.3-4.3l1.4-0.8l4.3,1l3,3.2v1.7c-1.4,0.3-2.7,0.9-3.7,2
	c-0.4,0.4-0.4,1,0,1.4s1,0.4,1.4,0c0.7-0.7,1.5-1.1,2.3-1.3v2c-1.7,0.3-4.4,1.9-3.2,3.1c0.4,0.4,1,0.4,1.4,0c0.5-0.5,1.1-0.8,1.8-1
	v2.1c-1.5,0.3-3.4,1.6-2.3,2.7c0.4,0.4,1,0.4,1.4,0c0.3-0.3,0.6-0.5,0.9-0.6V50c0,0.6,0.4,1,1,1s1-0.4,1-1v-1.7
	c0.3,0.1,0.5,0.3,0.7,0.5c0.4,0.4,1,0.4,1.4,0s0.4-1,0-1.4c-0.6-0.6-1.3-1-2.1-1.2V44c0.6,0.1,1.2,0.4,1.7,0.9c0.4,0.4,1,0.4,1.4,0
	s0.4-1,0-1.4c-0.9-0.9-2-1.4-3.1-1.6v-2.1c0.9,0.1,1.8,0.6,2.5,1.2c0.4,0.4,1,0.4,1.4,0s0.4-1,0-1.4c-1.1-1.1-2.5-1.7-3.9-1.8v-1.7
	l3-3.2l4.3-1l1.5,0.9c-0.5,1.3-0.5,2.8-0.2,4.2c0.1,0.4,0.5,0.7,1,0.7c0.7,0,1.1-0.6,1-1.3c-0.2-0.9-0.2-1.8,0-2.7l1.8,1
	c-0.4,1.1-0.5,2.4-0.1,3.6c0.1,0.4,0.5,0.7,1,0.7c0.7,0,1.1-0.6,1-1.3c-0.2-0.7-0.2-1.4,0-2L43,37c-0.3,0.8-0.3,1.8-0.1,2.7
	c0.1,0.4,0.5,0.7,1,0.7c0.7,0,1.1-0.6,1-1.3c-0.1-0.4-0.1-0.8-0.1-1.1l1.5,0.9c0.5,0.3,1.1,0.1,1.4-0.4C47.9,38,47.8,37.4,47.3,37.1
	z M20,25.7l-0.7-2.5L24,26l-4.8,2.7l0.7-2.4C20,26.1,20,25.9,20,25.7z M25,33.2l-1.8-1.9c-0.1-0.1-0.3-0.2-0.5-0.3l-2.5-0.6l4.8-2.7
	V33.2z M25,24.3l-4.8-2.7l2.5-0.6c0.2,0,0.4-0.1,0.5-0.3l1.8-1.9V24.3z M27,18.8l1.8,1.9c0.1,0.1,0.3,0.2,0.5,0.3l2.5,0.6L27,24.3
	V18.8z M29.3,31.1c-0.2,0-0.4,0.1-0.5,0.3L27,33.2v-5.5l4.8,2.7L29.3,31.1z M28,26l4.8-2.7L32,25.7c-0.1,0.2-0.1,0.4,0,0.6l0.7,2.5
	L28,26z"/>
</svg>
