<?xml version="1.0" encoding="utf-8"?>
<!-- Generator: Adobe Illustrator 25.0.1, SVG Export Plug-In . SVG Version: 6.00 Build 0)  -->
<svg version="1.1" id="Layer_1" xmlns="http://www.w3.org/2000/svg" xmlns:xlink="http://www.w3.org/1999/xlink" x="0px" y="0px"
	 viewBox="0 0 100 125" style="enable-background:new 0 0 100 125;" xml:space="preserve">
<style type="text/css">
	.st0{opacity:0.8;fill:url(#SVGID_1_);}
	.st1{fill:url(#SVGID_2_);}
</style>
<radialGradient id="SVGID_1_" cx="50.0011" cy="50.0005" r="42.5272" gradientUnits="userSpaceOnUse">
	<stop  offset="0" style="stop-color:#2EC8F8;stop-opacity:0.8"/>
	<stop  offset="0.1338" style="stop-color:#43CBF6;stop-opacity:0.7917"/>
	<stop  offset="0.5196" style="stop-color:#7BD2F1;stop-opacity:0.7676"/>
	<stop  offset="0.8069" style="stop-color:#9ED7EE;stop-opacity:0.7496"/>
	<stop  offset="0.9613" style="stop-color:#ABD9ED;stop-opacity:0.74"/>
</radialGradient>
<path class="st0" d="M89.4,54.4c-1-1.7-3.2-2.3-4.9-1.3l-11,6.4L57.2,50l16.3-9.4l11,6.4c0.6,0.3,1.2,0.5,1.8,0.5
	c1.2,0,2.4-0.6,3.1-1.8c1-1.7,0.4-3.9-1.3-4.9l-7.4-4.3l7-4c1.7-1,2.3-3.2,1.3-4.9c-1-1.7-3.2-2.3-4.9-1.3l-7,4v-8.6
	c0-2-1.6-3.6-3.6-3.6c-2,0-3.6,1.6-3.6,3.6v12.7l-16.3,9.4V24.9l11-6.4c1.7-1,2.3-3.2,1.3-4.9c-1-1.7-3.2-2.3-4.9-1.3l-7.4,4.3V8.6
	C53.6,6.6,52,5,50,5c-2,0-3.6,1.6-3.6,3.6v8.1L39,12.4c-1.7-1-3.9-0.4-4.9,1.3c-1,1.7-0.4,3.9,1.3,4.9l11,6.4v18.9l-16.3-9.4V21.6
	c0-2-1.6-3.6-3.6-3.6c-2,0-3.6,1.6-3.6,3.6v8.6l-7-4c-1.7-1-3.9-0.4-4.9,1.3c-1,1.7-0.4,3.9,1.3,4.9l7,4l-7.4,4.3
	c-1.7,1-2.3,3.2-1.3,4.9c0.7,1.2,1.9,1.8,3.1,1.8c0.6,0,1.2-0.2,1.8-0.5l11-6.4L42.8,50l-16.3,9.4l-11-6.4c-1.7-1-3.9-0.4-4.9,1.3
	c-1,1.7-0.4,3.9,1.3,4.9l7.4,4.3l-7,4c-1.7,1-2.3,3.2-1.3,4.9c0.7,1.1,1.9,1.8,3.1,1.8c0.6,0,1.2-0.2,1.8-0.5l7-4l0,8.6
	c0,2,1.6,3.6,3.6,3.6c2,0,3.6-1.6,3.6-3.6V65.6l16.3-9.4v18.9l-11,6.4c-1.7,1-2.3,3.2-1.3,4.9c0.7,1.2,1.9,1.8,3.1,1.8
	c0.6,0,1.2-0.2,1.8-0.5l7.4-4.3v8.1c0,2,1.6,3.6,3.6,3.6c2,0,3.6-1.6,3.6-3.6v-8.1l7.4,4.3c0.6,0.3,1.2,0.5,1.8,0.5
	c1.2,0,2.4-0.6,3.1-1.8c1-1.7,0.4-3.9-1.3-4.9l-11-6.4V56.2l16.3,9.4v12.7c0,2,1.6,3.6,3.6,3.6c2,0,3.6-1.6,3.6-3.6v-8.6l7,4
	c0.6,0.3,1.2,0.5,1.8,0.5c1.2,0,2.4-0.6,3.1-1.8c1-1.7,0.4-3.9-1.3-4.9l-7-4l7.4-4.3C89.8,58.3,90.4,56.1,89.4,54.4z"/>
<radialGradient id="SVGID_2_" cx="-21.8153" cy="40.5541" r="8.3408" gradientUnits="userSpaceOnUse">
	<stop  offset="0" style="stop-color:#2EC8F8;stop-opacity:0.8"/>
	<stop  offset="0.6179" style="stop-color:#81D3F1;stop-opacity:0.7614"/>
	<stop  offset="0.9613" style="stop-color:#ABD9ED;stop-opacity:0.74"/>
</radialGradient>
<rect x="-30.2" y="32.2" class="st1" width="16.7" height="16.7"/>
</svg>
