<svg xmlns="http://www.w3.org/2000/svg" xmlns:xlink="http://www.w3.org/1999/xlink" viewBox="0 0 1920 1080"><defs><style>.cls-1{fill:url(#radial-gradient);}.cls-2{fill:url(#radial-gradient-2);}.cls-3{fill:url(#radial-gradient-3);}.cls-4{fill:url(#radial-gradient-4);}.cls-5{fill:url(#radial-gradient-5);}.cls-6{fill:url(#radial-gradient-6);}.cls-7{fill:url(#radial-gradient-7);}.cls-8{fill:url(#radial-gradient-8);}.cls-9{fill:url(#radial-gradient-9);}.cls-10{fill:url(#radial-gradient-10);}.cls-11{fill:url(#radial-gradient-11);}.cls-12{fill:url(#radial-gradient-12);}.cls-13{fill:url(#radial-gradient-13);}</style><radialGradient id="radial-gradient" cx="601.72" cy="631.3" r="18.4" gradientTransform="matrix(0.98, -0.18, 0.18, 0.98, -30.39, -387.87)" gradientUnits="userSpaceOnUse"><stop offset="0" stop-color="#df7e88"/><stop offset="0.46" stop-color="#de7c8a"/><stop offset="0.63" stop-color="#db758f"/><stop offset="0.75" stop-color="#d66a98"/><stop offset="0.85" stop-color="#ce59a6"/><stop offset="0.93" stop-color="#c543b7"/><stop offset="1" stop-color="#b928cd"/><stop offset="1" stop-color="#b928cd"/></radialGradient><radialGradient id="radial-gradient-2" cx="-1323.56" cy="2341.65" r="18.4" gradientTransform="matrix(0.57, -0.82, 0.82, 0.57, -1003.42, -2181.04)" xlink:href="#radial-gradient"/><radialGradient id="radial-gradient-3" cx="371.28" cy="-13.36" r="18.4" gradientTransform="translate(33.49 35.83) rotate(3)" xlink:href="#radial-gradient"/><radialGradient id="radial-gradient-4" cx="1767.19" cy="869.33" r="18.4" xlink:href="#radial-gradient"/><radialGradient id="radial-gradient-5" cx="1265.5" cy="-1357.47" r="18.4" gradientTransform="translate(-179.34 612.12) rotate(29.88)" xlink:href="#radial-gradient"/><radialGradient id="radial-gradient-6" cx="1371.02" cy="-1212.82" r="3.58" gradientTransform="translate(-49.66 468.48) rotate(33.16)" xlink:href="#radial-gradient"/><radialGradient id="radial-gradient-7" cx="1293.68" cy="653.03" r="3.58" xlink:href="#radial-gradient"/><radialGradient id="radial-gradient-8" cx="1749.57" cy="741.52" r="3.58" xlink:href="#radial-gradient"/><radialGradient id="radial-gradient-9" cx="554.23" cy="524.07" r="3.53" xlink:href="#radial-gradient"/><radialGradient id="radial-gradient-10" cx="38.06" cy="116.02" r="3.53" gradientTransform="translate(33.49 35.83) rotate(3)" xlink:href="#radial-gradient"/><radialGradient id="radial-gradient-11" cx="656.03" cy="2216.82" r="11.53" gradientTransform="translate(-424.64 -901.37) rotate(-42)" xlink:href="#radial-gradient"/><radialGradient id="radial-gradient-12" cx="1057.83" cy="100.31" r="11.53" gradientTransform="translate(33.49 35.83) rotate(3)" xlink:href="#radial-gradient"/><radialGradient id="radial-gradient-13" cx="18.83" cy="-1800.44" r="5.53" gradientTransform="translate(-494.76 1515.76) rotate(48)" xlink:href="#radial-gradient"/></defs><g id="stars"><polygon class="cls-1" points="672.1 106.32 679.41 118.63 693.51 121.09 681.2 128.41 678.74 142.51 671.43 130.2 657.32 127.74 669.63 120.43 672.1 106.32"/><polygon class="cls-2" points="157.41 227.65 171.28 231.18 182.99 222.95 179.46 236.83 187.69 248.54 173.82 245.01 162.1 253.24 165.64 239.36 157.41 227.65"/><polygon class="cls-3" points="405.92 23.58 410.18 37.25 423.33 42.91 409.66 47.17 403.99 60.32 399.73 46.65 386.58 40.98 400.25 36.73 405.92 23.58"/><polygon class="cls-4" points="1861.39 130.03 1868.7 142.34 1882.8 144.8 1870.49 152.11 1868.03 166.22 1860.72 153.91 1846.61 151.44 1858.92 144.13 1861.39 130.03"/><polygon class="cls-5" points="1603.41 49.71 1601.03 63.82 1610.2 74.82 1596.08 72.44 1585.08 81.61 1587.46 67.49 1578.3 56.49 1592.41 58.87 1603.41 49.71"/><polygon class="cls-6" points="1763.44 200.19 1762.82 202.91 1764.48 205.15 1761.76 204.53 1759.52 206.19 1760.14 203.47 1758.48 201.23 1761.2 201.85 1763.44 200.19"/><polygon class="cls-7" points="1359.28 17.34 1360.71 19.74 1363.45 20.22 1361.06 21.64 1360.58 24.39 1359.15 21.99 1356.41 21.51 1358.8 20.09 1359.28 17.34"/><polygon class="cls-8" points="1823.66 22.07 1825.08 24.47 1827.83 24.95 1825.43 26.38 1824.95 29.12 1823.53 26.73 1820.78 26.25 1823.18 24.82 1823.66 22.07"/><polygon class="cls-9" points="608.71 24.05 610.11 26.41 612.82 26.89 610.46 28.29 609.98 31 608.58 28.64 605.87 28.16 608.23 26.76 608.71 24.05"/><polygon class="cls-10" points="65.6 150.16 66.42 152.79 68.94 153.88 66.32 154.69 65.23 157.22 64.41 154.59 61.89 153.51 64.51 152.69 65.6 150.16"/><polygon class="cls-11" points="1538.4 298.67 1546.35 302.85 1554.69 299.53 1550.52 307.48 1553.84 315.82 1545.89 311.65 1537.55 314.96 1541.72 307.02 1538.4 298.67"/><polygon class="cls-12" points="1085.22 179.94 1087.89 188.51 1096.13 192.06 1087.56 194.73 1084.01 202.98 1081.34 194.41 1073.09 190.85 1081.66 188.18 1085.22 179.94"/><polygon class="cls-13" points="860.04 321.45 858.04 325.26 859.63 329.25 855.82 327.25 851.82 328.84 853.82 325.04 852.23 321.04 856.04 323.04 860.04 321.45"/></g></svg>