<svg xmlns="http://www.w3.org/2000/svg" xmlns:xlink="http://www.w3.org/1999/xlink" viewBox="0 0 1920 1080"><defs><style>.cls-1{fill:url(#linear-gradient);}.cls-2{fill:url(#linear-gradient-2);}.cls-3{fill:url(#linear-gradient-3);}.cls-4{fill:url(#linear-gradient-4);}.cls-5{fill:url(#linear-gradient-5);}.cls-6{fill:url(#linear-gradient-6);}.cls-7{fill:url(#linear-gradient-7);}.cls-8{fill:url(#linear-gradient-8);}.cls-9{fill:url(#linear-gradient-9);}.cls-10{fill:url(#linear-gradient-10);}.cls-11{fill:url(#linear-gradient-11);}.cls-12{fill:url(#linear-gradient-12);}.cls-13{fill:url(#linear-gradient-13);}.cls-14{fill:url(#linear-gradient-14);}.cls-15{fill:url(#linear-gradient-15);}.cls-16{fill:url(#linear-gradient-16);}.cls-17{fill:url(#linear-gradient-17);}.cls-18{fill:url(#linear-gradient-18);}.cls-19{fill:url(#linear-gradient-19);}.cls-20{fill:url(#linear-gradient-20);}.cls-21{fill:url(#linear-gradient-21);}.cls-22{fill:url(#linear-gradient-22);}.cls-23{fill:url(#linear-gradient-23);}.cls-24{fill:url(#linear-gradient-24);}.cls-25{fill:url(#linear-gradient-25);}.cls-26{fill:url(#linear-gradient-26);}.cls-27{fill:url(#linear-gradient-27);}.cls-28{fill:url(#linear-gradient-28);}.cls-29{fill:url(#linear-gradient-29);}.cls-30{fill:url(#linear-gradient-30);}.cls-31{fill:url(#linear-gradient-31);}.cls-32{fill:url(#linear-gradient-32);}.cls-33{fill:url(#linear-gradient-33);}.cls-34{fill:url(#linear-gradient-34);}.cls-35{fill:url(#linear-gradient-35);}.cls-36{fill:url(#linear-gradient-36);}.cls-37{fill:url(#linear-gradient-37);}.cls-38{fill:url(#linear-gradient-38);}.cls-39{fill:url(#linear-gradient-39);}.cls-40{fill:url(#linear-gradient-40);}.cls-41{fill:url(#linear-gradient-41);}.cls-42{fill:url(#linear-gradient-42);}.cls-43{fill:url(#linear-gradient-43);}.cls-44{fill:url(#linear-gradient-44);}.cls-45{fill:url(#linear-gradient-45);}.cls-46{fill:url(#linear-gradient-46);}.cls-47{fill:url(#linear-gradient-47);}.cls-48{fill:url(#linear-gradient-48);}.cls-49{fill:url(#linear-gradient-49);}.cls-50{fill:url(#linear-gradient-50);}.cls-51{fill:url(#linear-gradient-51);}.cls-52{fill:url(#linear-gradient-52);}.cls-53{fill:url(#linear-gradient-53);}.cls-54{fill:url(#linear-gradient-54);}.cls-55{fill:url(#linear-gradient-55);}.cls-56{fill:url(#linear-gradient-56);}.cls-57{fill:url(#linear-gradient-57);}.cls-58{fill:url(#linear-gradient-58);}.cls-59{fill:url(#linear-gradient-59);}.cls-60{fill:url(#linear-gradient-60);}.cls-61{fill:url(#linear-gradient-61);}.cls-62{fill:url(#linear-gradient-62);}.cls-63{fill:url(#linear-gradient-63);}.cls-64{fill:url(#linear-gradient-64);}.cls-65{fill:url(#linear-gradient-65);}.cls-66{fill:url(#linear-gradient-66);}.cls-67{fill:url(#linear-gradient-67);}.cls-68{fill:url(#linear-gradient-68);}.cls-69{fill:url(#linear-gradient-69);}.cls-70{fill:url(#linear-gradient-70);}.cls-71{fill:url(#linear-gradient-71);}.cls-72{fill:url(#linear-gradient-72);}.cls-73{fill:url(#linear-gradient-73);}.cls-74{fill:url(#linear-gradient-74);}.cls-75{fill:url(#linear-gradient-75);}.cls-76{fill:url(#linear-gradient-76);}.cls-77{fill:url(#linear-gradient-77);}.cls-78{fill:url(#linear-gradient-78);}.cls-79{fill:url(#linear-gradient-79);}.cls-80{fill:url(#linear-gradient-80);}.cls-81{fill:url(#linear-gradient-81);}.cls-82{fill:url(#linear-gradient-82);}.cls-83{fill:url(#linear-gradient-83);}.cls-84{fill:url(#linear-gradient-84);}.cls-85{fill:url(#linear-gradient-85);}.cls-86{fill:url(#linear-gradient-86);}.cls-87{fill:url(#linear-gradient-87);}.cls-88{fill:url(#linear-gradient-88);}.cls-89{fill:url(#linear-gradient-89);}.cls-90{fill:url(#linear-gradient-90);}.cls-91{fill:url(#linear-gradient-91);}.cls-92{fill:url(#linear-gradient-92);}.cls-93{fill:url(#linear-gradient-93);}.cls-94{fill:url(#linear-gradient-94);}.cls-95{fill:url(#linear-gradient-95);}.cls-96{fill:url(#linear-gradient-96);}.cls-97{fill:url(#linear-gradient-97);}.cls-98{fill:url(#linear-gradient-98);}.cls-99{fill:url(#linear-gradient-99);}.cls-100{fill:url(#linear-gradient-100);}.cls-101{fill:url(#linear-gradient-101);}.cls-102{fill:url(#linear-gradient-102);}.cls-103{fill:url(#linear-gradient-103);}.cls-104{fill:url(#linear-gradient-104);}.cls-105{fill:url(#linear-gradient-105);}.cls-106{fill:url(#linear-gradient-106);}.cls-107{fill:url(#linear-gradient-107);}.cls-108{fill:url(#linear-gradient-108);}.cls-109{fill:url(#linear-gradient-109);}.cls-110{fill:url(#linear-gradient-110);}.cls-111{fill:url(#linear-gradient-111);}.cls-112{fill:url(#linear-gradient-112);}.cls-113{fill:url(#linear-gradient-113);}.cls-114{fill:url(#linear-gradient-114);}.cls-115{fill:url(#linear-gradient-115);}</style><linearGradient id="linear-gradient" x1="1317.75" y1="723.1" x2="1319.76" y2="723.1" gradientUnits="userSpaceOnUse"><stop offset="0" stop-color="#c13dd2"/><stop offset="0.03" stop-color="#be3acf"/><stop offset="0.45" stop-color="#9a1bb0" stop-opacity="0.99"/><stop offset="0.79" stop-color="#84079d" stop-opacity="0.99"/><stop offset="1" stop-color="#7c0096" stop-opacity="0.99"/></linearGradient><linearGradient id="linear-gradient-2" x1="1318.02" y1="724.12" x2="1319.62" y2="724.12" xlink:href="#linear-gradient"/><linearGradient id="linear-gradient-3" x1="1310.56" y1="717.21" x2="1326.19" y2="717.21" xlink:href="#linear-gradient"/><linearGradient id="linear-gradient-4" x1="1315.8" y1="708.87" x2="1321.3" y2="708.87" xlink:href="#linear-gradient"/><linearGradient id="linear-gradient-5" x1="1314.35" y1="713.01" x2="1318.46" y2="713.01" xlink:href="#linear-gradient"/><linearGradient id="linear-gradient-6" x1="1318.78" y1="713.61" x2="1322.38" y2="713.61" xlink:href="#linear-gradient"/><linearGradient id="linear-gradient-7" x1="1316.95" y1="715.74" x2="1318.54" y2="715.74" xlink:href="#linear-gradient"/><linearGradient id="linear-gradient-8" x1="1318.54" y1="719.25" x2="1322.88" y2="719.25" xlink:href="#linear-gradient"/><linearGradient id="linear-gradient-9" x1="1319.49" y1="716.19" x2="1322.53" y2="716.19" xlink:href="#linear-gradient"/><linearGradient id="linear-gradient-10" x1="1312.41" y1="718.76" x2="1316.74" y2="718.76" xlink:href="#linear-gradient"/><linearGradient id="linear-gradient-11" x1="1316.23" y1="715.28" x2="1316.81" y2="715.28" xlink:href="#linear-gradient"/><linearGradient id="linear-gradient-12" x1="1313.56" y1="716.35" x2="1316.24" y2="716.35" xlink:href="#linear-gradient"/><linearGradient id="linear-gradient-13" x1="1319.27" y1="722.97" x2="1325.43" y2="722.97" xlink:href="#linear-gradient"/><linearGradient id="linear-gradient-14" x1="1315.65" y1="722.32" x2="1317.84" y2="722.32" xlink:href="#linear-gradient"/><linearGradient id="linear-gradient-15" x1="1313.84" y1="724.74" x2="1316.41" y2="724.74" xlink:href="#linear-gradient"/><linearGradient id="linear-gradient-16" x1="1315.58" y1="724.58" x2="1318.63" y2="724.58" xlink:href="#linear-gradient"/><linearGradient id="linear-gradient-17" x1="1318.87" y1="724.48" x2="1321.51" y2="724.48" xlink:href="#linear-gradient"/><linearGradient id="linear-gradient-18" x1="1311.6" y1="720.99" x2="1317.83" y2="720.99" xlink:href="#linear-gradient"/><linearGradient id="linear-gradient-19" x1="1327.24" y1="714.64" x2="1329.24" y2="714.64" xlink:href="#linear-gradient"/><linearGradient id="linear-gradient-20" x1="1327.48" y1="716.37" x2="1328.88" y2="716.37" xlink:href="#linear-gradient"/><linearGradient id="linear-gradient-21" x1="1318.52" y1="704.77" x2="1337.19" y2="704.77" xlink:href="#linear-gradient"/><linearGradient id="linear-gradient-22" x1="1322.95" y1="697.41" x2="1327.24" y2="697.41" xlink:href="#linear-gradient"/><linearGradient id="linear-gradient-23" x1="1324.24" y1="690.31" x2="1329.87" y2="690.31" xlink:href="#linear-gradient"/><linearGradient id="linear-gradient-24" x1="1327.87" y1="696.04" x2="1329.79" y2="696.04" xlink:href="#linear-gradient"/><linearGradient id="linear-gradient-25" x1="1329.02" y1="699.07" x2="1333.32" y2="699.07" xlink:href="#linear-gradient"/><linearGradient id="linear-gradient-26" x1="1326.47" y1="701.97" x2="1328.87" y2="701.97" xlink:href="#linear-gradient"/><linearGradient id="linear-gradient-27" x1="1323.98" y1="702.57" x2="1325.88" y2="702.57" xlink:href="#linear-gradient"/><linearGradient id="linear-gradient-28" x1="1321.34" y1="703.63" x2="1323.79" y2="703.63" xlink:href="#linear-gradient"/><linearGradient id="linear-gradient-29" x1="1321.7" y1="703.33" x2="1322.48" y2="703.33" xlink:href="#linear-gradient"/><linearGradient id="linear-gradient-30" x1="1321.87" y1="706.91" x2="1325.55" y2="706.91" xlink:href="#linear-gradient"/><linearGradient id="linear-gradient-31" x1="1319.21" y1="711.02" x2="1326.04" y2="711.02" xlink:href="#linear-gradient"/><linearGradient id="linear-gradient-32" x1="1325.87" y1="709.07" x2="1328.36" y2="709.07" xlink:href="#linear-gradient"/><linearGradient id="linear-gradient-33" x1="1329.15" y1="709.48" x2="1331.85" y2="709.48" xlink:href="#linear-gradient"/><linearGradient id="linear-gradient-34" x1="1329.2" y1="706.49" x2="1329.84" y2="706.49" xlink:href="#linear-gradient"/><linearGradient id="linear-gradient-35" x1="1329.53" y1="705.98" x2="1330.49" y2="705.98" xlink:href="#linear-gradient"/><linearGradient id="linear-gradient-36" x1="1324.39" y1="718.53" x2="1328.27" y2="718.53" xlink:href="#linear-gradient"/><linearGradient id="linear-gradient-37" x1="1320.06" y1="717.65" x2="1325.18" y2="717.65" xlink:href="#linear-gradient"/><linearGradient id="linear-gradient-38" x1="1329.54" y1="716.12" x2="1334.54" y2="716.12" xlink:href="#linear-gradient"/><linearGradient id="linear-gradient-39" x1="1331.21" y1="715.33" x2="1336.85" y2="715.33" xlink:href="#linear-gradient"/><linearGradient id="linear-gradient-40" x1="1331.5" y1="709.23" x2="1334" y2="709.23" xlink:href="#linear-gradient"/><linearGradient id="linear-gradient-41" x1="1329.34" y1="718.06" x2="1330.58" y2="718.06" xlink:href="#linear-gradient"/><linearGradient id="linear-gradient-42" x1="1330.85" y1="721.5" x2="1331.72" y2="721.5" xlink:href="#linear-gradient"/><linearGradient id="linear-gradient-43" x1="1799.46" y1="704.55" x2="1801.58" y2="704.55" xlink:href="#linear-gradient"/><linearGradient id="linear-gradient-44" x1="1799.72" y1="706.15" x2="1801.2" y2="706.15" xlink:href="#linear-gradient"/><linearGradient id="linear-gradient-45" x1="1790.23" y1="695.48" x2="1810" y2="695.48" xlink:href="#linear-gradient"/><linearGradient id="linear-gradient-46" x1="1794.92" y1="688.72" x2="1799.46" y2="688.72" xlink:href="#linear-gradient"/><linearGradient id="linear-gradient-47" x1="1796.29" y1="682.19" x2="1802.25" y2="682.19" xlink:href="#linear-gradient"/><linearGradient id="linear-gradient-48" x1="1800.14" y1="687.46" x2="1802.16" y2="687.46" xlink:href="#linear-gradient"/><linearGradient id="linear-gradient-49" x1="1801.35" y1="690.24" x2="1805.91" y2="690.24" xlink:href="#linear-gradient"/><linearGradient id="linear-gradient-50" x1="1798.65" y1="692.91" x2="1801.19" y2="692.91" xlink:href="#linear-gradient"/><linearGradient id="linear-gradient-51" x1="1796.01" y1="693.46" x2="1798.03" y2="693.46" xlink:href="#linear-gradient"/><linearGradient id="linear-gradient-52" x1="1793.22" y1="694.44" x2="1795.81" y2="694.44" xlink:href="#linear-gradient"/><linearGradient id="linear-gradient-53" x1="1793.6" y1="694.16" x2="1794.42" y2="694.16" xlink:href="#linear-gradient"/><linearGradient id="linear-gradient-54" x1="1793.77" y1="697.45" x2="1797.68" y2="697.45" xlink:href="#linear-gradient"/><linearGradient id="linear-gradient-55" x1="1790.96" y1="701.23" x2="1798.2" y2="701.23" xlink:href="#linear-gradient"/><linearGradient id="linear-gradient-56" x1="1798.02" y1="699.43" x2="1800.65" y2="699.43" xlink:href="#linear-gradient"/><linearGradient id="linear-gradient-57" x1="1801.48" y1="699.82" x2="1804.34" y2="699.82" xlink:href="#linear-gradient"/><linearGradient id="linear-gradient-58" x1="1801.54" y1="697.06" x2="1802.22" y2="697.06" xlink:href="#linear-gradient"/><linearGradient id="linear-gradient-59" x1="1801.89" y1="696.59" x2="1802.9" y2="696.59" xlink:href="#linear-gradient"/><linearGradient id="linear-gradient-60" x1="1796.45" y1="708.13" x2="1800.55" y2="708.13" xlink:href="#linear-gradient"/><linearGradient id="linear-gradient-61" x1="1791.86" y1="707.32" x2="1797.29" y2="707.32" xlink:href="#linear-gradient"/><linearGradient id="linear-gradient-62" x1="1801.9" y1="705.92" x2="1807.2" y2="705.92" xlink:href="#linear-gradient"/><linearGradient id="linear-gradient-63" x1="1803.67" y1="705.19" x2="1809.64" y2="705.19" xlink:href="#linear-gradient"/><linearGradient id="linear-gradient-64" x1="1803.98" y1="699.59" x2="1806.63" y2="699.59" xlink:href="#linear-gradient"/><linearGradient id="linear-gradient-65" x1="1801.69" y1="707.7" x2="1803" y2="707.7" xlink:href="#linear-gradient"/><linearGradient id="linear-gradient-66" x1="1803.29" y1="710.86" x2="1804.21" y2="710.86" xlink:href="#linear-gradient"/><linearGradient id="linear-gradient-67" x1="1785.53" y1="706.91" x2="1788.34" y2="706.91" xlink:href="#linear-gradient"/><linearGradient id="linear-gradient-68" x1="1786.03" y1="708.34" x2="1787.99" y2="708.34" xlink:href="#linear-gradient"/><linearGradient id="linear-gradient-69" x1="1774.35" y1="698.78" x2="1800.59" y2="698.78" xlink:href="#linear-gradient"/><linearGradient id="linear-gradient-70" x1="1788.34" y1="692.72" x2="1794.37" y2="692.72" xlink:href="#linear-gradient"/><linearGradient id="linear-gradient-71" x1="1784.64" y1="686.87" x2="1792.55" y2="686.87" xlink:href="#linear-gradient"/><linearGradient id="linear-gradient-72" x1="1784.75" y1="691.59" x2="1787.45" y2="691.59" xlink:href="#linear-gradient"/><linearGradient id="linear-gradient-73" x1="1779.78" y1="694.08" x2="1785.84" y2="694.08" xlink:href="#linear-gradient"/><linearGradient id="linear-gradient-74" x1="1786.04" y1="696.47" x2="1789.42" y2="696.47" xlink:href="#linear-gradient"/><linearGradient id="linear-gradient-75" x1="1790.25" y1="696.97" x2="1792.92" y2="696.97" xlink:href="#linear-gradient"/><linearGradient id="linear-gradient-76" x1="1793.19" y1="697.84" x2="1796.63" y2="697.84" xlink:href="#linear-gradient"/><linearGradient id="linear-gradient-77" x1="1795.03" y1="697.6" x2="1796.12" y2="697.6" xlink:href="#linear-gradient"/><linearGradient id="linear-gradient-78" x1="1790.71" y1="700.55" x2="1795.89" y2="700.55" xlink:href="#linear-gradient"/><linearGradient id="linear-gradient-79" x1="1790.02" y1="703.93" x2="1799.62" y2="703.93" xlink:href="#linear-gradient"/><linearGradient id="linear-gradient-80" x1="1786.76" y1="702.32" x2="1790.26" y2="702.32" xlink:href="#linear-gradient"/><linearGradient id="linear-gradient-81" x1="1781.86" y1="702.67" x2="1785.66" y2="702.67" xlink:href="#linear-gradient"/><linearGradient id="linear-gradient-82" x1="1784.68" y1="700.2" x2="1785.58" y2="700.2" xlink:href="#linear-gradient"/><linearGradient id="linear-gradient-83" x1="1783.77" y1="699.78" x2="1785.12" y2="699.78" xlink:href="#linear-gradient"/><linearGradient id="linear-gradient-84" x1="1786.89" y1="710.12" x2="1792.34" y2="710.12" xlink:href="#linear-gradient"/><linearGradient id="linear-gradient-85" x1="1791.23" y1="709.39" x2="1798.43" y2="709.39" xlink:href="#linear-gradient"/><linearGradient id="linear-gradient-86" x1="1778.07" y1="708.13" x2="1785.1" y2="708.13" xlink:href="#linear-gradient"/><linearGradient id="linear-gradient-87" x1="1774.83" y1="707.49" x2="1782.75" y2="707.49" xlink:href="#linear-gradient"/><linearGradient id="linear-gradient-88" x1="1778.83" y1="702.46" x2="1782.34" y2="702.46" xlink:href="#linear-gradient"/><linearGradient id="linear-gradient-89" x1="1783.64" y1="709.73" x2="1785.38" y2="709.73" xlink:href="#linear-gradient"/><linearGradient id="linear-gradient-90" x1="1782.03" y1="712.57" x2="1783.26" y2="712.57" xlink:href="#linear-gradient"/><linearGradient id="linear-gradient-91" x1="1810.3" y1="714.68" x2="1811.92" y2="714.68" xlink:href="#linear-gradient"/><linearGradient id="linear-gradient-92" x1="1810.59" y1="715.58" x2="1811.72" y2="715.58" xlink:href="#linear-gradient"/><linearGradient id="linear-gradient-93" x1="1803.84" y1="709.54" x2="1819" y2="709.54" xlink:href="#linear-gradient"/><linearGradient id="linear-gradient-94" x1="1811.92" y1="705.7" x2="1815.4" y2="705.7" xlink:href="#linear-gradient"/><linearGradient id="linear-gradient-95" x1="1809.78" y1="702" x2="1814.36" y2="702" xlink:href="#linear-gradient"/><linearGradient id="linear-gradient-96" x1="1809.85" y1="704.99" x2="1811.41" y2="704.99" xlink:href="#linear-gradient"/><linearGradient id="linear-gradient-97" x1="1806.98" y1="706.57" x2="1810.48" y2="706.57" xlink:href="#linear-gradient"/><linearGradient id="linear-gradient-98" x1="1810.6" y1="708.08" x2="1812.55" y2="708.08" xlink:href="#linear-gradient"/><linearGradient id="linear-gradient-99" x1="1813.02" y1="708.39" x2="1814.57" y2="708.39" xlink:href="#linear-gradient"/><linearGradient id="linear-gradient-100" x1="1814.72" y1="708.94" x2="1816.71" y2="708.94" xlink:href="#linear-gradient"/><linearGradient id="linear-gradient-101" x1="1815.79" y1="708.79" x2="1816.42" y2="708.79" xlink:href="#linear-gradient"/><linearGradient id="linear-gradient-102" x1="1813.29" y1="710.65" x2="1816.28" y2="710.65" xlink:href="#linear-gradient"/><linearGradient id="linear-gradient-103" x1="1812.89" y1="712.8" x2="1818.44" y2="712.8" xlink:href="#linear-gradient"/><linearGradient id="linear-gradient-104" x1="1811.01" y1="711.78" x2="1813.03" y2="711.78" xlink:href="#linear-gradient"/><linearGradient id="linear-gradient-105" x1="1808.18" y1="711.99" x2="1810.37" y2="711.99" xlink:href="#linear-gradient"/><linearGradient id="linear-gradient-106" x1="1809.81" y1="710.43" x2="1810.33" y2="710.43" xlink:href="#linear-gradient"/><linearGradient id="linear-gradient-107" x1="1809.28" y1="710.17" x2="1810.06" y2="710.17" xlink:href="#linear-gradient"/><linearGradient id="linear-gradient-108" x1="1811.09" y1="716.71" x2="1814.23" y2="716.71" xlink:href="#linear-gradient"/><linearGradient id="linear-gradient-109" x1="1813.59" y1="716.25" x2="1817.75" y2="716.25" xlink:href="#linear-gradient"/><linearGradient id="linear-gradient-110" x1="1805.99" y1="715.45" x2="1810.05" y2="715.45" xlink:href="#linear-gradient"/><linearGradient id="linear-gradient-111" x1="1804.12" y1="715.04" x2="1808.69" y2="715.04" xlink:href="#linear-gradient"/><linearGradient id="linear-gradient-112" x1="1806.43" y1="711.86" x2="1808.46" y2="711.86" xlink:href="#linear-gradient"/><linearGradient id="linear-gradient-113" x1="1809.21" y1="716.46" x2="1810.21" y2="716.46" xlink:href="#linear-gradient"/><linearGradient id="linear-gradient-114" x1="1808.28" y1="718.25" x2="1808.99" y2="718.25" xlink:href="#linear-gradient"/><linearGradient id="linear-gradient-115" x1="969" y1="1206.67" x2="969.13" y2="746.27" gradientUnits="userSpaceOnUse"><stop offset="0.48" stop-color="#c185d2"/><stop offset="1" stop-color="#7c0096" stop-opacity="0.99"/></linearGradient></defs><g id="Layer_3" data-name="Layer 3"><path class="cls-1" d="M1317.75,734.93a57,57,0,0,0,.54-5.68c-.1-.93-.1-2.7-.1-2.7l-.23-2.38a7,7,0,0,1-.06-1.67,7.72,7.72,0,0,0,.23-1.15s.11-2.3.09-2.82.21-2.16.21-2.16l.13-1.32a6.47,6.47,0,0,0,0-1c0-.44-.08-3.18.2-2.88a17.06,17.06,0,0,1,.43,3.5,2.5,2.5,0,0,1,.06.94c0,.62-.08,1.2-.08,1.2l0,1.89-.29,2.93v1.56l.13,3.33s.32,3.31.27,3.62.43,4.89.43,4.89A5.69,5.69,0,0,1,1317.75,734.93Z"/><path class="cls-2" d="M1318,735.07s.59-4.35.57-5.11l-.53-6.7.23-1.19.12-3.75a8.71,8.71,0,0,1,.16-1.74,11.09,11.09,0,0,0,.23-2.24s0-1.73.08-1.39a17.8,17.8,0,0,1,.1,2.63c0,.35,0,1.26,0,1.53a6.31,6.31,0,0,1,0,1.25,38.86,38.86,0,0,0-.34,4.18c.06.48,0,1.94,0,1.94s.3,4.49.32,4.84.48,5.34.59,5.75-.15,0-.77.22S1318,735.07,1318,735.07Z"/><path class="cls-3" d="M1325.4,723.59l-.14-.23c.65,0-.46-.78-.46-.78-.46-.25-.36-.29-.51-.39-.4-.26-1.08-.74-.84-.52a1.93,1.93,0,0,0-.7-.19s-.33.11-.34-.1a1.45,1.45,0,0,0-.15-.48l-.31-.12a1.66,1.66,0,0,0,0-.65.72.72,0,0,1,.41.25c.42.6.54.08.12-.42l.89.58,0-.42.83.69.89.37a2.24,2.24,0,0,0-.7-.69c-.55-.39-1.44-1-1.44-1s-1.42-.24-1.63-.65a3.65,3.65,0,0,0-.31-.45c.69.26,1.39.48,1.39.48l-.91-.58-1.17-.73-.59-.65a1.84,1.84,0,0,1-.07-.88c0,.06,0,.12.05.17a1,1,0,0,0,.15.62l.26-.8h0l-.07.37a1.43,1.43,0,0,1,.29.54c0,.14.07,0,.08-.16l0,0c.09,0,0-.33,0-.67v0l.13.09.14.38s.36,1.42.5,1.17c0,0,0,0,0,0,.11.21.12-.17.12-.53.08.26.18.48.25.42s0-.41-.14-.84l.28.17a3.15,3.15,0,0,0,.48.88c.18.13-.13-.83-.13-.83l.65.45s.38.75.56.74-.25-.68-.25-.68l.56.53c.42.53.94.16.58,0a15,15,0,0,1-1.57-1.31,11.58,11.58,0,0,0-1.13-1.47,1.46,1.46,0,0,0-.66-.32l-.23-.63a.07.07,0,0,0,.06,0l.59.52.26-.22.24.54.37.26,0-.55a1.3,1.3,0,0,1,.33.4.72.72,0,0,0,.5.32l-.48-.95.33.4c.42.47.68.25.68.25l-.3-.75a7.42,7.42,0,0,0-1.46-.76,9.77,9.77,0,0,1-2.08-2.08,3.14,3.14,0,0,0-.11-.85c.27.13.68.39.68.7,0,.48,1.05.14,1.05.14l-.42-.71s.54.18.74.27a1.15,1.15,0,0,0,.47.09,5,5,0,0,0-1.17-.88,14.26,14.26,0,0,1-1.89-2.3l-.23-.82-.33-1.44a3.63,3.63,0,0,0-.28,1.33,5.68,5.68,0,0,1-.67,1.84,4.19,4.19,0,0,1-1.26,1,1.88,1.88,0,0,0-.86.66s-.39.37-.62.31-.43.3.06.21a5.7,5.7,0,0,0,.7-.18l-.46.65a1,1,0,0,0,.56-.3c.31-.3.48-.44.48-.44l-.24.84a.59.59,0,0,0,.48-.3,6.3,6.3,0,0,1,.42-.72l.25.68.79-.1a1,1,0,0,1-.07.27,12.53,12.53,0,0,1-2.08,1.49l-1.19.4-.78.87s0,.35.32.13l.39-.37s-.6.79-.29.71a1.53,1.53,0,0,0,.61-.51l.44-.17-.37.85a1,1,0,0,0,.61-.44,1.09,1.09,0,0,1,.38-.44l.14.14-.29.63s.26-.22.48-.44a1.32,1.32,0,0,1,.68-.1c-.16.24-.44.47-.43.86-.19-.06-.2.26-.5.27a7.59,7.59,0,0,0-1.8.78,1.29,1.29,0,0,0-.85,0c-.44.17-.12.43.15.42l-.53.37s-1,1.09-.27.91l.51-.58s-.16.5.23.2l.52-.58-.19.91s.35-.16.34-.43l.29-.57s-.05,1.18.07.83.29-.78.29-.78.07.62.28.47.12-.49.12-.49l.39-.3.34.68a2,2,0,0,1,.33-.64.63.63,0,0,1,.35-.16l.11.16,0,.12a1.21,1.21,0,0,0-.68.76l0,.15a11.41,11.41,0,0,0-3,1.3,6.66,6.66,0,0,0-1.08,1.17s-.51.64-.19.63.43-.44.43-.44l.47-.37-.32,1s.56-.58.6-.86.42-.44.42-.44l0,1a2.58,2.58,0,0,0,.29-.36c.22-.29.2-.77.33-.78a2,2,0,0,0,.49-.16l-.11.52a.16.16,0,0,0-.1,0,1.61,1.61,0,0,1-.48.38,3.45,3.45,0,0,1-.29.43c.22-.25-.73.26-.77.73,0,.24-.14-.07-.58.23,0,0-.65.66-.12.56l-.47.65s-1,1.44-.61,1.42.6-.72.6-.72-.16.56.2.61.68-.8.68-.8l.51-.71s-.35,1.26,0,1.17.14-1,.53-1.2a3.62,3.62,0,0,0,.83-.53s-.27,1.13,0,.84.66-1.35.88-1.36-.21,1.53.64.31a9,9,0,0,0,.59-.92l.63.17.09.25-.45.3s-.2,0-.23.3a.35.35,0,0,1-.31.33,1.83,1.83,0,0,0-.34.35c.16-.26-.46-.13-.4.57a3.62,3.62,0,0,0-.45.2,2.34,2.34,0,0,0-.24.43,1.17,1.17,0,0,0-.16.28,2.24,2.24,0,0,0-1.07.41l-.81,1-.71.64s-.72,1.4.29.46l.51-.78.4.07-.62.77s-.8,1.18.37.12a3.83,3.83,0,0,0,.65-.83l.44-.24c-.24.54-.54,1.28-.4,1.33s.52-.89.52-.89-.21.78,0,1,.33-.94.33-.94l.11-.1c.08.11.15.21.22.29,0,.29,0,.61.16.59s.35-1.24.63-1.36h0a2.34,2.34,0,0,0,.24.83,6.33,6.33,0,0,0-.34,1.93c.17.1.37-1.12.37-1.12s-.14,1,0,1.21.42-1.22.42-1.22l.32-1.15s-.23,1.39,0,1.36.19-.86.39-1,.14,0,.14,0,0,1.12.1.67c.08-.26.15-.7.22-1l.15.5.08,0c0,.4.12.56.37-.5l.26-1.1.42-.14s.13.07.19-.23c.07.19.16.45.29.79.64,1.74.24-.53.38-.54a12.2,12.2,0,0,1,.68,1.94c.16.41-.11-1.24-.11-1.24a3,3,0,0,0,.58.7c.27.2.21,1.66.44,1.75s-.1-1.77-.1-1.77l.39,1s.28,1.23.5,1.12.08-.94.08-.94.21,1,.44,1-.51-2-.51-2l-.35-.92c.35.09.27-.92,0-1.32a.28.28,0,0,0-.17-.11l0-.14a3.53,3.53,0,0,0,.87.45c.4.12.26,1.09.62,1.15s-.09-1.18-.09-1.18l.56.67s.39.81.75.72.15-.63.15-.63.29.68.65.66-.72-1.35-.72-1.35l-.51-.6a.3.3,0,0,0,.35-.19c.22.29.17,1,.47,1s-.09-1.18-.09-1.18l.56.67s.39.81.75.72.15-.63.15-.63.29.68.65.66S1325.4,723.59,1325.4,723.59Z"/><path class="cls-4" d="M1321.3,710.84l-1.09-.57-1-1.49-.57-.57-.3-1.48-.07,1c0,.32-.37.73-.51,1.31s-1.09.91-1.09.91l-.86.49.43.16.72-.32.07.57c0,.41.73-.16.73-.16.36-.41.43.08.43.08-.07.33.22.25.22.25l.29-.83c.27-.45-.43-.65-.43-.65l.34-.45a.71.71,0,0,0,.45.45l.07.74c.22.32.29-.17.29-.17l.41.46a4.41,4.41,0,0,1,.68.36l-.07-.41Z"/><path class="cls-5" d="M1318.46,712.57s-.93.16-.71-.25c0,0,.36-.57-.43,0,0,0-1,1-1.52,1,0,0-1.16.16-1.45.58a1.74,1.74,0,0,0,.87-.09,1.81,1.81,0,0,1,.87-.08s.21.66.72-.25l.43-.49s.58.49.8,0S1318.46,712.57,1318.46,712.57Z"/><path class="cls-6" d="M1320.14,712.65s.06,1-.26.72l-.57-.85s-.82.24-.43.43l.43.55.47.8s.33.6.21-.17.22-.24.22-.24l.14.41.22-.41s.44.65.65.32c0,0,.51.83.51.33l.65,0-1.16-.78A1.56,1.56,0,0,1,1320.14,712.65Z"/><path class="cls-7" d="M1318.39,714.43s-.47-.18-.64.07a.88.88,0,0,0-.11.58l-.4.57s-.34.25-.29.51l.23.06a.44.44,0,0,0-.06.45c.12.25.23-.07.23-.07l.23.51a.92.92,0,0,0,.06-.38c0-.25.62.32.62.32s.11-.07-.2-.42.48.1.48.1-.06-.51-.26-.49.21-.21,0-.53l.11-.63Z"/><path class="cls-8" d="M1320.06,720a.88.88,0,0,1-.86-.65s-.22-.66-.29-.25l-.36-.25s0-1.09.45-.46-.09-.2-.09-.2l.65.41-.07-.65.57.41.58.58.95.41a3.79,3.79,0,0,1,1.23.49c.21.24-.15.24-.15.24l-.58-.16s-.5-.33-.5-.08l-.1.78a1.73,1.73,0,0,1-.56-.7s-.5-.9-.5-.41-.37,0-.37,0Z"/><path class="cls-9" d="M1319.49,715a1,1,0,0,0,.43.9c.46.27.43-.17.43-.17l.29.42.37.74s.09.26.08-.29l.58.41.35.45-.07-.66.58.33s-.94-1.69-1.63-1.79c0,0-.19.72-.66.19s0-.21,0-.21V715l-.29.08Z"/><path class="cls-10" d="M1316.74,718.08a1.8,1.8,0,0,0-1.31-.16l-1.73.82a5.72,5.72,0,0,0-1.09.58c-.29.24-.43.24.72-.09l.84.13.32-.29.16.61.42-.77.44.08s.29-.08.21-.5Z"/><polygon class="cls-11" points="1316.23 715.61 1316.45 715.7 1316.81 714.87 1316.23 715.61"/><path class="cls-12" d="M1315.43,715.86s-1.52.33-1.81.74.49.17.49.17l.31.32h.29v-.49a1.19,1.19,0,0,1,.72-.25l.22.33.29-.41S1316.89,715.13,1315.43,715.86Z"/><path class="cls-13" d="M1321.87,721.37l.22.33a4.66,4.66,0,0,1,.94.08,8.08,8.08,0,0,1,1,.74l.65.74s1.3,1,.43.58a9.22,9.22,0,0,1-1.52-.91l.15.58-.44-.16-.36.24a1.54,1.54,0,0,0-.65-.82c-.47-.23-.22-.08-.22-.08l-1.37-.25a8.19,8.19,0,0,1,1.46.77l1.43,1.53s.36.91-.72-.32l-.65-.25.07.41s-.44-.82-1.09-.74a7.89,7.89,0,0,1-1.52-1.07l.08-.58s.07-.4-.51-.36c0,0,.79-.34,1.12.13l1,.11s.31-.11.06-.21c0,0-.43-1-1-1s.43,0,.94.24Z"/><path class="cls-14" d="M1317.75,721a8.8,8.8,0,0,0-1.45,1.81l-.65.49.51.41.94-.9s-.36-.82.07-1S1318,722.11,1317.75,721Z"/><path class="cls-15" d="M1314.93,723.59s1.23-.08,1.44.25-.57.08-1.08.33a1,1,0,0,0-.51,1c0,.24.11,1-.16.43a.48.48,0,0,0-.42.22c-.14.25-.27-.31-.36.09,0,0,0-1.14.48-1.43Z"/><path class="cls-16" d="M1318.47,722.44s-1.23.74-1.37,1.15c0,0-.08.66-.29.66s-.74-.23-1,.34l-.21,2.13s.25.08.36-.33.66-.45.66-.45l.21.29.14-.58.43.41.15-1.23s.15-.33.36-.41.22-.91.22-.91S1319,723.18,1318.47,722.44Z"/><path class="cls-17" d="M1319.27,722.52l1.74,2.72.5,1.48s-.36,0-.65-.66-.07.58-.43-.25l-.51-.41a2.16,2.16,0,0,1-.65-1.31l-.36-.09S1318.69,721.37,1319.27,722.52Z"/><path class="cls-18" d="M1317.6,718.91a3.05,3.05,0,0,0-2.17.57c-.79.74-2.6,2.22-2.6,2.22l-1.23,1.4,1.3-.82-.27.42.78-.75.72-.09.51-.74s.43-.24.58.09c0,0,.65,0,.36-.74l.94-.42S1318.47,719.73,1317.6,718.91Z"/><path class="cls-19" d="M1327.28,734.83s.6-7,.47-8.66-.12-4.8-.12-4.8l-.27-4.23a17.54,17.54,0,0,1-.07-3c.14-.56.27-2,.27-2s.13-4.08.11-5,.25-3.84.25-3.84l.15-2.35a17,17,0,0,0,0-1.79c0-.79-.1-5.67.23-5.14s.51,6.24.51,6.24a6.26,6.26,0,0,1,.09,1.66c-.06,1.11-.11,2.13-.11,2.13l.07,3.38-.35,5.2v2.78l.15,5.91s.39,5.89.32,6.45.25,6.52.25,6.52S1329.14,736.19,1327.28,734.83Z"/><path class="cls-20" d="M1327.68,734.83s.46-6,.42-7.39l-.62-11.92.27-2.11.15-6.67a22.29,22.29,0,0,1,.19-3.1,30.1,30.1,0,0,0,.27-4s0-3.08.1-2.47.15,4.06.12,4.68,0,2.22,0,2.71a14.59,14.59,0,0,1,0,2.22c-.09.62-.47,6.57-.39,7.43s0,3.45,0,3.45.36,8,.38,8.61,0,4.68.14,5.41.35,3.56-.39,3.86S1327.68,734.83,1327.68,734.83Z"/><path class="cls-21" d="M1336.24,716.12l-.17-.42c.78.1-.55-1.38-.55-1.38-.54-.46-.43-.52-.61-.69-.47-.47-1.28-1.32-1-.92-.16-.23-.83-.36-.83-.36s-.4.2-.41-.17a3,3,0,0,0-.18-.85l-.37-.22a4.14,4.14,0,0,0-.06-1.14.86.86,0,0,1,.49.43c.51,1.08.64.14.14-.75l1.07,1,0-.74,1,1.22,1,.66a3.57,3.57,0,0,0-.83-1.23c-.65-.69-1.72-1.73-1.72-1.73s-1.69-.43-2-1.15a6.86,6.86,0,0,0-.36-.8c.82.46,1.66.85,1.66.85l-1.1-1-1.39-1.29-.71-1.16a4.83,4.83,0,0,1-.08-1.57l.06.3a2.55,2.55,0,0,0,.18,1.12l.32-1.44v0l-.07.66a3.06,3.06,0,0,1,.34,1c0,.24.08,0,.1-.27l0,0c.1,0,.06-.59,0-1.19v0l.15.16.17.67s.43,2.52.6,2.09a0,0,0,0,0,0,0c.13.37.15-.31.14-1,.1.45.22.84.31.75a5,5,0,0,0-.18-1.51l.33.31a7.22,7.22,0,0,0,.58,1.56c.21.23-.15-1.47-.15-1.47l.77.81s.46,1.32.67,1.31-.3-1.22-.3-1.22l.67.94c.5,1,1.12.29.69,0a22.43,22.43,0,0,1-1.87-2.33,22.37,22.37,0,0,0-1.35-2.61,1.61,1.61,0,0,0-.78-.57l-.28-1.11s0,0,.07-.08l.7.93.31-.39.3,1,.43.46,0-1a2.11,2.11,0,0,1,.39.71.88.88,0,0,0,.6.57l-.58-1.68.4.71c.5.83.81.43.81.43l-.36-1.33a8.61,8.61,0,0,0-1.74-1.35c-.48-.22-1.75-2.37-2.49-3.69a7.41,7.41,0,0,0-.13-1.52,1.76,1.76,0,0,1,.82,1.25c0,.85,1.26.24,1.26.24l-.52-1.26s.65.32.9.49a.93.93,0,0,0,.56.14,7.57,7.57,0,0,0-1.4-1.56,24.61,24.61,0,0,1-2.26-4.08l-.28-1.47-.38-2.56a8.88,8.88,0,0,0-.34,2.37,13.57,13.57,0,0,1-.8,3.28s-1,1.55-1.5,1.71-1,1.19-1,1.19-.46.65-.73.55-.52.53.06.36a4.26,4.26,0,0,0,.85-.31l-.56,1.16s.32,0,.68-.55.57-.78.57-.78l-.29,1.5a.7.7,0,0,0,.58-.53,10.07,10.07,0,0,1,.5-1.27l.3,1.21.93-.19a2.93,2.93,0,0,1-.07.48,16.78,16.78,0,0,1-2.5,2.65l-1.42.72-.92,1.55s0,.62.38.22l.47-.65s-.71,1.41-.35,1.25.73-.91.73-.91l.52-.29-.44,1.51a1.3,1.3,0,0,0,.73-.79,1.74,1.74,0,0,1,.46-.77l.16.23-.34,1.14s.31-.39.57-.78c.09-.14.42-.19.81-.19a3.07,3.07,0,0,0-.51,1.52c-.23-.1-.24.47-.6.49a8.09,8.09,0,0,0-2.15,1.39,1,1,0,0,0-1,0c-.52.29-.14.75.18.73l-.62.66s-1.18,1.94-.33,1.63l.61-1s-.19.88.27.35l.62-1-.23,1.62a1,1,0,0,0,.41-.77l.35-1s-.06,2.11.09,1.48.34-1.38.34-1.38.08,1.1.34.84.13-.88.13-.88l.47-.53.4,1.21a4.2,4.2,0,0,1,.4-1.14.69.69,0,0,1,.42-.28l.13.28,0,.2c-.61.31-.81,1.36-.81,1.36v.27a12.21,12.21,0,0,0-3.53,2.32,11.51,11.51,0,0,0-1.28,2.07s-.61,1.15-.24,1.12.51-.77.51-.77l.57-.66-.38,1.75a5.24,5.24,0,0,0,.71-1.53,1.11,1.11,0,0,1,.51-.78l-.06,1.86a3.68,3.68,0,0,0,.36-.65c.25-.51.23-1.37.39-1.38a2.19,2.19,0,0,0,.58-.29l-.13.92s-.07,0-.11.08c-.36.56-.58.66-.58.66a6.82,6.82,0,0,1-.34.77c.26-.45-.87.46-.93,1.3,0,.44-.16-.11-.68.42,0,0-.79,1.17-.15,1l-.56,1.15s-1.16,2.55-.73,2.52.71-1.28.71-1.28-.19,1,.24,1.09.82-1.42.82-1.42l.6-1.27h0c0,.2-.4,2.23,0,2.08s.17-1.86.64-2.15a4.52,4.52,0,0,0,1-.93s-.32,2-.07,1.48.8-2.4,1.06-2.42-.25,2.73.76.56a13.46,13.46,0,0,0,.7-1.63l.76.29c0,.16.07.31.11.46l-.54.53s-.13-.07-.17.47-.3.59-.3.59a3.6,3.6,0,0,1-.19.75c.19-.47-.62.63-.83.93a2.92,2.92,0,0,0-.57.37,3.41,3.41,0,0,0-.31.91l-.31.38a2.17,2.17,0,0,0-1.13.71l-1,1.84-.85,1.13s-.86,2.49.35.82l.62-1.38.47.11-.75,1.39s-.94,2.08.45.21a7.35,7.35,0,0,0,.78-1.48l.52-.43c-.29,1-.65,2.29-.48,2.37s.62-1.58.62-1.58-.25,1.38,0,1.69.39-1.68.39-1.68l.13-.18a3.94,3.94,0,0,0,.27.51c0,.53,0,1.09.18,1.06s.42-2.2.76-2.41l0,0a6.39,6.39,0,0,0,.28,1.48,16.55,16.55,0,0,0-.39,3.43c.2.17.43-2,.43-2a8.23,8.23,0,0,0,0,2.15c.2.41.5-2.17.5-2.17l.38-2s-.27,2.46-.06,2.41.23-1.53.47-1.79.16,0,.16,0,0,2,.13,1.18c.08-.45.17-1.25.25-1.84l.19.88.09-.06c0,.7.14,1,.44-.89.24-1.5.31-2,.31-2l.51-.25s.15.13.22-.4c.08.34.19.8.34,1.41.77,3.08.29-.95.46-1a27.34,27.34,0,0,1,.81,3.45c.19.73-.12-2.21-.12-2.21a5.6,5.6,0,0,0,.68,1.25c.32.34.25,2.94.53,3.1s-.12-3.13-.12-3.13l.46,1.81s.33,2.2.6,2,.1-1.67.1-1.67.25,1.83.53,1.81-.61-3.65-.61-3.65l-.42-1.64c.42.16.32-1.64,0-2.35-.07-.13-.14-.18-.21-.18l0-.25a4.29,4.29,0,0,0,1,.79c.48.21.31,1.95.74,2s-.11-2.09-.11-2.09l.67,1.18s.47,1.45.89,1.29.18-1.12.18-1.12.35,1.21.78,1.18-.86-2.4-.86-2.4l-.61-1.07c.24,0,.37-.12.42-.34.26.51.2,1.76.56,1.84s-.11-2.09-.11-2.09l.67,1.18s.47,1.45.89,1.3.18-1.13.18-1.13.35,1.21.78,1.18S1336.24,716.12,1336.24,716.12Z"/><path class="cls-22" d="M1327.06,695.39l-1.38,1.34a13.09,13.09,0,0,1-1.37,1.11s-1.18.78-.72.78l-.62.59s-.1.41.16.19l.66-.67h.39s-.59.89-.26.78a1.75,1.75,0,0,0,.65-.55l.33-.12-.12.6.38-.26.65-.22.4-.78-.53-.12a.76.76,0,0,1,.4-.89C1326.66,696.84,1327.65,694.84,1327.06,695.39Z"/><path class="cls-23" d="M1327.38,691.83a4.16,4.16,0,0,0,.59-1.33c.2-.78.52.67.52.67s.78.78.39-.28l1,1.39-1.44-2.78s-.33-1.34-.39-1.9,0-1.55-.39.12l-.79,2.67-.52.89s-.85.66-1.18.89a5.64,5.64,0,0,0-.91,1.22s-.07.89.32.11.59-.67.59-.67l.26.12.53-.56.91-.45s-.26.89,0,.67A2.91,2.91,0,0,0,1327.38,691.83Z"/><path class="cls-24" d="M1327.93,695.62s0,1.11.56,1.33-.06-.84-.06-.84l.54.33s1.08,1,.76.43-.68-1.43-.68-1.43-.74-.81-.42-.15-.76-.13-.76-.13Z"/><path class="cls-25" d="M1330,697.29a10.94,10.94,0,0,0,1.63,1.55,4.34,4.34,0,0,1,1.51,1.23c.13.33.37.63-.07.33l-.65-.44.32.89-.65-1-.13.66-.33-1-.52.34-.65-1-1.44-1,.06-.55S1330.13,698.73,1330,697.29Z"/><path class="cls-26" d="M1328.6,700.48s-1.18.21-1.08-.35l-.17.77-.4-.28-.46.28s0,.63.13.35l.4.07a.73.73,0,0,0-.53.55c-.13.49.27,0,.27,0l-.27.7s-.13.49.33-.14.13.56.13.56.14.42.27-.07.39-.35.65-.07.6,1.53.53.63l-.28-.9s.61.62.61.9.39-.14-.13-1c0,0,.46-.21.06-.63l-.21-.43.34.22s0-.18-.32-.48l-.14-.42S1329.07,701.2,1328.6,700.48Z"/><path class="cls-27" d="M1325.88,701.74,1325,703l-.39-.33s-.59,1.11-.66.66,1-1.55,1-1.55Z"/><path class="cls-28" d="M1323.79,702.52l-.85.89-.39.78-.2-.45-.72,1s-.65,0,0-.78A7.24,7.24,0,0,1,1323.79,702.52Z"/><path class="cls-29" d="M1322.48,703.29s-1.24-.44-.59.23Z"/><path class="cls-30" d="M1324.57,706.08s-1.76.55-2,.89-1.18.89-.52.89h1.24l2.22-1.89Z"/><path class="cls-31" d="M1325.81,706.08l-3.07,3.89a1.74,1.74,0,0,0-.72.78c-.13.45-.78.45-.85,1l-.19.89a1,1,0,0,0-.79.56l-.13.78-.85,1.67s0,.33.52-.34c0,0-.32,2,.53-.11L1321,714s-.07,1.56.13.89l.32-.89,1-.78.33-.22.06.44.53-1.33.32-2.34s.46-.67.79-.56.26-.78.26-.78,1.63-.89.85-1l-.52.11S1326.6,705.19,1325.81,706.08Z"/><path class="cls-32" d="M1327.62,706.16l-.86,1s-.41.33,0,.36.14.07.14.07l-.17.44s-.77.77-.51.72.3,0,.3,0l-.38.79s-.37.78-.09.56l-.2.69s-.1.64.22.18l.47-.74-.35,1.66s-.1.64.24-.24a4.66,4.66,0,0,0,.34-1.23l0,2s.19.43.29-.56l.12-1.15s.37-.44.41.35.26.89.18-.52l-.08-.82s.62,1.57.39.09c0,0,.18.17,0-1a1.07,1.07,0,0,0,.25-1l-.12-.69s-.49,1-.54,0l.46-1s-.36.36-.18-.51c0,0-.62.41-.55,0l-.39.52S1327,706.74,1327.62,706.16Z"/><path class="cls-33" d="M1329.15,707.36s1.57.41,1.91.92a5.43,5.43,0,0,1,.79,2.33s-.26.6-.28.18l-.26.82a3.12,3.12,0,0,1-.25-.75c0-.33-.49.34-.49.34s-.24,0,0-.92-.14-.5-.34,0-.25.08-.1-.5-.15-.75-.15-.75-.49,1-.39.41a2.85,2.85,0,0,1,.15-.66s0-.67-.35-.84A.63.63,0,0,1,1329.15,707.36Z"/><path class="cls-34" d="M1329.2,705.94s.59.5.64.83-.25.25-.25.25Z"/><path class="cls-35" d="M1330.13,706.35s.83.09-.05-.5-.44,0-.44,0Z"/><path class="cls-36" d="M1328.2,714.24s-2,.21-2.48,1.3a36.45,36.45,0,0,0-1.18,4.84l-.15,2s.15,1.08.25-.17c0,0,.52-1.93.7-1.47,0,0,.17.79.4-.45s-.07.17-.07.17l.19.25s.1,1.42.35-.5l.44.5-.05-2.59s.2-2.75.29-2.17c0,0,.15,1.92.3,1.34a7.61,7.61,0,0,0,.1-1.59s.58.92.63-.08l-.19-.42.54-.17-.15-.33Z"/><path class="cls-37" d="M1321,719.43s.57-1.67,1-1.78,1,.13,1.16-.53a1.25,1.25,0,0,1,.61-1,7.1,7.1,0,0,0,1-1.22s.52-1.34.39-.22c0,0-.2,1.55-.59,1.89s-.46,0-.46,0l-.26,1.55s-.32.34-.26-.33-.39,1.56-.39,1.56-.46-.11-.33-.78-.59,1.11-.59,1.11l-.58.23a8.23,8.23,0,0,1,.26-1c.13-.33-.47.78-.85,1.12s-.79.44-1,1.11A5.35,5.35,0,0,1,1321,719.43Z"/><path class="cls-38" d="M1329.54,713a33.34,33.34,0,0,1,3.48,3.17c.59.83,1.52,2.25,1.52,2.25s0,.34-.49-.33c0,0,.59,1.09.25,1.25a8.37,8.37,0,0,0-1-1.67c-.69-.92-.84-.5-.84-.5l.1.92a4.71,4.71,0,0,0-.83-1.67,1.05,1.05,0,0,0-.35-.92A31,31,0,0,1,1329.54,713Z"/><path class="cls-39" d="M1332,713.28a3.09,3.09,0,0,1,2.75.67l1.42,2.59.64,1.25s0,.08-.54-.75l-.3-.25s.15,1.17,0,.75a8.53,8.53,0,0,1-.73-1.75c-.3-1-.59-.84-.59-.84h-.49a7.59,7.59,0,0,1,.39,1.75c0,.42-.29-1-.29-1l-.49-1.08-1-.34-.25-.5s-1.12-.47-1.37-.9Z"/><path class="cls-40" d="M1332,708.94s1.18,0,1.38.25l.63.67-.49-.17,0,.34-.73-.59s-.25,0-.1.42l-.29-.17-.64-.91-.2-.34Z"/><path class="cls-41" d="M1329.34,716.54a8.86,8.86,0,0,0,.35,2c.19.25,1,1.42.88.92s-.39-1.42-.39-1.42Z"/><path class="cls-42" d="M1330.86,719.79a4.7,4.7,0,0,0,.2,1.84,6.64,6.64,0,0,1,.49,1.58s.25-.08.15-.75Z"/><path class="cls-43" d="M1799.51,723.11s.63-6.43.5-8-.13-4.42-.13-4.42l-.28-3.89a13.73,13.73,0,0,1-.08-2.71,16.13,16.13,0,0,0,.28-1.89s.15-3.75.12-4.6.26-3.53.26-3.53l.17-2.17a13.37,13.37,0,0,0,0-1.64c0-.72-.1-5.21.25-4.72s.54,5.73.54,5.73a4.86,4.86,0,0,1,.09,1.52c0,1-.11,2-.11,2l.07,3.1-.37,4.78v2.55l.16,5.43s.41,5.42.34,5.93.26,6,.26,6S1801.48,724.36,1799.51,723.11Z"/><path class="cls-44" d="M1799.93,723.11s.49-5.54.45-6.79l-.66-11,.28-2,.16-6.13a18.79,18.79,0,0,1,.2-2.84,22.79,22.79,0,0,0,.29-3.65s0-2.83.1-2.27a36.21,36.21,0,0,1,.13,4.3c0,.56-.05,2,0,2.49a12.23,12.23,0,0,1,.06,2c-.1.57-.5,6-.42,6.83s0,3.17,0,3.17.39,7.34.41,7.91,0,4.31.14,5,.38,3.26-.4,3.54S1799.93,723.11,1799.93,723.11Z"/><path class="cls-45" d="M1809,705.91l-.19-.38c.84.09-.57-1.27-.57-1.27-.58-.42-.46-.48-.65-.64-.5-.42-1.36-1.21-1.06-.84-.17-.21-.88-.32-.88-.32s-.42.18-.43-.16a2.76,2.76,0,0,0-.19-.78l-.39-.21a3.56,3.56,0,0,0-.07-1,.88.88,0,0,1,.52.4c.54,1,.68.13.15-.69l1.13.95,0-.68,1.05,1.13,1.12.6a3.5,3.5,0,0,0-.88-1.13c-.7-.64-1.83-1.58-1.83-1.58s-1.79-.4-2.06-1.06c-.1-.23-.24-.49-.38-.74.86.42,1.75.78,1.75.78l-1.16-1-1.48-1.18-.74-1.07a3.88,3.88,0,0,1-.09-1.44l.06.28a2.07,2.07,0,0,0,.19,1l.34-1.32v0l-.08.6a2.65,2.65,0,0,1,.37.89c0,.22.08,0,.1-.25l0,0c.11,0,.06-.54,0-1.1v0l.16.15.17.61s.46,2.32.64,1.92a0,0,0,0,0,0,0c.14.35.15-.28.14-.87.11.42.24.78.33.69a3.65,3.65,0,0,0-.18-1.38l.35.28a6,6,0,0,0,.6,1.43c.24.22-.15-1.35-.15-1.35l.81.75s.49,1.21.72,1.2-.32-1.12-.32-1.12l.7.86c.54.88,1.2.27.74,0a22.22,22.22,0,0,1-2-2.14,19.92,19.92,0,0,0-1.42-2.41,1.85,1.85,0,0,0-.83-.52l-.3-1s.06,0,.08-.07l.74.85.33-.36.31.89.46.42,0-.9a1.91,1.91,0,0,1,.41.65,1,1,0,0,0,.64.53l-.61-1.55.41.65c.53.76.86.4.86.4l-.37-1.22a8.87,8.87,0,0,0-1.84-1.24c-.52-.2-1.86-2.18-2.64-3.4a6.34,6.34,0,0,0-.14-1.39c.34.22.86.63.86,1.15,0,.77,1.34.22,1.34.22l-.55-1.16s.69.3,1,.45a1.2,1.2,0,0,0,.59.13s-1.05-1.29-1.48-1.43a22.35,22.35,0,0,1-2.39-3.76l-.3-1.34-.4-2.36a7.35,7.35,0,0,0-.36,2.18,10.89,10.89,0,0,1-.85,3s-1,1.43-1.59,1.58-1.09,1.09-1.09,1.09-.5.6-.78.5-.55.49.07.34a4.73,4.73,0,0,0,.89-.29l-.59,1.06a1.14,1.14,0,0,0,.72-.5c.38-.47.6-.72.6-.72l-.3,1.38a.73.73,0,0,0,.61-.49,9.13,9.13,0,0,1,.53-1.16l.31,1.11,1-.17a1.88,1.88,0,0,1-.08.44,16.39,16.39,0,0,1-2.63,2.43l-1.51.66-1,1.43s0,.57.4.2l.49-.6s-.75,1.3-.36,1.16.76-.85.76-.85l.56-.26-.47,1.39a1.31,1.31,0,0,0,.77-.73,1.65,1.65,0,0,1,.49-.71l.17.22-.36,1s.33-.36.6-.72c.1-.13.45-.17.86-.17a2.62,2.62,0,0,0-.54,1.4c-.24-.09-.26.43-.64.45a8.72,8.72,0,0,0-2.28,1.28,1.21,1.21,0,0,0-1.07,0c-.56.27-.15.69.19.67l-.66.61s-1.25,1.78-.35,1.5l.65-1s-.21.81.29.32l.65-1-.24,1.49a.87.87,0,0,0,.43-.71l.37-.93s-.06,1.93.1,1.36.35-1.27.35-1.27.09,1,.36.77.15-.8.15-.8l.49-.49.43,1.11a3.58,3.58,0,0,1,.42-1,.76.76,0,0,1,.45-.26l.14.26,0,.18a2,2,0,0,0-.86,1.26l0,.24a13.52,13.52,0,0,0-3.75,2.13,10.45,10.45,0,0,0-1.35,1.9s-.65,1.07-.25,1,.54-.71.54-.71l.6-.61-.4,1.61a4.83,4.83,0,0,0,.75-1.4,1,1,0,0,1,.54-.72l-.06,1.7a4,4,0,0,0,.38-.59c.27-.47.24-1.26.41-1.27a2.42,2.42,0,0,0,.61-.27l-.13.85a.14.14,0,0,0-.12.08,1.74,1.74,0,0,1-.62.6,5.74,5.74,0,0,1-.36.71c.28-.41-.92.42-1,1.19,0,.4-.17-.1-.72.39,0,0-.83,1.07-.16.92l-.59,1s-1.23,2.35-.78,2.32.76-1.18.76-1.18-.2.92.25,1,.87-1.3.87-1.3l.64-1.16h0c0,.18-.42,2,0,1.9s.18-1.71.68-2a4.41,4.41,0,0,0,1-.86s-.34,1.84-.07,1.37.84-2.21,1.12-2.23-.26,2.51.81.52a13.88,13.88,0,0,0,.74-1.5l.8.27.12.42-.57.48s-.14-.06-.19.44-.31.53-.31.53a3,3,0,0,1-.21.69c.21-.43-.65.58-.88.86a4.56,4.56,0,0,0-.6.34,2.56,2.56,0,0,0-.32.84l-.33.35a2.39,2.39,0,0,0-1.2.65l-1,1.69-.89,1s-.92,2.29.37.76l.64-1.28.51.11-.79,1.27s-1,1.92.47.2a6.48,6.48,0,0,0,.82-1.36l.56-.4c-.31.88-.69,2.1-.51,2.18s.66-1.46.66-1.46-.27,1.27,0,1.56.42-1.54.42-1.54l.14-.17a3.24,3.24,0,0,0,.28.47c0,.49,0,1,.19,1,.31,0,.45-2,.81-2.22l0,0a4.6,4.6,0,0,0,.3,1.36,13.53,13.53,0,0,0-.42,3.15c.21.16.46-1.83.46-1.83a6.63,6.63,0,0,0,0,2c.21.38.53-2,.53-2l.4-1.87s-.29,2.26-.06,2.21.24-1.41.5-1.65.17,0,.17,0,0,1.83.13,1.09c.09-.42.19-1.15.27-1.7l.2.81.09,0c0,.64.15.91.47-.82.26-1.38.33-1.81.33-1.81l.54-.23s.16.12.23-.37l.37,1.3c.81,2.83.3-.88.48-.89a22.38,22.38,0,0,1,.86,3.18c.2.67-.13-2-.13-2a5.28,5.28,0,0,0,.72,1.14c.34.32.27,2.71.56,2.86s-.12-2.89-.12-2.89l.49,1.67s.35,2,.63,1.83.11-1.53.11-1.53.26,1.68.55,1.66-.64-3.36-.64-3.36l-.45-1.5c.45.14.34-1.51,0-2.17a.3.3,0,0,0-.22-.16l0-.23a4.45,4.45,0,0,0,1.09.73c.52.19.34,1.79.79,1.87s-.11-1.92-.11-1.92l.71,1.09s.49,1.33.94,1.19.19-1,.19-1,.37,1.11.83,1.09-.92-2.21-.92-2.21l-.65-1a.39.39,0,0,0,.45-.32c.28.48.21,1.63.6,1.7s-.12-1.92-.12-1.92l.71,1.09s.49,1.32.94,1.18.2-1,.2-1,.37,1.11.82,1.08S1809,705.91,1809,705.91Z"/><path class="cls-46" d="M1799.27,686.87l-1.45,1.22a14.67,14.67,0,0,1-1.46,1s-1.24.71-.76.71l-.66.54s-.1.38.18.18l.69-.62h.41s-.62.82-.27.72a1.87,1.87,0,0,0,.69-.51l.35-.1-.13.55.4-.25.7-.2.41-.72-.55-.1a.65.65,0,0,1,.41-.82C1798.86,688.2,1799.89,686.36,1799.27,686.87Z"/><path class="cls-47" d="M1799.62,683.59a3.94,3.94,0,0,0,.62-1.22c.21-.72.55.61.55.61s.83.72.42-.25l1,1.27-1.52-2.55s-.35-1.23-.42-1.74,0-1.43-.42.1l-.83,2.45-.55.82s-.9.62-1.25.82a5.9,5.9,0,0,0-1,1.13s-.07.81.35.1.62-.62.62-.62l.28.11.55-.51,1-.41s-.27.81,0,.61A2.64,2.64,0,0,0,1799.62,683.59Z"/><path class="cls-48" d="M1800.2,687.07s0,1,.59,1.23-.06-.78-.06-.78l.57.3s1.14.95.8.41-.71-1.32-.71-1.32-.79-.74-.45-.14-.8-.12-.8-.12Z"/><path class="cls-49" d="M1802.39,688.61a10.87,10.87,0,0,0,1.73,1.43,4.56,4.56,0,0,1,1.59,1.12c.14.31.39.59-.07.31l-.69-.41.35.82-.7-.92-.14.61-.34-.92-.56.31-.69-.92-1.52-.92.07-.51S1802.53,689.93,1802.39,688.61Z"/><path class="cls-50" d="M1800.9,691.54s-1.24.19-1.14-.32l-.18.71-.42-.26-.48.26s0,.57.13.32l.42.06a.71.71,0,0,0-.55.51c-.14.45.27,0,.27,0l-.27.64s-.14.45.34-.12.14.51.14.51.14.38.28-.07.42-.32.7-.06.62,1.41.55.58l-.29-.83s.64.57.64.83.42-.13-.14-.9c0,0,.49-.19.07-.58l-.23-.4.37.21s0-.17-.35-.45l-.14-.38S1801.41,692.21,1800.9,691.54Z"/><path class="cls-51" d="M1798,692.7l-.91,1.12-.41-.3s-.62,1-.69.61,1-1.43,1-1.43Z"/><path class="cls-52" d="M1795.81,693.41l-.9.82-.42.72-.2-.41-.77.92s-.69,0,0-.72A8.3,8.3,0,0,1,1795.81,693.41Z"/><path class="cls-53" d="M1794.42,694.13s-1.31-.41-.62.2Z"/><path class="cls-54" d="M1796.64,696.69a8.12,8.12,0,0,0-2.08.81c-.2.31-1.24.82-.55.82h1.31l2.36-1.74Z"/><path class="cls-55" d="M1798,696.69l-3.26,3.58s-.62.3-.76.71-.83.41-.9.92l-.21.82a1.09,1.09,0,0,0-.83.51l-.14.72-.9,1.53s0,.31.56-.31c0,0-.35,1.85.55-.1l.76-1.12s-.07,1.43.14.81l.35-.81,1.1-.72.35-.2.07.41.55-1.23.35-2.15s.48-.61.83-.51.28-.72.28-.72,1.73-.82.9-.92l-.56.1S1798.79,695.87,1798,696.69Z"/><path class="cls-56" d="M1799.87,696.76l-.92.92s-.43.31,0,.33.15.06.15.06l-.18.41s-.82.71-.54.66.31,0,.31,0l-.4.72s-.39.72-.09.52l-.22.63s-.1.59.24.17l.5-.68-.38,1.52s-.1.59.26-.22a3.73,3.73,0,0,0,.36-1.13l0,1.8s.19.4.3-.51l.13-1.06s.4-.4.43.32.28.83.19-.48l-.08-.74s.66,1.44.42.08c0,0,.18.15,0-1a.91.91,0,0,0,.27-.93l-.12-.63s-.52.94-.58,0l.49-.93s-.38.33-.19-.46c0,0-.66.38-.59,0l-.41.47S1799.18,697.29,1799.87,696.76Z"/><path class="cls-57" d="M1801.49,697.86a5.51,5.51,0,0,1,2,.85,4.47,4.47,0,0,1,.83,2.14s-.26.55-.28.16l-.29.76a2.63,2.63,0,0,1-.26-.69c0-.3-.52.31-.52.31s-.26,0,0-.84-.15-.46-.36,0-.26.07-.1-.46-.16-.69-.16-.69-.52.92-.42.38a2.49,2.49,0,0,1,.16-.61s0-.62-.36-.77A.54.54,0,0,1,1801.49,697.86Z"/><path class="cls-58" d="M1801.54,696.56s.62.46.67.76-.26.23-.26.23Z"/><path class="cls-59" d="M1802.53,696.94s.88.08-.06-.46-.46,0-.46,0Z"/><path class="cls-60" d="M1800.48,704.19s-2.11.19-2.63,1.19a29.66,29.66,0,0,0-1.24,4.45l-.16,1.84s.16,1,.26-.15c0,0,.55-1.78.74-1.35,0,0,.18.72.42-.43s-.07.16-.07.16l.21.23s.1,1.31.36-.46l.47.46,0-2.37s.2-2.54.31-2c0,0,.15,1.77.31,1.23a5.38,5.38,0,0,0,.1-1.46s.63.85.68-.07l-.21-.39.57-.15-.15-.31Z"/><path class="cls-61" d="M1792.9,709s.61-1.54,1-1.64,1.09.12,1.23-.49a1.14,1.14,0,0,1,.64-.94,6.24,6.24,0,0,0,1-1.13s.55-1.22.41-.2c0,0-.2,1.43-.62,1.74s-.48,0-.48,0l-.28,1.43s-.35.31-.28-.31-.41,1.44-.41,1.44-.49-.11-.35-.72-.62,1-.62,1l-.63.21a6.19,6.19,0,0,1,.28-.92c.14-.31-.5.71-.9,1s-.83.41-1.11,1A4.78,4.78,0,0,1,1792.9,709Z"/><path class="cls-62" d="M1801.9,703a33.82,33.82,0,0,1,3.69,2.91c.62.77,1.61,2.08,1.61,2.08s0,.3-.52-.31c0,0,.62,1,.26,1.15a7,7,0,0,0-1-1.53c-.72-.85-.88-.46-.88-.46l.1.84a4.12,4.12,0,0,0-.88-1.53.92.92,0,0,0-.36-.85A27.76,27.76,0,0,1,1801.9,703Z"/><path class="cls-63" d="M1804.55,703.31a3.66,3.66,0,0,1,2.91.61l1.51,2.38.67,1.15s0,.08-.57-.69l-.31-.23s.15,1.07,0,.69a7.34,7.34,0,0,1-.78-1.61c-.31-.92-.62-.77-.62-.77h-.52a6.33,6.33,0,0,1,.41,1.61c0,.39-.31-.92-.31-.92l-.52-1-1-.3-.26-.46a4.22,4.22,0,0,1-1.45-.84Z"/><path class="cls-64" d="M1804.5,699.32s1.25,0,1.45.23l.68.61-.52-.15,0,.31-.78-.54s-.26,0-.1.38l-.32-.15-.67-.84-.21-.31Z"/><path class="cls-65" d="M1801.69,706.3a7.26,7.26,0,0,0,.37,1.84c.21.23,1,1.3.93.84a13.46,13.46,0,0,0-.41-1.3Z"/><path class="cls-66" d="M1803.3,709.29a3.72,3.72,0,0,0,.21,1.69,5.45,5.45,0,0,1,.52,1.46s.26-.08.16-.69Z"/><path class="cls-67" d="M1788.28,723.54a56.39,56.39,0,0,1-.67-7.12c.18-1.37.17-4,.17-4l.38-3.49a8.81,8.81,0,0,0,.11-2.43,9.43,9.43,0,0,1-.38-1.7s-.19-3.36-.16-4.12a28.78,28.78,0,0,0-.35-3.16l-.22-1.94a9.49,9.49,0,0,1,0-1.48c0-.64.14-4.67-.33-4.23s-.72,5.14-.72,5.14a3.35,3.35,0,0,0-.11,1.37c.07.91.15,1.76.15,1.76L1786,701l.49,4.29,0,2.29-.21,4.87s-.55,4.85-.46,5.31-.34,5.37-.34,5.37S1785.66,724.66,1788.28,723.54Z"/><path class="cls-68" d="M1787.72,723.54s-.65-5-.6-6.08l.87-9.82-.37-1.74-.21-5.5a11.13,11.13,0,0,0-.27-2.55,14.39,14.39,0,0,1-.38-3.27s0-2.54-.14-2a21.54,21.54,0,0,0-.16,3.85c0,.51.07,1.83,0,2.24a7.17,7.17,0,0,0-.08,1.82,49.32,49.32,0,0,1,.56,6.12,26.82,26.82,0,0,0,0,2.85s-.51,6.58-.53,7.09,0,3.86-.19,4.46-.5,2.93.53,3.17S1787.72,723.54,1787.72,723.54Z"/><path class="cls-69" d="M1775.68,708.13l.25-.34c-1.11.08.76-1.14.76-1.14.77-.37.6-.43.86-.57.67-.38,1.8-1.09,1.4-.76a3.72,3.72,0,0,1,1.18-.29s.55.16.56-.14a2,2,0,0,1,.26-.7l.52-.18a2.14,2.14,0,0,1,.09-1,1.27,1.27,0,0,0-.69.36c-.71.89-.9.12-.2-.61l-1.5.85,0-.61-1.39,1-1.49.55a3.42,3.42,0,0,1,1.17-1c.92-.57,2.42-1.42,2.42-1.42s2.38-.35,2.74-.94a4.76,4.76,0,0,1,.51-.67c-1.15.38-2.33.7-2.33.7l1.54-.85,2-1.06,1-1a2.4,2.4,0,0,0,.12-1.29c0,.09-.06.17-.08.25a1.44,1.44,0,0,1-.26.92l-.45-1.18h0l.1.54a2.18,2.18,0,0,0-.48.8c-.07.2-.11,0-.13-.22l-.06,0c-.15,0-.08-.49,0-1v0l-.21.13-.24.55s-.6,2.08-.84,1.73l0,0c-.18.31-.2-.25-.19-.78-.14.37-.31.69-.43.62s0-.61.24-1.24l-.46.25a4.68,4.68,0,0,1-.81,1.28c-.31.19.2-1.21.2-1.21l-1.07.67s-.65,1.09-1,1.08.42-1,.42-1l-.93.77c-.71.78-1.59.24-1,0a24.78,24.78,0,0,0,2.63-1.92,18.14,18.14,0,0,1,1.9-2.15,2.6,2.6,0,0,1,1.1-.47l.39-.92a.15.15,0,0,1-.1-.06l-1,.76-.43-.32-.41.8-.62.38,0-.82a1.86,1.86,0,0,0-.55.59,1.29,1.29,0,0,1-.85.47l.81-1.39-.55.59c-.7.68-1.14.36-1.14.36l.5-1.1a13.09,13.09,0,0,1,2.44-1.11c.68-.18,2.46-2,3.5-3a3.81,3.81,0,0,1,.19-1.26c-.46.2-1.14.57-1.15,1,0,.69-1.77.19-1.77.19l.72-1s-.91.27-1.25.41a2.18,2.18,0,0,1-.79.12,9,9,0,0,1,2-1.29c.43-.1,2.28-2.29,3.17-3.37l.4-1.2.54-2.11a4.62,4.62,0,0,1,.48,2c-.1.71,1.12,2.7,1.12,2.7a6.85,6.85,0,0,0,2.11,1.41,3.18,3.18,0,0,1,1.46,1s.65.54,1,.45.73.44-.09.3a8.81,8.81,0,0,1-1.19-.25l.79,1a1.77,1.77,0,0,1-1-.45c-.5-.43-.79-.65-.79-.65l.39,1.24a1,1,0,0,1-.8-.44,8.92,8.92,0,0,0-.71-1l-.42,1-1.31-.15a1.08,1.08,0,0,0,.11.39,21.33,21.33,0,0,0,3.5,2.19l2,.59,1.3,1.27s0,.51-.53.19l-.65-.54s1,1.16.47,1a2.45,2.45,0,0,1-1-.76l-.74-.23.62,1.24a1.76,1.76,0,0,1-1-.65,1.69,1.69,0,0,0-.65-.64l-.23.19.48.94s-.43-.32-.79-.64a2.44,2.44,0,0,0-1.15-.16c.26.35.75.69.72,1.26.32-.09.34.38.85.4a13.81,13.81,0,0,1,3,1.15,2.34,2.34,0,0,1,1.43-.05c.74.24.19.62-.25.6l.87.55s1.66,1.6.47,1.34l-.86-.85s.26.72-.39.29l-.86-.85.31,1.33s-.59-.23-.57-.63l-.49-.84s.08,1.74-.13,1.22-.47-1.14-.47-1.14-.11.91-.48.69-.19-.72-.19-.72l-.66-.43-.57,1a2.63,2.63,0,0,0-.56-.94,1.25,1.25,0,0,0-.59-.23l-.18.23,0,.17a1.83,1.83,0,0,1,1.14,1.12l0,.22a20.21,20.21,0,0,1,5,1.91,10.59,10.59,0,0,1,1.8,1.7s.86,1,.34.93-.72-.64-.72-.64l-.8-.54.53,1.44s-.93-.85-1-1.26-.72-.64-.72-.64l.08,1.53a4.55,4.55,0,0,1-.5-.53c-.36-.42-.33-1.13-.55-1.14a4.26,4.26,0,0,1-.82-.24l.19.75a.28.28,0,0,1,.15.08,2.51,2.51,0,0,0,.82.54,4.86,4.86,0,0,0,.48.63c-.37-.37,1.22.38,1.3,1.07,0,.36.23-.09,1,.35,0,0,1.1,1,.21.82l.79,1s1.63,2.1,1,2.08-1-1.06-1-1.06.26.82-.34.9-1.15-1.17-1.15-1.17l-.85-1h0c.05.17.56,1.83,0,1.71s-.24-1.53-.9-1.76a6.11,6.11,0,0,1-1.39-.77s.45,1.64.09,1.22-1.11-2-1.48-2,.35,2.25-1.07.46a11.27,11.27,0,0,1-1-1.35l-1.06.24c0,.13-.11.25-.16.38l.76.43s.19,0,.25.4a.51.51,0,0,0,.41.48,2.07,2.07,0,0,0,.28.62c-.28-.39.86.52,1.16.76a7,7,0,0,1,.8.31,2,2,0,0,1,.43.75l.44.31a3.9,3.9,0,0,1,1.6.58l1.36,1.52,1.2.93s1.21,2.06-.5.68l-.85-1.14-.67.09,1.05,1.15s1.33,1.71-.63.17a5.89,5.89,0,0,1-1.09-1.22l-.74-.36c.4.8.91,1.89.67,2s-.87-1.31-.87-1.31.35,1.14,0,1.4-.55-1.38-.55-1.38l-.19-.15a3.16,3.16,0,0,1-.37.42c0,.43,0,.89-.25.87-.41,0-.6-1.81-1.07-2l0,0a3.24,3.24,0,0,1-.4,1.22c.29,1,.76,2.72.56,2.82s-.62-1.63-.62-1.63.24,1.44,0,1.77-.69-1.79-.69-1.79l-.54-1.68s.38,2,.08,2-.32-1.26-.66-1.47-.23,0-.23,0,0,1.64-.17,1c-.13-.37-.25-1-.36-1.51l-.26.72-.13,0c-.06.58-.2.82-.63-.73-.34-1.24-.43-1.62-.43-1.62l-.71-.21s-.22.11-.32-.33c-.11.28-.26.66-.48,1.16-1.07,2.54-.4-.78-.64-.79s-.87,2.25-1.14,2.85.18-1.83.18-1.83a4.59,4.59,0,0,1-1,1c-.45.29-.34,2.42-.74,2.56s.16-2.58.16-2.58l-.64,1.49s-.47,1.81-.85,1.64-.13-1.38-.13-1.38-.36,1.51-.74,1.5.85-3,.85-3l.59-1.35c-.58.13-.45-1.35.06-1.94a.43.43,0,0,1,.29-.15l.07-.2a6.31,6.31,0,0,1-1.45.64c-.69.18-.45,1.61-1,1.69s.15-1.72.15-1.72l-.94,1s-.65,1.19-1.25,1.07-.26-.93-.26-.93-.49,1-1.09,1,1.21-2,1.21-2l.86-.88c-.33,0-.52-.1-.59-.28-.37.42-.28,1.45-.79,1.52s.15-1.72.15-1.72l-.94,1s-.65,1.19-1.25,1.07-.26-.93-.26-.93-.49,1-1.09,1S1775.68,708.13,1775.68,708.13Z"/><path class="cls-70" d="M1788.59,691.06l1.93,1.1s1.57.82,1.93.92c0,0,1.66.64,1,.64l.89.48s.13.34-.24.16l-.92-.55h-.55s.82.73.36.64a2.55,2.55,0,0,1-.91-.46l-.46-.09.16.49-.53-.21-.92-.19-.55-.64.73-.09s.28-.46-.55-.73S1787.77,690.6,1788.59,691.06Z"/><path class="cls-71" d="M1788.13,688.13a3.28,3.28,0,0,1-.82-1.11c-.28-.64-.74.56-.74.56s-1.09.64-.55-.23l-1.38,1.14,2-2.29a12.82,12.82,0,0,0,.55-1.56c.1-.46,0-1.28.56.09l1.1,2.2.73.74s1.2.55,1.66.73a6,6,0,0,1,1.29,1s.09.73-.46.09-.83-.55-.83-.55l-.37.09-.74-.46-1.28-.36s.37.73,0,.55A3,3,0,0,1,1788.13,688.13Z"/><path class="cls-72" d="M1787.36,691.24s0,.92-.79,1.1.09-.69.09-.69l-.76.27s-1.51.84-1.06.36,1-1.18,1-1.18,1-.67.59-.13,1.07-.1,1.07-.1Z"/><path class="cls-73" d="M1784.46,692.62a14.52,14.52,0,0,1-2.3,1.28,6.35,6.35,0,0,0-2.12,1c-.18.27-.52.52.1.27s.92-.36.92-.36l-.46.73.91-.82.19.55.46-.83.73.28.92-.83,2-.82-.1-.46S1784.27,693.81,1784.46,692.62Z"/><path class="cls-74" d="M1786.43,695.25s1.65.17,1.52-.29l.23.63.56-.23.64.23s0,.52-.18.29l-.56.06a1,1,0,0,1,.74.46c.19.4-.37,0-.37,0l.37.57s.19.4-.46-.11-.18.46-.18.46-.19.34-.37-.06-.56-.29-.93-.06-.83,1.26-.74.52l.4-.74s-.86.51-.86.74-.55-.12.19-.81c0,0-.65-.17-.09-.51l.3-.36-.49.18s0-.15.46-.4l.19-.34S1785.76,695.84,1786.43,695.25Z"/><path class="cls-75" d="M1790.25,696.28l1.19,1,.55-.27s.83.91.92.55-1.38-1.29-1.38-1.29Z"/><path class="cls-76" d="M1793.19,696.93l1.19.73.55.64.28-.37,1,.83s.92,0,0-.64A12.81,12.81,0,0,0,1793.19,696.93Z"/><path class="cls-77" d="M1795,697.57s1.74-.37.82.18Z"/><path class="cls-78" d="M1792.09,699.86a14,14,0,0,1,2.75.73c.28.28,1.66.74.74.74h-1.75l-3.12-1.56Z"/><path class="cls-79" d="M1790.34,699.86l4.32,3.21s.83.27,1,.64,1.1.37,1.2.82l.27.74a1.65,1.65,0,0,1,1.1.46l.19.64,1.19,1.37s0,.28-.73-.27c0,0,.46,1.65-.74-.09l-1-1s.09,1.28-.18.73l-.46-.73-1.47-.64-.46-.19-.09.37-.74-1.1-.46-1.93s-.64-.54-1.1-.45-.37-.64-.37-.64-2.3-.74-1.2-.83l.74.09S1789.24,699.13,1790.34,699.86Z"/><path class="cls-80" d="M1787.8,699.93l1.22.82s.57.28-.07.3-.2.05-.2.05l.24.37s1.09.64.73.59-.42,0-.42,0l.52.64s.53.65.13.47l.29.56s.13.53-.32.16l-.66-.62.5,1.37s.14.53-.34-.2a2.54,2.54,0,0,1-.48-1l.07,1.61s-.26.36-.4-.46l-.18-1s-.52-.36-.57.29-.37.74-.25-.43l.11-.67s-.87,1.3-.55.08c0,0-.25.13,0-.85a.7.7,0,0,1-.36-.83l.17-.58s.68.85.76.05l-.65-.83s.51.3.25-.42c0,0,.87.34.79,0l.54.43S1788.71,700.4,1787.8,699.93Z"/><path class="cls-81" d="M1785.65,700.91a9.68,9.68,0,0,0-2.69.76,3.44,3.44,0,0,0-1.1,1.93s.35.49.38.14l.38.68a2.09,2.09,0,0,0,.34-.62c.07-.27.69.28.69.28s.35,0,0-.76.2-.41.49,0,.34.07.13-.41a.42.42,0,0,1,.21-.62s.69.82.55.34a2.09,2.09,0,0,0-.2-.55s.06-.55.48-.68A.44.44,0,0,0,1785.65,700.91Z"/><path class="cls-82" d="M1785.58,699.75s-.83.41-.89.68.34.21.34.21Z"/><path class="cls-83" d="M1784.27,700.09s-1.17.07.07-.41.62,0,.62,0Z"/><path class="cls-84" d="M1787,706.58s2.8.18,3.49,1.07a20.45,20.45,0,0,1,1.65,4l.21,1.65s-.21.89-.35-.14c0,0-.73-1.59-1-1.21,0,0-.24.65-.56-.38s.1.15.1.15l-.28.2s-.14,1.17-.48-.41l-.62.41.07-2.13s-.28-2.27-.42-1.78c0,0-.2,1.58-.41,1.1a3.42,3.42,0,0,1-.14-1.31s-.83.76-.9-.07l.28-.34-.76-.14.21-.28Z"/><path class="cls-85" d="M1797.05,710.86s-.8-1.37-1.38-1.47-1.44.11-1.63-.44a1.14,1.14,0,0,0-.85-.84,7.4,7.4,0,0,1-1.38-1s-.74-1.1-.55-.18c0,0,.27,1.28.83,1.56s.64,0,.64,0l.37,1.28s.46.28.36-.27.56,1.28.56,1.28.64-.09.46-.64.82.91.82.91l.83.19a4.29,4.29,0,0,0-.37-.83c-.18-.27.66.64,1.2.92s1.1.36,1.47.92A4.6,4.6,0,0,0,1797.05,710.86Z"/><path class="cls-86" d="M1785.1,705.52a48,48,0,0,0-4.9,2.61c-.82.69-2.13,1.86-2.13,1.86s-.07.27.69-.28c0,0-.83.9-.35,1a7.06,7.06,0,0,1,1.38-1.38c1-.76,1.17-.41,1.17-.41l-.13.75a3.61,3.61,0,0,1,1.17-1.37s-.14-.41.48-.76A31.17,31.17,0,0,0,1785.1,705.52Z"/><path class="cls-87" d="M1781.58,705.8s-2.48-.35-3.86.55l-2,2.13-.89,1s0,.07.76-.62l.41-.21s-.21,1,0,.62a6.24,6.24,0,0,0,1-1.44c.42-.83.83-.69.83-.69h.69s-.62,1.1-.55,1.44.41-.82.41-.82l.69-.89,1.38-.28.35-.41a6.56,6.56,0,0,0,1.92-.75Z"/><path class="cls-88" d="M1781.65,702.22a7,7,0,0,0-1.93.21l-.89.55.69-.14.06.27,1-.48s.34,0,.14.35l.41-.14.9-.76.27-.27Z"/><path class="cls-89" d="M1785.38,708.48s-.21,1.44-.49,1.65-1.38,1.17-1.24.75a11,11,0,0,1,.55-1.17Z"/><path class="cls-90" d="M1783.24,711.16s.14,1.1-.28,1.51a4,4,0,0,0-.69,1.31s-.34-.07-.2-.62Z"/><path class="cls-91" d="M1811.89,725.2a38.58,38.58,0,0,1-.39-4.51c.1-.86.1-2.5.1-2.5l.22-2.21a5.92,5.92,0,0,0,.06-1.54,6.44,6.44,0,0,1-.22-1.07s-.11-2.12-.09-2.61a19.29,19.29,0,0,0-.2-2l-.13-1.22a7.64,7.64,0,0,1,0-.94c0-.4.08-3-.19-2.67a15.32,15.32,0,0,0-.42,3.25,2.34,2.34,0,0,0-.06.86c0,.58.08,1.11.08,1.11l-.05,1.76.28,2.71v1.45l-.12,3.08s-.32,3.07-.26,3.36-.2,3.39-.2,3.39S1810.37,725.9,1811.89,725.2Z"/><path class="cls-92" d="M1811.56,725.2s-.37-3.14-.34-3.85l.5-6.21-.21-1.1-.13-3.48a7.42,7.42,0,0,0-.15-1.61,10.19,10.19,0,0,1-.22-2.07s0-1.6-.08-1.29a15.33,15.33,0,0,0-.1,2.44c0,.32,0,1.16,0,1.42a4.76,4.76,0,0,0,0,1.15,36.06,36.06,0,0,1,.32,3.87c-.06.45,0,1.8,0,1.8s-.29,4.16-.3,4.48,0,2.44-.11,2.82-.29,1.85.31,2S1811.56,725.2,1811.56,725.2Z"/><path class="cls-93" d="M1804.61,715.45l.14-.22c-.64,0,.44-.72.44-.72.44-.23.35-.27.5-.36.38-.24,1-.69.81-.48a2,2,0,0,1,.68-.18s.32.1.32-.09a1.28,1.28,0,0,1,.15-.44l.3-.12a1.63,1.63,0,0,1,.06-.6.75.75,0,0,0-.4.23c-.42.56-.53.08-.12-.39l-.86.54v-.38l-.8.63-.86.35a2,2,0,0,1,.67-.65c.54-.36,1.4-.89,1.4-.89s1.38-.23,1.59-.6a3.19,3.19,0,0,1,.29-.42c-.66.24-1.34.44-1.34.44l.88-.54,1.14-.67.57-.6a1.73,1.73,0,0,0,.07-.82,1,1,0,0,0,0,.16,1,1,0,0,1-.15.58l-.26-.75h0l.06.34a1.42,1.42,0,0,0-.28.5c0,.13-.06,0-.08-.14l0,0c-.09,0,0-.31,0-.63v0l-.12.08-.13.35s-.35,1.32-.49,1.09v0c-.11.2-.12-.16-.11-.49-.09.23-.18.44-.25.39s0-.38.14-.79l-.27.16a3,3,0,0,1-.47.82c-.17.12.12-.77.12-.77l-.62.42s-.37.69-.55.68.24-.63.24-.63l-.54.49c-.4.5-.91.15-.56,0a13.5,13.5,0,0,0,1.52-1.21,12,12,0,0,1,1.1-1.36,1.48,1.48,0,0,1,.63-.3l.23-.57a.13.13,0,0,1-.06-.05l-.57.49-.25-.21-.24.51-.35.24,0-.52a1.14,1.14,0,0,0-.32.37.73.73,0,0,1-.49.3l.47-.88-.32.38c-.41.43-.66.22-.66.22l.29-.69a7.36,7.36,0,0,1,1.41-.71,9.24,9.24,0,0,0,2-1.92,2.7,2.7,0,0,1,.11-.79c-.26.12-.66.36-.66.65s-1,.12-1,.12l.41-.65s-.52.17-.72.25a1.19,1.19,0,0,1-.46.08,5.05,5.05,0,0,1,1.14-.81,13.81,13.81,0,0,0,1.83-2.13l.23-.77.31-1.33a3.22,3.22,0,0,1,.28,1.23,5.1,5.1,0,0,0,.64,1.71,4.06,4.06,0,0,0,1.22.9,1.85,1.85,0,0,1,.85.61s.37.34.59.29.42.28,0,.19a6.73,6.73,0,0,1-.69-.16l.46.6a1,1,0,0,1-.56-.29c-.29-.27-.46-.4-.46-.4l.23.78a.58.58,0,0,1-.46-.28,5.28,5.28,0,0,0-.41-.66l-.24.63-.76-.09a.69.69,0,0,0,.06.24,11.92,11.92,0,0,0,2,1.38l1.16.38.75.8s0,.33-.31.12l-.38-.34s.58.73.28.66a1.42,1.42,0,0,1-.59-.48l-.43-.15.36.79a1.06,1.06,0,0,1-.59-.42,1,1,0,0,0-.37-.4l-.14.12.28.59s-.25-.2-.46-.4a1.21,1.21,0,0,0-.66-.1c.15.22.43.44.42.79.18,0,.19.24.49.26a7.4,7.4,0,0,1,1.74.72,1.26,1.26,0,0,1,.83,0c.42.15.11.39-.15.38l.51.34s1,1,.27.85l-.5-.54s.16.46-.22.18l-.5-.53.18.84s-.34-.14-.33-.4l-.28-.53s0,1.1-.08.77-.27-.72-.27-.72-.07.58-.28.44-.11-.46-.11-.46l-.38-.27-.32.62a1.82,1.82,0,0,0-.33-.59.59.59,0,0,0-.34-.14l-.11.14,0,.11a1.13,1.13,0,0,1,.66.71v.13a11.78,11.78,0,0,1,2.87,1.21,6.52,6.52,0,0,1,1,1.08s.49.6.19.59-.42-.41-.42-.41l-.46-.34.31.91s-.54-.54-.57-.8-.42-.4-.42-.4l0,1a2.9,2.9,0,0,1-.29-.34c-.21-.27-.19-.72-.32-.72a2.61,2.61,0,0,1-.47-.15l.11.48a.12.12,0,0,1,.09,0,1.43,1.43,0,0,0,.47.35,2.38,2.38,0,0,0,.28.39c-.22-.23.7.25.75.68,0,.23.13-.06.55.22,0,0,.64.61.12.52l.46.6s.94,1.33.59,1.31-.58-.67-.58-.67.16.52-.19.57-.66-.74-.66-.74l-.49-.66h0c0,.1.33,1.16,0,1.08s-.13-1-.52-1.12a3.47,3.47,0,0,1-.8-.48s.26,1,.06.77-.65-1.25-.86-1.26.2,1.42-.62.29a5.8,5.8,0,0,1-.57-.85l-.61.15-.1.24.44.27s.11,0,.15.25.23.31.23.31a1.67,1.67,0,0,0,.16.39c-.15-.25.5.33.68.48a3.76,3.76,0,0,1,.46.2,1.35,1.35,0,0,1,.25.47l.25.2a2,2,0,0,1,.92.37l.79,1,.69.59s.7,1.29-.28.42l-.5-.72-.38.06.6.72s.77,1.09-.36.12a3.56,3.56,0,0,1-.63-.78l-.43-.22c.24.5.53,1.19.39,1.23s-.5-.82-.5-.82.2.72,0,.88-.32-.87-.32-.87l-.1-.1a2.13,2.13,0,0,1-.22.27c0,.28,0,.57-.15.55s-.34-1.14-.61-1.26h0a2,2,0,0,1-.23.77,5.57,5.57,0,0,1,.32,1.79c-.16.09-.35-1-.35-1s.14.91,0,1.12-.4-1.13-.4-1.13l-.32-1.06s.22,1.28,0,1.25-.18-.79-.38-.93-.13,0-.13,0,0,1-.1.62c-.07-.24-.15-.65-.21-1l-.15.46-.07,0c0,.36-.12.52-.37-.47l-.25-1-.41-.13s-.12.07-.18-.21c-.06.18-.15.42-.28.73-.62,1.61-.23-.49-.37-.5a11.09,11.09,0,0,0-.66,1.8c-.15.38.1-1.15.1-1.15a2.74,2.74,0,0,1-.55.65c-.26.18-.2,1.53-.43,1.62s.09-1.64.09-1.64l-.37.95s-.27,1.14-.49,1-.08-.87-.08-.87-.2,1-.42.94.49-1.9.49-1.9l.34-.86c-.34.08-.26-.85,0-1.22a.22.22,0,0,1,.16-.1l0-.13a3.41,3.41,0,0,1-.84.41c-.39.11-.25,1-.6,1.07s.08-1.09.08-1.09l-.54.62s-.38.75-.72.67-.15-.59-.15-.59-.28.63-.63.62.7-1.25.7-1.25l.5-.56c-.2,0-.31-.06-.34-.18-.22.27-.17.92-.46,1s.08-1.09.08-1.09l-.54.62s-.38.75-.72.67-.15-.58-.15-.58-.28.63-.63.61S1804.61,715.45,1804.61,715.45Z"/><path class="cls-94" d="M1812.07,704.65l1.11.7a12.06,12.06,0,0,0,1.12.58s1,.41.58.41l.51.3s.08.22-.14.1l-.53-.35h-.32s.48.47.22.41a1.43,1.43,0,0,1-.53-.29l-.27-.06.09.31-.3-.14-.53-.11-.32-.41.42-.05s.16-.29-.31-.47S1811.59,704.36,1812.07,704.65Z"/><path class="cls-95" d="M1811.8,702.8a2.08,2.08,0,0,1-.48-.7c-.15-.4-.42.35-.42.35s-.63.41-.32-.14l-.8.72,1.17-1.45a8,8,0,0,0,.32-1c0-.29,0-.82.32,0l.64,1.4.42.46s.69.35,1,.46a3.86,3.86,0,0,1,.74.64s.05.46-.26.06-.48-.35-.48-.35l-.21.06-.43-.29-.74-.23s.21.46,0,.34A1.7,1.7,0,0,1,1811.8,702.8Z"/><path class="cls-96" d="M1811.36,704.77s0,.58-.46.7,0-.45,0-.45l-.44.18s-.87.53-.61.22a8.55,8.55,0,0,0,.55-.74s.6-.42.34-.08.62-.07.62-.07Z"/><path class="cls-97" d="M1809.68,705.64a8,8,0,0,1-1.33.81,3.63,3.63,0,0,0-1.22.64c-.11.17-.3.33,0,.17l.53-.23-.26.46.53-.52.11.35.26-.52.43.17.53-.52,1.17-.52-.06-.29S1809.57,706.39,1809.68,705.64Z"/><path class="cls-98" d="M1810.82,707.3s1,.11.87-.18l.14.4.32-.14.38.14s0,.33-.11.18l-.32,0a.58.58,0,0,1,.43.29c.1.25-.22,0-.22,0l.22.36s.1.26-.27-.07-.11.29-.11.29-.11.22-.21,0-.32-.18-.54,0-.48.8-.42.32l.22-.46s-.49.32-.49.46-.32-.07.11-.5c0,0-.38-.11-.06-.33l.18-.23-.28.12s0-.1.26-.25l.11-.22S1810.43,707.68,1810.82,707.3Z"/><path class="cls-99" d="M1813,708l.69.64.32-.18s.48.58.53.35-.79-.81-.79-.81Z"/><path class="cls-100" d="M1814.72,708.36l.69.47.32.4.16-.23.59.52s.53,0,0-.4A7.08,7.08,0,0,0,1814.72,708.36Z"/><path class="cls-101" d="M1815.79,708.77s1-.23.47.12Z"/><path class="cls-102" d="M1814.09,710.22a7.64,7.64,0,0,1,1.59.46c.16.18,1,.47.42.47h-1l-1.8-1Z"/><path class="cls-103" d="M1813.08,710.22l2.49,2s.48.17.59.4.63.24.69.53l.16.46a.93.93,0,0,1,.63.29l.11.4.69.87s0,.18-.42-.17c0,0,.26,1-.43-.06l-.58-.64s0,.82-.11.47l-.26-.47-.85-.4-.27-.12,0,.23-.43-.69-.26-1.22s-.38-.35-.64-.29-.21-.4-.21-.4-1.33-.47-.69-.53l.42.06S1812.44,709.76,1813.08,710.22Z"/><path class="cls-104" d="M1811.61,710.26l.7.52s.33.18,0,.19-.12,0-.12,0l.14.23s.63.4.42.37-.24,0-.24,0l.3.41s.3.41.07.3l.17.35s.08.34-.18.1l-.39-.39.29.87s.08.33-.19-.13a1.54,1.54,0,0,1-.28-.64l0,1s-.15.23-.23-.29l-.11-.6s-.3-.23-.32.18-.22.47-.15-.27l.06-.42s-.5.82-.32,0c0,0-.14.09,0-.53a.46.46,0,0,1-.21-.53l.1-.36s.4.54.44,0l-.37-.52s.29.18.14-.27c0,0,.5.22.45,0l.32.27S1812.14,710.56,1811.61,710.26Z"/><path class="cls-105" d="M1810.37,710.89a5,5,0,0,0-1.55.47,2.24,2.24,0,0,0-.64,1.22s.2.31.22.09l.22.43a1.26,1.26,0,0,0,.2-.39c0-.17.39.18.39.18s.2,0,0-.48.12-.26.28,0,.2,0,.08-.26.12-.39.12-.39.4.52.32.21a1.29,1.29,0,0,0-.12-.35s0-.34.28-.43A.27.27,0,0,0,1810.37,710.89Z"/><path class="cls-106" d="M1810.33,710.15s-.48.26-.52.43.2.13.2.13Z"/><path class="cls-107" d="M1809.57,710.36s-.67,0,0-.26.36,0,.36,0Z"/><path class="cls-108" d="M1811.14,714.47s1.62.11,2,.68a13.24,13.24,0,0,1,.95,2.52l.12,1s-.12.57-.2-.09c0,0-.42-1-.57-.76,0,0-.13.41-.32-.24s.06.09.06.09l-.16.13s-.08.74-.28-.26l-.36.26,0-1.35s-.16-1.43-.24-1.13c0,0-.12,1-.24.7a2.38,2.38,0,0,1-.08-.83s-.48.48-.52,0l.16-.22-.43-.08.12-.18Z"/><path class="cls-109" d="M1817,717.18s-.46-.87-.79-.93-.84.06-.94-.28a.68.68,0,0,0-.5-.53,4.7,4.7,0,0,1-.79-.64s-.43-.7-.32-.12c0,0,.16.81.48,1s.37,0,.37,0l.21.81s.27.17.21-.17.32.81.32.81a.32.32,0,0,0,.27-.41c-.11-.35.47.58.47.58l.48.12a2.55,2.55,0,0,0-.21-.52c-.11-.18.38.4.69.58s.64.23.85.58A2.68,2.68,0,0,0,1817,717.18Z"/><path class="cls-110" d="M1810.05,713.8a27,27,0,0,0-2.83,1.65c-.48.44-1.23,1.18-1.23,1.18s0,.17.4-.18c0,0-.48.57-.2.65a4.31,4.31,0,0,1,.79-.87c.56-.47.68-.26.68-.26l-.08.48a2.33,2.33,0,0,1,.68-.87s-.08-.26.28-.48A17.07,17.07,0,0,0,1810.05,713.8Z"/><path class="cls-111" d="M1808,714a3.72,3.72,0,0,0-2.23.35l-1.16,1.35-.51.65s0,0,.43-.39l.24-.13s-.12.61,0,.39a3.93,3.93,0,0,0,.6-.91c.24-.52.48-.44.48-.44h.4a2.83,2.83,0,0,0-.32.92c0,.21.24-.53.24-.53l.4-.56.79-.18.2-.26a3.54,3.54,0,0,0,1.11-.47Z"/><path class="cls-112" d="M1808.06,711.71a3.8,3.8,0,0,0-1.12.13l-.51.35.39-.09,0,.18.6-.31s.2,0,.08.22l.24-.09.52-.48.16-.17Z"/><path class="cls-113" d="M1810.21,715.67s-.12.91-.28,1-.8.74-.72.48a6.82,6.82,0,0,1,.32-.74Z"/><path class="cls-114" d="M1809,717.36s.08.7-.16,1a2.55,2.55,0,0,0-.4.83s-.2,0-.12-.4Z"/><path class="cls-115" d="M1935,731a3057.32,3057.32,0,0,0-530-7c-146.07,10.77-247.79,28.83-429,61-63,11.19-325.64,58.69-679,154-122.1,32.93-224,63.21-298,86q-.5,98.52-1,197H1940Q1937.5,976.48,1935,731Z"/></g></svg>