<svg xmlns="http://www.w3.org/2000/svg" viewBox="0 0 1920 1080"><defs><style>.cls-1{fill:#5a189a;}</style></defs><g id="Layer_1" data-name="Layer 1"><g id="Trees_1" data-name="Trees 1"><path class="cls-1" d="M230.88,946.35s-1.08-15.27-.76-17.76.31-7.22.31-7.22l.68-6.37s.56-3.59.19-4.44a17.84,17.84,0,0,1-.68-3.09s-.35-6.13-.29-7.52a51.4,51.4,0,0,0-.64-5.78l-.39-3.54a15.73,15.73,0,0,1,0-2.69c.05-1.18.25-8.52-.6-7.72s-1.31,9.38-1.31,9.38a5.9,5.9,0,0,0-.21,2.49c.14,1.68.27,3.21.27,3.21l-.16,5.07.89,7.83,0,4.17-.38,8.89s-1,8.86-.83,9.7-1.36,14.29-1.36,14.29S226.25,947,230.88,946.35Z"/><path class="cls-1" d="M230.44,946.24s-1.31-13.7-1.22-15.74l1.58-17.92-.68-3.18-.38-10s-.09-4.27-.48-4.66-.73-5.23-.7-6c0,0,.07-4.63-.24-3.72a40.44,40.44,0,0,0-.31,7c.1.93.13,3.34.1,4.08a13.42,13.42,0,0,0-.14,3.34c.23.93,1.2,9.88,1,11.17a50.8,50.8,0,0,0-.08,5.18s-.93,12-1,12.94-.13,7-.35,8.15c-2,10.2-2.07,8.67.65,9.32C230.12,946.7,230.44,946.24,230.44,946.24Z"/><path class="cls-1" d="M251.56,911.62l-1.42-1.73c1.62.26-.38-1.5-.38-1.5-1.33-.8-1.66,0-1.74-.63-.15-1.26-3-2.62-2.37-2a7.91,7.91,0,0,1-.86-1.16,4.26,4.26,0,0,1-1.49-1,.5.5,0,0,0-.29-.13l-.33-1.38a7.85,7.85,0,0,0,1.48.44c.41,0,.35,1.31,1,2.08a6.09,6.09,0,0,0,.91,1l-.15-2.78s1.2.42,1.31,1.17,1.8,2.3,1.8,2.3l-1-2.64,1.45,1s.36,1.13,1.31,1.17-.61-1.69-.61-1.69A19.15,19.15,0,0,0,247,901a37,37,0,0,0-9-3.49l0-.4a3.41,3.41,0,0,0-2.05-2l-.11-.3.35-.43a2.08,2.08,0,0,1,1.07.42,5.05,5.05,0,0,1,1,1.71l1-1.81,1.19.79s-.31.92.35,1.32.87-1.26.87-1.26.5,1.13.87,2.08.23-2.22.23-2.22l.88,1.52c0,.74,1,1.16,1,1.16l-.57-2.44,1.56,1.55c1.19.8.71-.52.71-.52l1.56,1.55c2.16.46-.85-2.45-.85-2.45l-1.58-1c.81,0,1.79-.67.45-1.1a4.25,4.25,0,0,0-2.59.08c-.78-.78-5.49-2.1-5.49-2.1-.92,0-1-.88-1.53-.73,0-1-.84-1.66-1.31-2.29a4.52,4.52,0,0,1,2.08.28c.65.59,1.44,1.17,1.44,1.17l-.87-1.7.42-.36a3,3,0,0,1,1.17,1.17,3.22,3.22,0,0,0,1.86,1.19L240,888.13l1.34.43a4.32,4.32,0,0,0,1.85,1.37c.94.23-.87-1.89-.87-1.89l1.18,1c1.06.6,1-.33,1-.33l-2.34-2.33-3.63-1.08c-1.62-.44-6.36-4-6.36-4a2.58,2.58,0,0,1-.19-.72l2.39.28.76-1.82a14.79,14.79,0,0,1,1.27,1.9,1.87,1.87,0,0,0,1.47.81l-.72-2.26s.52.4,1.44,1.18a3.15,3.15,0,0,0,1.74.81l-1.43-1.72a18.23,18.23,0,0,0,2.16.46c1.49.25.85-.71.16-.55s-1.87-.82-1.87-.82a5.74,5.74,0,0,0-2.64-1.79c-1.35-.24-3.84-2.57-3.84-2.57s-2.22-3.65-2-4.94A8.67,8.67,0,0,0,230,866l-1,3.85-.72,2.21c-1.62,2-5,6-5.76,6.14-1,.23-3.57,2.35-3.57,2.35a4.15,4.15,0,0,0,1.44-.22c.62-.25,2.27-.74,2.27-.74l-1.3,1.9s3.19.91,3.21-.36c0-.84,1.25-1.52,2.09-1.88a6.85,6.85,0,0,0-.35,2.28c-1.89,2-5.12,5.22-6.35,5.55a23.85,23.85,0,0,0-4.44,2l-.91,2s.8.59,2.07-.65l1-1.08-1.47,2.54a2.35,2.35,0,0,0,1.54-.86,3.46,3.46,0,0,1,1-1.08l-.07,1.49,1.12-.69.74-1.46.79.59,1.8-1.4a.31.31,0,0,0,.19.13l-.72,1.66a4.8,4.8,0,0,0-2,.86,32.31,32.31,0,0,0-3.43,3.93,46.84,46.84,0,0,1-4.78,3.5c-1.11.51.48,1.5,1.77.08l1.69-1.41s-1.3,1.8-.76,1.82,1.72-2,1.72-2l1.95-1.21s-.93,2.56-.37,2.21a8.69,8.69,0,0,0,1.47-2.35l.84-.46c-.38,1.16-.64,2.14-.44,2.26s.52-.44.79-1.12c0,1,0,2,.34,1.42,0,0,0,0,0,0,.44.65,1.54-3.15,1.54-3.15l.42-1,.38-.24v.07c-.18.91-.31,1.82,0,1.8a.19.19,0,0,0,.1,0c0,.47.12.76.24.4a3.93,3.93,0,0,1,.88-1.45l-.19-1s0,0,0,0l.81,2.15a2.57,2.57,0,0,0,.46-1.65l.15-.48a4.35,4.35,0,0,1-.21,2.36l-1.79,1.75-3.57,1.94-2.79,1.54s2.15-.58,4.23-1.28a10.15,10.15,0,0,0-.93,1.22c-.66,1.08-5,1.73-5,1.73s-2.72,1.55-4.4,2.59a6.19,6.19,0,0,0-2.12,1.86l2.7-1,2.53-1.84-.05,1.11,2.72-1.55c-1.28,1.33-.94,2.74.36,1.13a2.16,2.16,0,0,1,1.25-.66,4.08,4.08,0,0,0-.16,1.72l-1,.34a3.53,3.53,0,0,0-.46,1.27c0,.56-1,.26-1,.26a6.41,6.41,0,0,0-2.13.54c.73-.61-1.34.68-2.55,1.37a5.83,5.83,0,0,1-1.56,1s-3.4,2.22-1.39,2.08l-.44.62s-3.28,3.56-2.19,3.61,2-1.77,2-1.77-.61,1.46.47,1.69,2.26-1.94,2.26-1.94l1.71-1.78s-1.37,3.28-.27,3.14c.92-.12.76-2,1.43-2.77.12.33.47.56,1.08.51l-1.57,1.6s-3.28,3.57-2.19,3.62,2-1.77,2-1.77-.61,1.46.47,1.69,2.26-1.94,2.26-1.94l1.71-1.78s-1.37,3.28-.27,3.14.66-2.75,1.9-3.07a11.69,11.69,0,0,0,2.64-1.18l-.14.37a.69.69,0,0,0-.51.27c-.93,1.07-1.18,3.77-.11,3.54L220,921.11s-2.26,5.46-1.56,5.5,1.35-2.73,1.35-2.73-.45,2.21.24,2.51,1.54-3,1.54-3l1.17-2.73s-1,5-.29,4.72.53-4.15,1.34-4.68a8.36,8.36,0,0,0,1.75-1.87s-.8,4.42-.32,3.33,1.63-5.22,2.07-5.2-.79,6.09,1.17,1.44c.39-.91.67-1.6.87-2.12.17.81.57.61.57.61l1.29.38s.18.7.79,3c.78,2.83,1,2.39,1.14,1.34l.24.08.46-1.32c.21.9.43,2.09.66,2.77.41,1.22.32-1.78.32-1.78s-.22-.38.4,0,.67,2.61,1.21,2.69-.16-3.61-.16-3.61l1,3.05s.76,3.89,1.26,3.27.07-3.24.07-3.24.6,3.26,1.12,3c.36-.19-.49-3.36-1-5.17a5.84,5.84,0,0,0,.73-2.22l.08,0c.85.32,1.2,3.55,1.93,3.63.39,0,.47-.8.47-1.59a4.82,4.82,0,0,0,.66-.78l.34.28s.35,3,1,2.52,0-2.55,0-2.55.88,2.58,1.57,2.38c.44-.12-.48-2.11-1.22-3.56l1.35.65a10.91,10.91,0,0,0,2,2.23c3.56,2.81,1.15-.32,1.15-.32L246.84,920l1.22-.17,1.55,2.08c3.1,2.51.9-1.23.9-1.23l-2.17-1.71-2.48-2.76a7.25,7.25,0,0,0-3.24-1.11,3,3,0,0,0-.51-.75,4.55,4.55,0,0,0-.73-1.14,10.55,10.55,0,0,0-1.35-.54c.17-1.88-1.72-2.21-1.23-1.51a4.74,4.74,0,0,0-1-1,1,1,0,0,1-.93-.88c-.1-.82-.71-.8-.71-.8l-1.39-.79c.1-.23.2-.45.29-.69l1.93-.43a22.1,22.1,0,0,0,1.8,2.45c2.58,3.26,1.26-.88,1.93-.84s2.06,2.87,2.71,3.64-.18-2.24-.18-2.24a11.29,11.29,0,0,0,2.53,1.41c1.2.42.55,3,1.63,3.22s0-3.15,0-3.15l1.54,1.92s1,2.27,2.09,2.13.62-1.64.62-1.64.73,1.89,1.82,1.93S251.56,911.62,251.56,911.62Z"/><path class="cls-1" d="M235.07,877s-2.87-.88-3.31-2.42-1.54-2.64-1.54-3.52l-.22-2.64-.92,4-1.73,1.54-3.09,4-3.3,1.54,2.64-.88-.22,1.1a13.14,13.14,0,0,1,2.08-1l1.23-1.22s.22,1.32.88.44l.22-2a2.18,2.18,0,0,0,1.39-1.19l1,1.19s-2.14.56-1.32,1.76l.88,2.2s.88.22.66-.66c0,0,.22-1.32,1.32-.22,0,0,2.21,1.54,2.21.44l.22-1.54,2.21.88,1.32-.44Z"/><path class="cls-1" d="M229.59,884s2.83.45,2.17-.65c0,0-1.1-1.54,1.33,0,0,0,3.08,2.64,4.63,2.64,0,0,3.53.44,4.41,1.54a6,6,0,0,1-2.65-.23,6,6,0,0,0-2.65-.21s-.66,1.75-2.2-.66l-1.32-1.32s-1.77,1.32-2.43,0S229.59,884,229.59,884Z"/><path class="cls-1" d="M224.48,884.22s-.19,2.74.79,1.92l1.73-2.26s2.5.63,1.32,1.14L227,886.48l-1.42,2.14s-1,1.59-.66-.45-.67-.65-.67-.65l-.44,1.1-.66-1.1s-1.32,1.76-2,.87c0,0-1.55,2.2-1.55.89l-2,.1,3.53-2.09A4.61,4.61,0,0,0,224.48,884.22Z"/><path class="cls-1" d="M224.7,903.79s2.21,0,2.65-1.76c0,0,.66-1.76.88-.66l1.11-.66s.12-2.92-1.37-1.23.26-.53.26-.53l-2,1.1.22-1.76-1.77,1.1-1.76,1.54-2.86,1.1s-3.09.66-3.75,1.32.44.66.44.66l1.76-.44s1.55-.88,1.55-.22l.28,2.1a4.74,4.74,0,0,0,1.7-1.88s1.54-2.42,1.54-1.1,1.1,0,1.1,0Z"/><path class="cls-1" d="M226.47,890.38a2.73,2.73,0,0,1-1.34,2.43c-1.4.71-1.31-.46-1.31-.46l-.88,1.11-1.1,2s-.27.69-.25-.75l-1.76,1.08L218.75,897l.22-1.75-1.76.87s2.84-4.54,4.95-4.8c0,0,.59,1.94,2,.51s-.13-.55-.13-.55v-.66l.89.23Z"/><path class="cls-1" d="M234.85,898.73s2.42-1.1,4-.44l5.29,2.2a18.65,18.65,0,0,1,3.31,1.54c.88.66,1.32.66-2.2-.22l-2.54.34-1-.78L241.2,903l-1.28-2.08-1.32.22a1,1,0,0,1-.66-1.32Z"/><path class="cls-1" d="M238.82,892.79s4.63.88,5.51,2-1.47.45-1.47.45l-1,.87H241v-1.32a4,4,0,0,0-2.2-.66l-.66.88-.89-1.09S234.38,890.84,238.82,892.79Z"/><path class="cls-1" d="M219.19,907.53l-.66.88a15.94,15.94,0,0,0-2.87.22,25.54,25.54,0,0,0-3.08,2l-2,2s-4,2.64-1.32,1.54a30.61,30.61,0,0,0,4.63-2.42l-.44,1.54,1.32-.44,1.1.66a4.21,4.21,0,0,1,2-2.2c1.42-.63.66-.22.66-.22l4.19-.66a28,28,0,0,0-4.46,2.06l-4.36,4.1s-1.1,2.42,2.2-.88l2-.66-.22,1.1s1.32-2.2,3.31-2c0,0,4-2,4.63-2.86l-.22-1.54s-.24-1.07,1.53-1c0,0-2.42-.92-3.41.35l-3,.3s-1-.3-.18-.56c0,0,1.32-2.64,3.08-2.64s-1.32,0-2.87.66Z"/><path class="cls-1" d="M236.61,913.69l1.55-1.1-2-1.32c-.22-1.1-4.41-4.84-4.41-4.84-.88,3.08.44,1.76,1.77,2.2s.22,2.64.22,2.64Z"/><path class="cls-1" d="M242.21,915.81l-1.85-2.34s-3.75-.22-4.41.66,1.77.22,3.31.88a2.52,2.52,0,0,1,1.54,2.64c0,.66-.33,2.75.5,1.15a1.52,1.52,0,0,1,1.27.61c.44.66.84-.84,1.1.22C243.67,919.63,243.61,916.61,242.21,915.81Z"/><path class="cls-1" d="M229.56,910.39s3.75,2,4.19,3.08c0,0,.22,1.76.88,1.76s2.26-.61,3.11.91l.64,5.69s-.78.2-1.11-.88-2-1.21-2-1.21l-.63.77-.44-1.54-1.29,1.11-.48-3.31a2.43,2.43,0,0,0-1.1-1.1c-.66-.22-.66-2.42-.66-2.42S228,912.37,229.56,910.39Z"/><path class="cls-1" d="M227.13,910.61l-5.29,7.26-1.55,4s1.11,0,2-1.76.22,1.54,1.32-.66l1.55-1.1a5.73,5.73,0,0,0,2-3.52l1.1-.22S228.9,907.53,227.13,910.61Z"/><path class="cls-1" d="M232.2,900.93s4.2-.44,6.62,1.54,7.94,5.94,7.94,5.94l3.75,3.74-4-2.2.83,1.12-2.37-2-2.21-.22-1.54-2s-1.33-.66-1.77.22c0,0-2,0-1.1-2l-2.87-1.1S229.56,903.13,232.2,900.93Z"/><path class="cls-1" d="M258.44,949.37s2.68-18.44,2.13-22.81-.54-12.65-.54-12.65l-1.21-11.16s-1-6.3-.33-7.79a31.4,31.4,0,0,0,1.2-5.42s.61-10.75.51-13.18,1.12-10.13,1.12-10.13L262,860a27.22,27.22,0,0,0,.06-4.72c-.09-2.06-.43-14.94,1.07-13.54s2.3,16.45,2.3,16.45a10.15,10.15,0,0,1,.36,4.36c-.23,2.94-.47,5.64-.47,5.64l.3,8.88-1.57,13.72,0,7.32.67,15.57s1.75,15.53,1.45,17,1.11,17.19,1.11,17.19S266.82,953,258.44,949.37Z"/><path class="cls-1" d="M260.24,949.37s2.07-15.89,1.92-19.46l-2.8-31.41,1.2-5.58.67-17.58s.16-7.48.85-8.16,1.28-9.16,1.22-10.46c0,0-.11-8.12.44-6.52s.7,10.7.53,12.33-.22,5.86-.17,7.16.67,4.2.26,5.84-2.13,17.32-1.79,19.58.15,9.1.15,9.1,1.63,21.06,1.7,22.68.06,12.35.62,14.27,1.6,9.36-1.72,10.16S260.24,949.37,260.24,949.37Z"/><path class="cls-1" d="M298.74,900.06,298,899c3.55.25-2.44-3.65-2.44-3.65-2.45-1.2-1.93-1.36-2.75-1.83-2.13-1.22-5.77-3.48-4.49-2.41-.74-.62-3.75-.94-3.75-.94s-1.78.53-1.82-.45a6,6,0,0,0-.81-2.24l-1.67-.58a7,7,0,0,0-.29-3,3.85,3.85,0,0,1,2.21,1.15c2.28,2.83,2.89.37.63-2l4.79,2.72-.08-1.94,4.45,3.22,4.75,1.75s-.78-1.43-3.73-3.26-7.75-4.54-7.75-4.54-7.6-1.14-8.76-3a16.47,16.47,0,0,0-1.62-2.13c3.65,1.21,7.44,2.25,7.44,2.25l-4.92-2.72-6.28-3.4-3.16-3.06a7.72,7.72,0,0,1-.38-4.14l.27.81a4.5,4.5,0,0,0,.81,2.93L270,864.7l0,0-.35,1.73a6.69,6.69,0,0,1,1.55,2.54c.22.64.35.13.43-.7a.41.41,0,0,0,.18,0c.48,0,.27-1.56-.06-3.16v-.12l.68.42.74,1.76s1.93,6.66,2.71,5.52a.73.73,0,0,0,.05-.09c.57,1,.64-.8.6-2.49.47,1.19,1,2.21,1.4,2s-.11-1.94-.78-4l1.48.8s1.59,3.51,2.57,4.12-.64-3.88-.64-3.88l3.45,2.13s2.06,3.49,3,3.45-1.34-3.2-1.34-3.2l3,2.47c2.26,2.51,5.07.76,3.11-.13s-8.42-6.14-8.42-6.14a59.32,59.32,0,0,0-6.05-6.89,8.38,8.38,0,0,0-3.54-1.49l-1.24-2.93a.5.5,0,0,0,.32-.22l3.17,2.46,1.39-1,1.31,2.54,2,1.22-.11-2.6a6.15,6.15,0,0,1,1.76,1.88,4.11,4.11,0,0,0,2.7,1.5l-2.59-4.44,1.76,1.88c2.25,2.18,3.65,1.14,3.65,1.14l-1.59-3.51a42.27,42.27,0,0,0-7.83-3.56c-2.17-.58-7.87-6.26-11.2-9.73a12.12,12.12,0,0,0-.6-4c1.46.63,3.65,1.82,3.68,3.3,0,2.22,5.66.62,5.66.62l-2.3-3.31s2.91.85,4,1.29a7.05,7.05,0,0,0,2.53.37s-4.47-3.7-6.29-4.11c-1.37-.31-7.29-7.31-10.15-10.77l-1.27-3.86-1.73-6.75s-1.87,4-1.53,6.24-3.58,8.65-3.58,8.65-4.38,4.09-6.76,4.52-4.66,3.12-4.66,3.12-2.08,1.72-3.29,1.44-2.34,1.41.28,1a32.07,32.07,0,0,0,3.8-.81l-2.51,3a5.59,5.59,0,0,0,3.06-1.43c1.62-1.37,2.55-2.06,2.55-2.06l-1.27,4a3.26,3.26,0,0,0,2.58-1.41,26,26,0,0,1,2.25-3.35l1.34,3.19,4.2-.48a3.82,3.82,0,0,1-.34,1.25s-8.36,6.21-11.2,7l-6.39,1.9-4.14,4.08s-.17,1.63,1.7.58l2.09-1.72s-3.2,3.71-1.54,3.32a7.62,7.62,0,0,0,3.25-2.42l2.37-.75-2,4a5.61,5.61,0,0,0,3.27-2.09,5.38,5.38,0,0,1,2.07-2l.75.62-1.55,3s1.39-1,2.54-2.05c.42-.38,1.93-.5,3.67-.5-.84,1.11-2.39,2.21-2.32,4-1-.26-1.06,1.23-2.7,1.3,0,0-8.29,2.3-9.67,3.66a7.43,7.43,0,0,0-4.56-.13c-2.36.76-.63,2,.81,1.92l-2.81,1.75s-5.29,5.1-1.49,4.29l2.76-2.72s-.86,2.31,1.24.92l2.76-2.72-1,4.27s1.89-.73,1.83-2l1.57-2.67s-.24,5.54.41,3.89,1.52-3.65,1.52-3.65.36,2.92,1.53,2.21.62-2.3.62-2.3l2.1-1.39,1.81,3.18a8.77,8.77,0,0,1,1.79-3,3.76,3.76,0,0,1,1.89-.73l.6.74-.17.52a5.94,5.94,0,0,0-3.64,3.6l.06.69c-9.43,2.57-14.4,5.23-15.89,6.12-2.33,1.4-5.76,5.45-5.76,5.45s-2.74,3-1.07,3,2.31-2.05,2.31-2.05L229,882.9l-1.72,4.63s3-2.73,3.18-4,2.31-2,2.31-2l-.27,4.89a12.12,12.12,0,0,0,1.6-1.7c1.15-1.35,1.05-3.62,1.76-3.65a13.78,13.78,0,0,0,2.61-.76l-.58,2.42a.84.84,0,0,0-.5.23,7.86,7.86,0,0,1-2.63,1.74,14.28,14.28,0,0,1-1.53,2c1.19-1.17-3.9,1.23-4.16,3.43-.14,1.15-.74-.29-3.08,1.11,0,0-3.51,3.08-.66,2.63l-2.51,3s-5.22,6.73-3.3,6.65,3.21-3.39,3.21-3.39-.85,2.63,1.08,2.88,3.67-3.73,3.67-3.73l2.71-3.35v0c-.16.52-1.79,5.86,0,5.47s.75-4.91,2.88-5.65a20.45,20.45,0,0,0,4.45-2.46s-1.46,5.26-.31,3.91,3.56-6.33,4.75-6.38-1.12,7.2,3.42,1.47a34.87,34.87,0,0,0,3.16-4.29l3.4.76.51,1.2-2.44,1.4s-.59-.18-.78,1.25a1.61,1.61,0,0,1-1.33,1.54,6.87,6.87,0,0,1-.88,2c.88-1.24-2.76,1.66-3.73,2.45a18.2,18.2,0,0,0-2.55,1,6.54,6.54,0,0,0-1.38,2.4l-1.4,1a12.39,12.39,0,0,0-5.11,1.87l-4.38,4.84-3.81,3s-3.88,6.56,1.57,2.16l2.75-3.66,2.14.31-3.36,3.65s-4.26,5.49,2,.56a18.81,18.81,0,0,0,3.47-3.9l2.38-1.14c-1.3,2.54-2.92,6-2.15,6.24,1.22.35,2.77-4.16,2.77-4.16s-1.12,3.64,0,4.46,1.78-4.42,1.78-4.42l.59-.48a9.5,9.5,0,0,0,1.18,1.35c0,1.39.14,2.86.83,2.79,1.28-.14,1.9-5.79,3.4-6.36a.52.52,0,0,1,.13-.06,10.57,10.57,0,0,0,1.28,3.89c-.92,3.17-2.43,8.7-1.78,9,.91.46,2-5.24,2-5.24s-.74,4.61.13,5.68,2.23-5.73,2.23-5.73l1.73-5.36s-1.23,6.48-.28,6.33,1-4,2.13-4.72.72,0,.72,0-.16,5.25.56,3.12c.4-1.19.79-3.29,1.16-4.86l.82,2.32.41-.14c.2,1.84.63,2.61,2-2.36,1.09-3.95,1.39-5.18,1.39-5.18l2.28-.67s.7.36,1-1.06c.37.91.86,2.12,1.54,3.72,3.45,8.14,1.29-2.5,2.06-2.53s2.79,7.19,3.65,9.11-.57-5.83-.57-5.83a14.85,14.85,0,0,0,3.09,3.28c1.43.91,1.11,7.75,2.37,8.19s-.52-8.27-.52-8.27l2.07,4.79s1.49,5.78,2.7,5.24.43-4.4.43-4.4,1.14,4.83,2.37,4.77-2.73-9.63-2.73-9.63l-1.89-4.31c1.87.41,1.44-4.33-.2-6.21a1.24,1.24,0,0,0-.9-.47l-.24-.66a20.48,20.48,0,0,0,4.65,2.08c2.18.56,1.42,5.14,3.35,5.38s-.48-5.51-.48-5.51l3,3.12s2.08,3.82,4,3.41.84-3,.84-3,1.57,3.18,3.49,3.1-3.87-6.33-3.87-6.33l-2.76-2.81c1.08.07,1.68-.32,1.89-.91,1.19,1.36.9,4.66,2.53,4.86,1.93.24-.47-5.5-.47-5.5l3,3.12s2.08,3.81,4,3.4.83-3,.83-3,1.58,3.18,3.49,3.1S298.74,900.06,298.74,900.06Z"/><path class="cls-1" d="M257.44,845.45,251.27,849a65.06,65.06,0,0,1-6.18,2.94S239.8,854,241.86,854L239,855.49s-.42,1.1.76.51l2.94-1.76h1.76s-2.64,2.35-1.17,2.06a8.34,8.34,0,0,0,2.94-1.47l1.47-.29-.52,1.57,1.69-.69,2.94-.59,1.77-2.05-2.35-.3s-.89-1.46,1.76-2.34S260.09,844,257.44,845.45Z"/><path class="cls-1" d="M258.91,836.06a10.68,10.68,0,0,0,2.65-3.52c.88-2,2.35,1.76,2.35,1.76s3.5,2.08,1.75-.72l4.43,3.65-6.47-7.33a41.33,41.33,0,0,1-1.77-5c-.29-1.47,0-4.11-1.76.29l-3.53,7-2.35,2.34s-3.83,1.76-5.3,2.35-4.11,3.23-4.11,3.23-.3,2.34,1.47.29,2.64-1.76,2.64-1.76l1.18.29,2.35-1.46,4.12-1.18s-1.18,2.35,0,1.76A8.76,8.76,0,0,0,258.91,836.06Z"/><path class="cls-1" d="M261.38,846s.18,2.93,2.53,3.52-.29-2.23-.29-2.23l2.43.87s4.84,2.71,3.41,1.15-3-3.76-3-3.76-3.34-2.15-1.89-.41-3.42-.34-3.42-.34Z"/><path class="cls-1" d="M270.67,850.43S276,854,278,854.54s6.18,2.34,6.77,3.22,1.67,1.68-.3.88-2.94-1.17-2.94-1.17l1.47,2.35-2.94-2.64-.59,1.76L278,856.3l-2.35.88-2.94-2.64-6.47-2.64.3-1.47S271.26,854.24,270.67,850.43Z"/><path class="cls-1" d="M264.37,858.85s-5.28.55-4.86-.91l-.76,2-1.77-.73-2.07.73s0,1.66.59.92l1.77.19a3.14,3.14,0,0,0-2.36,1.46c-.59,1.29,1.18,0,1.18,0l-1.18,1.84s-.59,1.29,1.48-.37.59,1.47.59,1.47.59,1.1,1.18-.18,1.77-.92,3-.18,2.66,4,2.36,1.65l-1.25-2.37S265,866,265,866.75s1.77-.37-.59-2.57c0,0,2.07-.56.29-1.66l-1-1.14,1.56.59s.14-.5-1.47-1.28l-.6-1.11S266.51,860.75,264.37,858.85Z"/><path class="cls-1" d="M252.15,862.16l-3.83,3.23-1.76-.88s-2.65,2.93-2.94,1.76,4.41-4.11,4.41-4.11Z"/><path class="cls-1" d="M242.74,864.22l-3.82,2.34-1.77,2.05-.88-1.17L233,870.08s-2.95,0,0-2.05S242.74,864.22,242.74,864.22Z"/><path class="cls-1" d="M236.86,866.27s-5.59-1.17-2.65.58Z"/><path class="cls-1" d="M246.27,873.6s-7.94,1.46-8.82,2.34-5.3,2.35-2.36,2.35h5.59l10-5Z"/><path class="cls-1" d="M251.85,873.6,238,883.86s-2.64.88-3.23,2.06-3.53,1.17-3.83,2.64l-.88,2.34a5.46,5.46,0,0,0-3.53,1.47l-.58,2-3.83,4.4s0,.88,2.36-.88c0,0-1.47,5.28,2.35-.29l3.23-3.23s-.29,4.11.59,2.35l1.47-2.35,4.71-2,1.47-.59.29,1.17,2.35-3.51,1.47-6.16s2.06-1.76,3.53-1.47,1.18-2,1.18-2,7.35-2.35,3.82-2.64l-2.35.29S255.38,871.25,251.85,873.6Z"/><path class="cls-1" d="M260,873.82l-3.88,2.63s-1.82.89.21,1,.64.17.64.17l-.76,1.16s-3.5,2-2.32,1.9,1.33.12,1.33.12l-1.68,2.06s-1.68,2.06-.39,1.49l-.93,1.8s-.44,1.71,1,.5l2.11-2L253.7,889s-.44,1.7,1.08-.63,1.53-3.24,1.53-3.24l-.21,5.17s.84,1.14,1.3-1.48l.56-3s1.68-1.15,1.81.93,1.21,2.36.82-1.38l-.35-2.14s2.79,4.14,1.76.23c0,0,.8.44,0-2.72a2.24,2.24,0,0,0,1.15-2.65l-.54-1.83s-2.2,2.7-2.44.14l2.06-2.64s-1.61.94-.78-1.35c0,0-2.8,1.1-2.52,0l-1.72,1.37S257.06,875.34,260,873.82Z"/><path class="cls-1" d="M266.85,877s7.06,1.1,8.6,2.42,3.53,4.4,3.53,6.16c0,0-1.13,1.57-1.23.46l-1.2,2.18a6.72,6.72,0,0,1-1.1-2c-.22-.88-2.2.88-2.2.88s-1.11,0,0-2.42-.65-1.31-1.55,0-1.1.22-.44-1.32a1.33,1.33,0,0,0-.66-2s-2.21,2.64-1.76,1.1a5.81,5.81,0,0,1,.65-1.76s-.21-1.76-1.54-2.2A1.39,1.39,0,0,1,266.85,877Z"/><path class="cls-1" d="M267.07,873.23s2.65,1.32,2.87,2.2-1.1.66-1.1.66Z"/><path class="cls-1" d="M271.26,874.33s3.75.22-.22-1.32-2,0-2,0Z"/><path class="cls-1" d="M262.57,895.11s-8.95.56-11.16,3.42-5.29,12.75-5.29,12.75l-.66,5.28s.66,2.86,1.1-.43c0,0,2.35-5.1,3.16-3.87,0,0,.76,2.06,1.78-1.22s-.31.47-.31.47l.88.66s.45,3.73,1.55-1.33l2,1.33-.22-6.82s.89-7.26,1.33-5.72c0,0,.65,5.06,1.32,3.52a11,11,0,0,0,.44-4.18s2.65,2.42,2.87-.22l-.89-1.1,2.43-.44-.66-.88Z"/><path class="cls-1" d="M230.39,908.79s2.57-4.4,4.41-4.69,4.61.34,5.21-1.41a3.69,3.69,0,0,1,2.73-2.7,23.93,23.93,0,0,0,4.41-3.22s2.35-3.52,1.76-.59c0,0-.88,4.11-2.64,5s-2.06,0-2.06,0l-1.18,4.1s-1.47.88-1.17-.88-1.77,4.11-1.77,4.11-2.06-.3-1.47-2-2.65,2.93-2.65,2.93l-2.64.58a14.57,14.57,0,0,1,1.17-2.63c.59-.88-2.1,2-3.82,2.93s-3.53,1.17-4.7,2.93C226,913.19,228,910,230.39,908.79Z"/><path class="cls-1" d="M268.61,891.71s13,6.16,15.66,8.36,6.84,5.94,6.84,5.94.22.88-2.2-.88c0,0,2.64,2.86,1.1,3.3a22,22,0,0,0-4.41-4.4c-3.09-2.42-3.75-1.32-3.75-1.32l.44,2.42a11.64,11.64,0,0,0-3.75-4.4s.44-1.32-1.54-2.42S268.61,891.71,268.61,891.71Z"/><path class="cls-1" d="M279.86,892.59s7.94-1.1,12.35,1.76l6.4,6.82,2.86,3.3s0,.22-2.42-2l-1.32-.66s.66,3.08,0,2a19.87,19.87,0,0,1-3.31-4.62c-1.33-2.64-2.65-2.2-2.65-2.2h-2.2s2,3.52,1.76,4.62S290,899,290,899l-2.21-2.86-4.41-.88-1.1-1.32s-5.05-1.26-6.17-2.39Z"/><path class="cls-1" d="M279.64,881.15s5.29,0,6.18.66l2.86,1.76-2.2-.44-.22.88L283,882.47s-1.1,0-.44,1.1l-1.33-.44-2.86-2.42-.88-.88Z"/><path class="cls-1" d="M267.73,901.17s.66,4.62,1.55,5.28,4.41,3.74,4,2.42a33.89,33.89,0,0,0-1.77-3.74Z"/><path class="cls-1" d="M274.57,909.75s-.44,3.52.88,4.83a12.59,12.59,0,0,1,2.21,4.18s1.1-.22.66-2Z"/><path class="cls-1" d="M661.5,920.77s-1-15.27-.74-17.77.3-7.22.3-7.22l.66-6.37s.55-3.59.19-4.44a18.81,18.81,0,0,1-.67-3.1s-.34-6.13-.28-7.52a52.51,52.51,0,0,0-.62-5.78L660,865a15.82,15.82,0,0,1,0-2.7c.05-1.17.25-8.52-.58-7.72s-1.27,9.38-1.27,9.38a6.15,6.15,0,0,0-.21,2.5c.13,1.67.27,3.21.27,3.21l-.17,5.07.87,7.83,0,4.18-.37,8.89s-1,8.86-.81,9.7-1.32,14.3-1.32,14.3S657,921.43,661.5,920.77Z"/><path class="cls-1" d="M661.07,920.66s-1.28-13.71-1.19-15.75L661.42,887l-.66-3.18-.37-10s-.09-4.28-.47-4.66-.71-5.23-.68-6c0,0,.07-4.64-.24-3.72a42.33,42.33,0,0,0-.29,7c.09.93.12,3.35.09,4.09a14.45,14.45,0,0,0-.14,3.34,93.16,93.16,0,0,1,1,11.17,51,51,0,0,0-.08,5.19s-.9,12-.94,13-.13,7-.34,8.15c-1.94,10.2-2,8.67.63,9.32C660.76,921.12,661.07,920.66,661.07,920.66Z"/><path class="cls-1" d="M681.62,886l-1.38-1.73c1.57.25-.37-1.5-.37-1.5-1.29-.8-1.62,0-1.7-.64-.14-1.25-2.95-2.62-2.3-1.95a8,8,0,0,1-.84-1.16,4.18,4.18,0,0,1-1.45-1,.47.47,0,0,0-.28-.13l-.32-1.38a7.46,7.46,0,0,0,1.44.44c.4,0,.34,1.31,1,2.08a7,7,0,0,0,.89,1l-.15-2.79s1.17.42,1.27,1.17,1.76,2.3,1.76,2.3l-.95-2.64,1.42,1s.35,1.13,1.27,1.18-.59-1.7-.59-1.7a18.81,18.81,0,0,0-3.18-3.11,35.51,35.51,0,0,0-8.77-3.49l0-.4a3.36,3.36,0,0,0-2-2l-.1-.31.33-.42a2,2,0,0,1,1,.42,4.9,4.9,0,0,1,1,1.71l1-1.81,1.16.79s-.3.92.34,1.32S672,870,672,870s.48,1.13.84,2.07.22-2.21.22-2.21l.87,1.52c0,.74,1,1.16,1,1.16l-.56-2.44,1.52,1.55c1.16.8.68-.52.68-.52l1.53,1.55c2.1.46-.83-2.45-.83-2.45l-1.54-1c.79,0,1.75-.66.44-1.09a4,4,0,0,0-2.52.07c-.76-.77-5.34-2.09-5.34-2.09-.9,0-.94-.88-1.49-.74,0-1-.81-1.65-1.28-2.29a4.29,4.29,0,0,1,2,.28c.63.59,1.4,1.18,1.4,1.18l-.85-1.71.41-.35a3,3,0,0,1,1.14,1.16,3.1,3.1,0,0,0,1.81,1.2l-1.1-2.28,1.31.43a4.27,4.27,0,0,0,1.79,1.38c.92.23-.84-1.89-.84-1.89l1.14,1c1,.6.94-.33.94-.33l-2.28-2.33-3.53-1.09c-1.57-.44-6.19-4-6.19-4a2.43,2.43,0,0,1-.18-.72l2.32.28.74-1.82a14.31,14.31,0,0,1,1.24,1.91,1.81,1.81,0,0,0,1.43.8l-.7-2.26s.51.4,1.4,1.18a3.09,3.09,0,0,0,1.69.82l-1.38-1.73a17.21,17.21,0,0,0,2.1.46c1.44.25.82-.71.15-.55s-1.82-.82-1.82-.82a5.62,5.62,0,0,0-2.57-1.79c-1.32-.24-3.73-2.57-3.73-2.57s-2.17-3.65-2-4.94a8.75,8.75,0,0,0-.85-3.56l-1,3.85-.71,2.2c-1.57,2-4.84,6-5.6,6.15-1,.23-3.47,2.35-3.47,2.35a3.93,3.93,0,0,0,1.4-.22c.61-.25,2.21-.73,2.21-.73l-1.27,1.89s3.11.91,3.13-.36c0-.84,1.22-1.52,2-1.88a7,7,0,0,0-.33,2.28c-1.84,2-5,5.23-6.19,5.56a22.33,22.33,0,0,0-4.32,2l-.88,2s.77.59,2-.65l1-1.07-1.43,2.53a2.22,2.22,0,0,0,1.49-.86,3.49,3.49,0,0,1,1-1.07l-.06,1.48,1.09-.69.72-1.45.77.59,1.75-1.4a.31.31,0,0,0,.18.12l-.69,1.67a4.5,4.5,0,0,0-1.95.85,33,33,0,0,0-3.34,3.94,45.64,45.64,0,0,1-4.65,3.5c-1.08.51.46,1.5,1.72.08l1.64-1.42s-1.26,1.81-.73,1.83,1.67-2,1.67-2l1.9-1.21s-.9,2.55-.36,2.21a8.77,8.77,0,0,0,1.42-2.35l.82-.46c-.37,1.15-.62,2.14-.43,2.26s.51-.44.77-1.13c0,1,0,2,.33,1.42l0,.06c.43.65,1.5-3.15,1.5-3.15l.41-1,.37-.24V868c-.18.91-.3,1.82,0,1.8l.1,0c0,.47.11.76.24.39a3.81,3.81,0,0,1,.85-1.44l-.19-1a0,0,0,0,0,0,0l.8,2.16a2.64,2.64,0,0,0,.44-1.66l.15-.47a4.55,4.55,0,0,1-.21,2.36L655,871.83l-3.48,1.94-2.71,1.54s2.09-.58,4.11-1.28a9.58,9.58,0,0,0-.89,1.22c-.65,1.08-4.84,1.73-4.84,1.73s-2.65,1.55-4.28,2.59a6,6,0,0,0-2.06,1.86l2.62-1,2.46-1.84,0,1.12,2.65-1.56c-1.25,1.34-.91,2.75.35,1.13a2.07,2.07,0,0,1,1.22-.66,4.12,4.12,0,0,0-.16,1.73l-.92.33a3.39,3.39,0,0,0-.45,1.28c0,.55-1,.25-1,.25a6.35,6.35,0,0,0-2.07.54c.71-.61-1.3.68-2.48,1.38a5.71,5.71,0,0,1-1.52,1s-3.3,2.23-1.35,2.08l-.42.62s-3.2,3.57-2.14,3.62,1.93-1.77,1.93-1.77-.59,1.46.46,1.69,2.19-1.94,2.19-1.94l1.67-1.79s-1.33,3.28-.27,3.15c.9-.12.75-2,1.4-2.78.12.34.45.56,1.05.52l-1.52,1.6s-3.2,3.57-2.14,3.62,1.93-1.77,1.93-1.77-.6,1.46.46,1.69,2.19-2,2.19-2l1.67-1.78s-1.33,3.28-.27,3.15.65-2.76,1.85-3.07a11,11,0,0,0,2.57-1.19s-.06.15-.13.37a.68.68,0,0,0-.5.27c-.9,1.08-1.15,3.78-.11,3.55l-1,2.46s-2.2,5.46-1.52,5.5,1.31-2.73,1.31-2.73-.43,2.21.24,2.52,1.5-3,1.5-3l1.14-2.73s-1,5-.29,4.72.52-4.15,1.31-4.68a8.45,8.45,0,0,0,1.7-1.87s-.78,4.42-.31,3.33,1.59-5.22,2-5.2-.77,6.09,1.13,1.44c.38-.91.65-1.6.85-2.12.17.81.56.61.56.61l1.25.38s.17.7.77,2.95c.76,2.84,1,2.4,1.11,1.35l.23.08.45-1.32c.2.9.42,2.09.64,2.77.39,1.22.31-1.78.31-1.78s-.21-.38.39,0,.66,2.61,1.18,2.69-.15-3.62-.15-3.62l1,3.06s.75,3.89,1.23,3.28.07-3.25.07-3.25.58,3.26,1.09,3c.35-.19-.48-3.36-1-5.17a5.86,5.86,0,0,0,.71-2.22l.08.05c.82.32,1.17,3.55,1.87,3.63.38,0,.46-.8.46-1.59a5.36,5.36,0,0,0,.65-.78l.33.28s.34,3,1,2.52,0-2.55,0-2.55.85,2.58,1.53,2.38c.42-.12-.47-2.12-1.19-3.56l1.31.64a10.86,10.86,0,0,0,1.92,2.24c3.46,2.81,1.11-.32,1.11-.32L677,894.38l1.18-.17,1.52,2.08c3,2.51.87-1.23.87-1.23l-2.11-1.71-2.42-2.77a7.13,7.13,0,0,0-3.15-1.11,3.14,3.14,0,0,0-.49-.74,4.87,4.87,0,0,0-.71-1.15,11.72,11.72,0,0,0-1.32-.53c.17-1.88-1.67-2.22-1.19-1.52a5.15,5.15,0,0,0-1-1,1,1,0,0,1-.9-.88c-.1-.81-.69-.79-.69-.79l-1.35-.8c.09-.23.19-.45.28-.69l1.88-.43a20.74,20.74,0,0,0,1.74,2.45c2.51,3.27,1.23-.87,1.89-.84s2,2.87,2.63,3.64-.17-2.23-.17-2.23a11.34,11.34,0,0,0,2.45,1.41c1.18.42.54,3,1.59,3.22s0-3.16,0-3.16l1.51,1.93s1,2.26,2,2.13.6-1.64.6-1.64.72,1.88,1.78,1.93S681.62,886,681.62,886Z"/><path class="cls-1" d="M665.58,851.35s-2.79-.88-3.22-2.42-1.51-2.64-1.51-3.53l-.21-2.64-.89,4-1.68,1.53-3,4-3.22,1.54,2.58-.88-.22,1.1a12.5,12.5,0,0,1,2-1l1.19-1.22s.22,1.32.86.44l.21-2a2.11,2.11,0,0,0,1.35-1.19l1,1.19s-2.07.56-1.28,1.76l.86,2.2s.85.22.64-.66c0,0,.21-1.32,1.29-.22,0,0,2.14,1.54,2.14.44l.22-1.54,2.14.88,1.29-.44Z"/><path class="cls-1" d="M660.24,858.38s2.76.45,2.12-.65c0,0-1.08-1.54,1.28,0,0,0,3,2.64,4.51,2.64,0,0,3.44.44,4.29,1.54a5.74,5.74,0,0,1-2.57-.22,5.79,5.79,0,0,0-2.58-.22s-.64,1.76-2.14-.66l-1.29-1.32s-1.72,1.32-2.36,0S660.24,858.38,660.24,858.38Z"/><path class="cls-1" d="M655.27,858.61s-.19,2.74.77,1.92l1.69-2.26s2.43.63,1.27,1.15l-1.26,1.46L656.35,863s-1,1.6-.65-.44-.64-.66-.64-.66l-.43,1.1-.64-1.1s-1.29,1.76-1.93.88c0,0-1.5,2.2-1.5.88l-1.93.11,3.43-2.09A4.5,4.5,0,0,0,655.27,858.61Z"/><path class="cls-1" d="M655.49,878.19s2.15,0,2.58-1.75c0,0,.64-1.77.85-.67l1.08-.66s.12-2.92-1.34-1.23.26-.53.26-.53l-1.93,1.1.22-1.76-1.72,1.1-1.72,1.54L651,876.44s-3,.65-3.65,1.31.43.66.43.66l1.71-.44s1.51-.88,1.51-.22l.27,2.1a4.63,4.63,0,0,0,1.65-1.88s1.51-2.42,1.51-1.09,1.07,0,1.07,0Z"/><path class="cls-1" d="M657.21,864.77a2.77,2.77,0,0,1-1.3,2.44c-1.37.71-1.28-.46-1.28-.46l-.86,1.1-1.07,2s-.26.69-.24-.75l-1.72,1.08-1,1.21.21-1.76-1.72.88S651,866,653,865.69c0,0,.58,1.94,2,.51s-.12-.55-.12-.55V865l.85.22Z"/><path class="cls-1" d="M665.36,873.13s2.36-1.1,3.86-.44l5.15,2.2a17.58,17.58,0,0,1,3.22,1.55c.86.65,1.29.65-2.14-.23l-2.47.34-1-.78-.47,1.64-1.24-2.08-1.29.22a1,1,0,0,1-.65-1.32Z"/><path class="cls-1" d="M669.22,867.19s4.51.88,5.37,2-1.43.45-1.43.45l-.93.87h-.86v-1.32a3.8,3.8,0,0,0-2.15-.66l-.64.88-.86-1.1S664.91,865.24,669.22,867.19Z"/><path class="cls-1" d="M650.12,881.94l-.64.88a15.76,15.76,0,0,0-2.79.21,25.05,25.05,0,0,0-3,2l-1.93,2s-3.86,2.64-1.29,1.54a28.76,28.76,0,0,0,4.5-2.43l-.42,1.55,1.28-.44,1.08.66a4.17,4.17,0,0,1,1.93-2.21c1.38-.62.64-.21.64-.21l4.08-.67a26.23,26.23,0,0,0-4.34,2.07L645,891s-1.07,2.43,2.15-.88l1.93-.65-.21,1.09s1.28-2.19,3.22-2c0,0,3.86-2,4.5-2.87l-.21-1.53s-.23-1.07,1.49-1c0,0-2.35-.92-3.31.36l-2.93.29s-.94-.3-.19-.56c0,0,1.29-2.64,3-2.64s-1.29,0-2.79.66Z"/><path class="cls-1" d="M667.08,888.1l1.5-1.1-1.93-1.33c-.22-1.09-4.29-4.84-4.29-4.84-.86,3.08.43,1.77,1.71,2.2s.22,2.64.22,2.64Z"/><path class="cls-1" d="M672.52,890.22l-1.79-2.34s-3.65-.22-4.3.66,1.72.22,3.22.88a2.53,2.53,0,0,1,1.5,2.64c0,.66-.32,2.75.49,1.15a1.45,1.45,0,0,1,1.23.61c.43.66.82-.84,1.07.22C673.94,894,673.88,891,672.52,890.22Z"/><path class="cls-1" d="M660.21,884.79s3.65,2,4.08,3.09c0,0,.21,1.76.86,1.76s2.19-.62,3,.9l.61,5.7s-.75.2-1.07-.88-2-1.22-2-1.22l-.61.78-.43-1.54-1.26,1.11-.46-3.31a2.47,2.47,0,0,0-1.07-1.11c-.65-.21-.65-2.41-.65-2.41S658.71,886.78,660.21,884.79Z"/><path class="cls-1" d="M657.85,885l-5.15,7.27-1.5,4s1.07,0,1.93-1.76.21,1.54,1.29-.66l1.5-1.1a5.76,5.76,0,0,0,1.93-3.53l1.07-.21S659.57,881.94,657.85,885Z"/><path class="cls-1" d="M662.79,875.33s4.07-.44,6.43,1.55,7.73,5.94,7.73,5.94l3.65,3.74-3.87-2.21.81,1.12-2.31-2-2.14-.22-1.5-2s-1.29-.66-1.72.22c0,0-1.93,0-1.08-2l-2.78-1.1S660.21,877.53,662.79,875.33Z"/><path class="cls-1" d="M625.25,914.74s2.54-17.5,2-21.64-.52-12-.52-12l-1.14-10.6s-.94-6-.32-7.38a29.94,29.94,0,0,0,1.15-5.14s.58-10.2.48-12.51,1.06-9.61,1.06-9.61l.65-5.89a26.14,26.14,0,0,0,.07-4.47c-.09-2-.42-14.17,1-12.84s2.19,15.59,2.19,15.59a9.7,9.7,0,0,1,.34,4.15c-.22,2.79-.45,5.34-.45,5.34l.29,8.43-1.49,13,0,6.94.64,14.78s1.66,14.73,1.38,16.13,1.05,16.3,1.05,16.3S633.2,918.13,625.25,914.74Z"/><path class="cls-1" d="M627,914.74s2-15.08,1.82-18.46l-2.65-29.81,1.14-5.29.64-16.68s.15-7.1.8-7.75,1.21-8.68,1.16-9.91c0,0-.1-7.71.42-6.19s.66,10.15.5,11.7-.21,5.56-.16,6.79.63,4,.24,5.54-2,16.43-1.69,18.58.14,8.63.14,8.63,1.55,20,1.61,21.52.06,11.71.59,13.54,1.52,8.88-1.63,9.63S627,914.74,627,914.74Z"/><path class="cls-1" d="M663.49,868l-.74-1c3.36.24-2.32-3.46-2.32-3.46-2.33-1.14-1.83-1.3-2.61-1.74-2-1.15-5.48-3.3-4.26-2.29-.7-.58-3.56-.88-3.56-.88s-1.69.49-1.72-.43a5.8,5.8,0,0,0-.78-2.13l-1.58-.55a6.56,6.56,0,0,0-.28-2.87,3.66,3.66,0,0,1,2.1,1.1c2.17,2.68,2.74.34.6-1.88l4.55,2.58-.08-1.84,4.23,3.05,4.5,1.66a10.18,10.18,0,0,0-3.54-3.09c-2.81-1.73-7.36-4.31-7.36-4.31s-7.21-1.08-8.31-2.88a17.35,17.35,0,0,0-1.53-2c3.47,1.16,7.05,2.14,7.05,2.14l-4.66-2.58-6-3.23-3-2.9a7.27,7.27,0,0,1-.35-3.92c.08.26.16.52.25.77a4.31,4.31,0,0,0,.76,2.77l1.37-3.58,0,0L636,836.1a6.31,6.31,0,0,1,1.47,2.4c.21.61.33.12.41-.66a.34.34,0,0,0,.17,0c.46,0,.25-1.49-.06-3v-.11l.64.4.71,1.66s1.83,6.33,2.57,5.25l0-.1c.53.94.61-.76.57-2.36.44,1.13.95,2.1,1.32,1.87s-.1-1.84-.73-3.76l1.4.76s1.51,3.33,2.44,3.91-.61-3.68-.61-3.68l3.27,2s2,3.31,2.87,3.27-1.27-3-1.27-3l2.83,2.35c2.15,2.37,4.81.71,3-.13s-8-5.83-8-5.83a55.92,55.92,0,0,0-5.74-6.53,8,8,0,0,0-3.36-1.42l-1.18-2.77a.53.53,0,0,0,.31-.21l3,2.33,1.32-1,1.25,2.41,1.86,1.16-.1-2.47a5.86,5.86,0,0,1,1.67,1.78,3.9,3.9,0,0,0,2.56,1.43l-2.46-4.21,1.67,1.78c2.14,2.07,3.46,1.08,3.46,1.08l-1.51-3.32a39.81,39.81,0,0,0-7.42-3.39c-2.06-.54-7.47-5.93-10.63-9.22a11.2,11.2,0,0,0-.56-3.8c1.38.6,3.46,1.72,3.48,3.13,0,2.11,5.37.59,5.37.59l-2.18-3.15s2.76.81,3.81,1.23a6.73,6.73,0,0,0,2.4.36s-4.25-3.52-6-3.91c-1.3-.29-6.91-6.94-9.62-10.21l-1.21-3.66L627.54,789s-1.77,3.78-1.44,5.92-3.4,8.2-3.4,8.2-4.16,3.89-6.41,4.29-4.42,3-4.42,3-2,1.62-3.13,1.37-2.22,1.33.27.91a30.9,30.9,0,0,0,3.6-.77l-2.38,2.88a5.3,5.3,0,0,0,2.9-1.36c1.54-1.3,2.42-2,2.42-2l-1.2,3.76a3.09,3.09,0,0,0,2.44-1.34,25.1,25.1,0,0,1,2.14-3.18l1.27,3,4-.46a3.91,3.91,0,0,1-.31,1.19s-7.93,5.89-10.63,6.62l-6.06,1.81-3.93,3.87s-.16,1.55,1.61.55l2-1.63s-3,3.52-1.45,3.15a7.25,7.25,0,0,0,3.08-2.3l2.24-.71-1.88,3.78a5.33,5.33,0,0,0,3.1-2,5.08,5.08,0,0,1,2-1.94l.71.59-1.47,2.84s1.32-1,2.42-2c.4-.35,1.82-.46,3.48-.46-.8,1.05-2.28,2.09-2.2,3.8-1-.24-1,1.16-2.56,1.23,0,0-7.87,2.19-9.18,3.48a7,7,0,0,0-4.32-.13c-2.25.72-.6,1.88.76,1.82l-2.66,1.66s-5,4.84-1.42,4.07l2.62-2.58s-.81,2.19,1.18.88l2.61-2.58-1,4s1.79-.7,1.74-1.93l1.48-2.53s-.23,5.25.39,3.68,1.44-3.45,1.44-3.45.35,2.76,1.45,2.09.59-2.18.59-2.18l2-1.32,1.73,3a8.33,8.33,0,0,1,1.69-2.85,3.59,3.59,0,0,1,1.79-.69l.57.7-.16.5a5.6,5.6,0,0,0-3.45,3.41l.05.65c-8.94,2.44-13.66,5-15.07,5.81-2.21,1.33-5.46,5.17-5.46,5.17s-2.6,2.89-1,2.82,2.19-1.95,2.19-1.95l2.44-1.64-1.63,4.38s2.84-2.58,3-3.82,2.18-2,2.18-2l-.25,4.64a11.92,11.92,0,0,0,1.52-1.61c1.09-1.28,1-3.44,1.67-3.47a13.19,13.19,0,0,0,2.47-.72l-.55,2.29a.81.81,0,0,0-.47.22,7.4,7.4,0,0,1-2.49,1.65,13.52,13.52,0,0,1-1.45,1.91c1.12-1.1-3.71,1.17-4,3.26-.13,1.09-.69-.28-2.91,1,0,0-3.34,2.92-.63,2.49l-2.38,2.88s-4.95,6.39-3.14,6.31,3.05-3.22,3.05-3.22-.8,2.5,1,2.73,3.48-3.54,3.48-3.54l2.57-3.17v0c-.16.5-1.7,5.56,0,5.2s.71-4.66,2.73-5.37a19.37,19.37,0,0,0,4.22-2.33s-1.38,5-.3,3.71,3.38-6,4.52-6.06-1.07,6.84,3.24,1.41a31.67,31.67,0,0,0,3-4.08l3.22.73c.16.38.32.76.49,1.14l-2.32,1.32s-.56-.17-.74,1.19a1.52,1.52,0,0,1-1.26,1.45,6.66,6.66,0,0,1-.83,1.88c.83-1.17-2.62,1.58-3.55,2.33a18,18,0,0,0-2.41.94,6.33,6.33,0,0,0-1.32,2.27c-.47.35-.92.67-1.32.94a12,12,0,0,0-4.85,1.78l-4.15,4.59-3.62,2.84s-3.68,6.23,1.49,2.05l2.61-3.46,2,.29-3.19,3.46s-4,5.21,1.92.54a17.66,17.66,0,0,0,3.29-3.71l2.26-1.08c-1.23,2.41-2.77,5.72-2,5.93,1.15.32,2.63-4,2.63-4s-1.06,3.46,0,4.23,1.68-4.19,1.68-4.19l.56-.45a9.78,9.78,0,0,0,1.13,1.28c0,1.32.13,2.72.78,2.65,1.21-.13,1.8-5.5,3.22-6l.13-.06a10,10,0,0,0,1.21,3.69c-.87,3-2.3,8.26-1.68,8.57.86.44,1.86-5,1.86-5s-.71,4.37.12,5.39,2.11-5.44,2.11-5.44l1.64-5.09s-1.16,6.15-.26,6,1-3.83,2-4.49.68,0,.68,0-.15,5,.53,3c.38-1.13.75-3.12,1.1-4.61l.78,2.2.4-.14c.18,1.75.59,2.48,1.89-2.24,1-3.74,1.32-4.91,1.32-4.91l2.16-.63s.67.33.95-1c.35.87.82,2,1.46,3.53,3.28,7.72,1.22-2.37,2-2.4s2.64,6.82,3.45,8.64-.53-5.53-.53-5.53a14.16,14.16,0,0,0,2.93,3.11c1.36.87,1.05,7.36,2.24,7.77s-.48-7.84-.48-7.84l2,4.54s1.41,5.49,2.56,5,.41-4.18.41-4.18,1.08,4.58,2.25,4.53-2.6-9.14-2.6-9.14l-1.79-4.09c1.78.38,1.37-4.11-.18-5.89a1.17,1.17,0,0,0-.86-.45l-.22-.62a19.18,19.18,0,0,0,4.4,2c2.07.52,1.35,4.87,3.18,5.1s-.45-5.22-.45-5.22l2.85,3s2,3.61,3.78,3.23.79-2.81.79-2.81,1.5,3,3.31,2.94-3.67-6-3.67-6l-2.62-2.66c1,.07,1.6-.3,1.8-.86,1.13,1.29.86,4.42,2.4,4.61,1.83.23-.45-5.22-.45-5.22l2.86,3s2,3.61,3.78,3.23.78-2.81.78-2.81,1.5,3,3.31,2.94S663.49,868,663.49,868Z"/><path class="cls-1" d="M624.3,816.14l-5.86,3.34a60.74,60.74,0,0,1-5.86,2.78s-5,2-3.07,2l-2.67,1.46s-.39,1,.72.48l2.79-1.67H612s-2.52,2.23-1.12,1.95A7.91,7.91,0,0,0,613.7,825l1.39-.28-.49,1.5,1.61-.66L619,825l1.67-1.95-2.23-.27s-.84-1.4,1.67-2.23S626.81,814.75,624.3,816.14Z"/><path class="cls-1" d="M625.7,807.23a10.16,10.16,0,0,0,2.51-3.34c.83-1.94,2.23,1.68,2.23,1.68s3.32,2,1.66-.69l4.2,3.47-6.14-7a39.91,39.91,0,0,1-1.68-4.73c-.27-1.39,0-3.89-1.67.28l-3.35,6.68-2.23,2.22s-3.63,1.67-5,2.23-3.91,3.06-3.91,3.06-.27,2.22,1.4.28,2.51-1.67,2.51-1.67l1.11.28,2.24-1.4,3.9-1.11s-1.11,2.23,0,1.67A8.58,8.58,0,0,0,625.7,807.23Z"/><path class="cls-1" d="M628,816.69s.17,2.79,2.4,3.34-.28-2.11-.28-2.11l2.31.82s4.59,2.57,3.23,1.1a45.52,45.52,0,0,1-2.88-3.58s-3.17-2-1.8-.38-3.24-.33-3.24-.33Z"/><path class="cls-1" d="M636.86,820.87s5,3.34,7,3.89,5.86,2.23,6.42,3.06,1.58,1.6-.29.84-2.78-1.11-2.78-1.11l1.39,2.22-2.79-2.5-.56,1.67-1.39-2.51-2.23.84-2.79-2.51-6.14-2.5.28-1.39S637.41,824.48,636.86,820.87Z"/><path class="cls-1" d="M630.87,828.86s-5,.52-4.61-.87l-.72,1.91-1.68-.7-2,.7s0,1.57.56.87l1.68.18a3,3,0,0,0-2.24,1.39c-.56,1.22,1.12,0,1.12,0l-1.12,1.74s-.56,1.22,1.4-.34.56,1.39.56,1.39.56,1,1.12-.18,1.69-.87,2.81-.17,2.52,3.83,2.24,1.57l-1.19-2.25s2.59,1.55,2.59,2.25,1.68-.35-.56-2.44c0,0,2-.52.28-1.57l-.92-1.08,1.48.56s.14-.47-1.4-1.22l-.56-1.05S632.9,830.66,630.87,828.86Z"/><path class="cls-1" d="M619.28,832l-3.63,3.06-1.67-.83s-2.51,2.78-2.79,1.66,4.18-3.89,4.18-3.89Z"/><path class="cls-1" d="M610.35,834l-3.63,2.22-1.67,2-.84-1.11-3.06,2.5s-2.8,0,0-2S610.35,834,610.35,834Z"/><path class="cls-1" d="M604.77,835.89s-5.3-1.11-2.51.56Z"/><path class="cls-1" d="M613.7,842.85s-7.53,1.39-8.37,2.22-5,2.23-2.23,2.23h5.3l9.48-4.73Z"/><path class="cls-1" d="M619,842.85l-13.11,9.74s-2.51.83-3.07,1.94-3.35,1.12-3.63,2.51l-.84,2.22a5.16,5.16,0,0,0-3.34,1.4l-.56,1.94-3.63,4.18s0,.83,2.23-.84c0,0-1.39,5,2.24-.27l3.06-3.07s-.28,3.9.56,2.23l1.4-2.23,4.46-1.94,1.4-.56.28,1.11,2.23-3.34,1.39-5.84s2-1.67,3.35-1.39,1.11-1.95,1.11-1.95,7-2.23,3.63-2.5l-2.23.27S622.35,840.62,619,842.85Z"/><path class="cls-1" d="M626.7,843.06,623,845.55s-1.73.84.2.91.6.16.6.16l-.72,1.11s-3.32,1.94-2.2,1.8,1.27.11,1.27.11l-1.6,2s-1.59,1.95-.36,1.41l-.89,1.71s-.42,1.62,1,.47l2-1.85-1.51,4.13s-.43,1.62,1-.6,1.45-3.07,1.45-3.07l-.2,4.91s.8,1.07,1.23-1.41l.54-2.87s1.58-1.1,1.71.87,1.15,2.24.78-1.3l-.34-2s2.65,3.93,1.68.22c0,0,.75.41,0-2.58a2.15,2.15,0,0,0,1.1-2.52l-.52-1.74s-2.08,2.57-2.31.14l2-2.51s-1.53.89-.75-1.27c0,0-2.65,1-2.39,0l-1.63,1.3S623.94,844.5,626.7,843.06Z"/><path class="cls-1" d="M633.23,846.05s6.69,1,8.16,2.29,3.35,4.18,3.35,5.85c0,0-1.07,1.49-1.17.43l-1.14,2.07a6.36,6.36,0,0,1-1-1.88c-.21-.83-2.09.84-2.09.84s-1,0,0-2.3-.61-1.24-1.47,0-1,.21-.42-1.25a1.27,1.27,0,0,0-.62-1.88s-2.1,2.51-1.68,1a5.44,5.44,0,0,1,.63-1.68s-.21-1.66-1.46-2.08A1.32,1.32,0,0,1,633.23,846.05Z"/><path class="cls-1" d="M633.44,842.5s2.51,1.25,2.72,2.09-1,.62-1,.62Z"/><path class="cls-1" d="M637.41,843.54s3.56.21-.21-1.25-1.88,0-1.88,0Z"/><path class="cls-1" d="M629.17,863.26s-8.5.53-10.59,3.24-5,12.1-5,12.1l-.63,5s.63,2.71,1.05-.42c0,0,2.23-4.83,3-3.67,0,0,.73,2,1.69-1.15s-.29.44-.29.44l.84.63s.42,3.54,1.46-1.26l1.89,1.26-.21-6.47s.84-6.89,1.25-5.43c0,0,.63,4.8,1.26,3.34a10.38,10.38,0,0,0,.42-4s2.51,2.29,2.72-.21l-.84-1,2.3-.42-.63-.84Z"/><path class="cls-1" d="M598.63,876.24s2.44-4.18,4.19-4.45,4.37.31,4.94-1.34a3.5,3.5,0,0,1,2.59-2.56,22.39,22.39,0,0,0,4.18-3.06s2.24-3.34,1.68-.56c0,0-.84,3.9-2.51,4.73s-2,0-2,0l-1.12,3.9s-1.4.83-1.12-.84-1.67,3.9-1.67,3.9-2-.28-1.39-2-2.52,2.78-2.52,2.78l-2.5.56a13.25,13.25,0,0,1,1.11-2.5c.56-.84-2,1.93-3.63,2.78s-3.35,1.11-4.46,2.78C594.45,880.41,596.4,877.35,598.63,876.24Z"/><path class="cls-1" d="M634.9,860s12.35,5.84,14.86,7.93,6.48,5.64,6.48,5.64.21.83-2.09-.84c0,0,2.51,2.71,1.05,3.13a20.79,20.79,0,0,0-4.19-4.18c-2.92-2.29-3.55-1.25-3.55-1.25l.41,2.3a11,11,0,0,0-3.55-4.17s.42-1.25-1.47-2.3S634.9,860,634.9,860Z"/><path class="cls-1" d="M645.57,860.87s7.54-1,11.72,1.66l6.07,6.47,2.72,3.13s0,.21-2.3-1.87l-1.26-.63s.63,2.92,0,1.88a19.17,19.17,0,0,1-3.14-4.38c-1.25-2.51-2.51-2.09-2.51-2.09h-2.09s1.88,3.34,1.67,4.38-1.25-2.5-1.25-2.5l-2.09-2.72-4.19-.83-1-1.25s-4.79-1.19-5.85-2.27Z"/><path class="cls-1" d="M645.36,850s5,0,5.86.63l2.72,1.67-2.09-.42-.21.84-3.14-1.46s-1,0-.41,1l-1.26-.42-2.72-2.3-.84-.83Z"/><path class="cls-1" d="M634.06,869s.63,4.38,1.47,5,4.18,3.55,3.77,2.3a30.26,30.26,0,0,0-1.68-3.55Z"/><path class="cls-1" d="M640.55,877.14s-.42,3.34.84,4.59a11.9,11.9,0,0,1,2.09,4s1-.21.63-1.88Z"/><path class="cls-1" d="M1580.83,1047.88s2-19.08,1.69-22.82-.32-10.85-.32-10.85l-.69-9.57s-.57-5.4-.2-6.67a38.06,38.06,0,0,0,.7-4.65s.35-9.21.29-11.3.65-8.68.65-8.68l.4-5.32a35.33,35.33,0,0,0,0-4c-.06-1.78-.25-12.81.61-11.61s1.32,14.1,1.32,14.1a12.75,12.75,0,0,1,.22,3.74c-.14,2.52-.28,4.83-.28,4.83l.17,7.62-.9,11.76,0,6.27.38,13.35s1,13.31.85,14.58,1.33,19.63,1.33,19.63S1581.84,1048.91,1580.83,1047.88Z"/><path class="cls-1" d="M1581.67,1048.47s1.85-17.48,1.76-20.54l-1.61-26.93.69-4.78.39-15.07s.09-6.41.49-7,.74-7.85.7-9c0,0-.06-7,.26-5.58a90.72,90.72,0,0,1,.3,10.56c-.09,1.4-.13,5-.09,6.14a30.12,30.12,0,0,1,.14,5c-.23,1.41-1.23,14.85-1,16.79s.09,7.79.09,7.79.94,18.06,1,19.44,1.5,21.48,1.82,23.14-.44.19-2.36.87A1.85,1.85,0,0,1,1581.67,1048.47Z"/><path class="cls-1" d="M1604.55,1002.33l-.45-.93c2,.22-1.42-3.13-1.42-3.13-1.41-1-1.11-1.16-1.59-1.56-1.22-1.05-3.32-3-2.58-2.07-.43-.53-2.17-.8-2.17-.8s-1,.44-1-.39a7,7,0,0,0-.47-1.92l-1-.5a8.79,8.79,0,0,0-.17-2.59,2.13,2.13,0,0,1,1.28,1c1.31,2.43,1.67.32.36-1.7l2.77,2.34,0-1.67,2.57,2.76,2.74,1.49a8.18,8.18,0,0,0-2.15-2.78c-1.71-1.57-4.48-3.9-4.48-3.9s-4.38-1-5-2.6a14.4,14.4,0,0,0-.94-1.82c2.11,1,4.29,1.93,4.29,1.93l-2.83-2.33-3.62-2.92-1.83-2.62a9.75,9.75,0,0,1-.21-3.52c.06.23.1.47.15.69a5.25,5.25,0,0,0,.47,2.49L1588,972l0,0-.2,1.48a6.64,6.64,0,0,1,.89,2.18c.13.55.21.09.25-.64,0,0,.07.08.1.08.28,0,.16-1.33,0-2.71v-.1l.39.36.43,1.51s1.12,5.71,1.56,4.73l0-.08c.32.83.37-.69.35-2.14.27,1,.58,1.91.8,1.7s-.06-1.67-.45-3.4l.86.69s.91,3,1.48,3.53-.37-3.32-.37-3.32l2,1.82s1.2,3,1.74,3-.76-2.74-.76-2.74l1.72,2.12c1.3,2.14,2.92.65,1.79-.12s-4.85-5.26-4.85-5.26a50.55,50.55,0,0,0-3.5-5.91,4.28,4.28,0,0,0-2-1.28l-.73-2.51c.08,0,.14-.08.19-.18l1.83,2.1.8-.88.76,2.18,1.13,1-.06-2.23a4.86,4.86,0,0,1,1,1.61,2.27,2.27,0,0,0,1.56,1.3l-1.5-3.81,1,1.61c1.3,1.86,2.11,1,2.11,1l-.92-3a21.9,21.9,0,0,0-4.52-3.06c-1.25-.49-4.54-5.36-6.46-8.33a15,15,0,0,0-.34-3.43c.84.53,2.11,1.55,2.12,2.82,0,1.9,3.27.54,3.27.54l-1.33-2.84s1.68.73,2.31,1.1a2.88,2.88,0,0,0,1.46.33s-2.58-3.19-3.63-3.53c-.79-.27-4.2-6.27-5.85-9.24l-.74-3.3-1-5.79a18.18,18.18,0,0,0-.89,5.35c.2,1.94-2.07,7.41-2.07,7.41s-2.52,3.51-3.89,3.88-2.69,2.67-2.69,2.67-1.2,1.48-1.9,1.24-1.35,1.2.16.83a13.42,13.42,0,0,0,2.19-.7l-1.44,2.6a2.78,2.78,0,0,0,1.76-1.22c.94-1.18,1.47-1.77,1.47-1.77l-.73,3.38a1.76,1.76,0,0,0,1.48-1.2,25.73,25.73,0,0,1,1.31-2.87l.77,2.73,2.42-.41a4.68,4.68,0,0,1-.19,1.08s-4.82,5.32-6.47,6l-3.68,1.63-2.39,3.49s-.1,1.4,1,.5l1.21-1.47s-1.85,3.18-.89,2.85,1.87-2.07,1.87-2.07l1.37-.65-1.15,3.41a3.26,3.26,0,0,0,1.89-1.79,4,4,0,0,1,1.19-1.75l.43.53-.89,2.57s.8-.88,1.46-1.77c.25-.32,1.12-.42,2.13-.42-.49,1-1.39,1.89-1.34,3.44-.58-.22-.62,1-1.56,1.11,0,0-4.78,2-5.58,3.14a3,3,0,0,0-2.63-.11c-1.36.65-.37,1.7.46,1.65l-1.62,1.49s-3,4.38-.85,3.68l1.59-2.33s-.5,2,.71.79l1.59-2.33-.58,3.66a2.17,2.17,0,0,0,1.06-1.74l.89-2.29s-.13,4.75.24,3.33.88-3.12.88-3.12.21,2.49.89,1.89.35-2,.35-2l1.21-1.19,1,2.72a8.78,8.78,0,0,1,1-2.58,1.76,1.76,0,0,1,1.09-.62l.35.63-.11.47c-1.57.71-2.09,3.06-2.09,3.06l0,.59a32.28,32.28,0,0,0-9.16,5.25,25.89,25.89,0,0,0-3.33,4.67s-1.58,2.61-.61,2.55,1.33-1.76,1.33-1.76l1.48-1.49-1,4s1.73-2.35,1.83-3.47a2.6,2.6,0,0,1,1.33-1.75l-.15,4.19a10,10,0,0,0,.93-1.46c.65-1.15.59-3.1,1-3.12a6.14,6.14,0,0,0,1.5-.66l-.34,2.08a.4.4,0,0,0-.28.19,4.76,4.76,0,0,1-1.52,1.49,12.46,12.46,0,0,1-.88,1.73c.69-1-2.25,1-2.4,2.94-.08,1-.43-.26-1.77,1,0,0-2,2.64-.39,2.25l-1.44,2.6s-3,5.77-1.91,5.7,1.85-2.91,1.85-2.91-.49,2.26.63,2.47,2.12-3.2,2.12-3.2l1.57-2.89s-1.1,5.09,0,4.74.43-4.21,1.66-4.84a11.67,11.67,0,0,0,2.57-2.12s-.84,4.51-.18,3.36,2-5.43,2.74-5.47-.65,6.17,2,1.26a29.62,29.62,0,0,0,1.82-3.68l2,.65c.09.35.19.69.29,1l-1.41,1.19s-.61,0-.72,1.2-.94,1.31-.94,1.31a6.19,6.19,0,0,0-1.06,1.44c.5-1-1.42-.55-1.25,2.29a9.05,9.05,0,0,0-1.37.8,8,8,0,0,0-.75,1.72,5.39,5.39,0,0,0-.51,1.11,6.16,6.16,0,0,0-3.3,1.67l-2.52,4.16-2.2,2.57s-2.24,5.62.91,1.85l1.58-3.13,1.23.26-1.93,3.13s-2.46,4.71,1.16.48a16.11,16.11,0,0,0,2-3.35l1.37-1c-.75,2.18-1.69,5.17-1.24,5.36.7.29,1.59-3.57,1.59-3.57s-.64,3.12,0,3.82,1-3.79,1-3.79l.34-.41a8.49,8.49,0,0,0,.68,1.16c0,1.2.08,2.45.48,2.39.73-.11,1.1-5,2-5.45l.08-.07a11.71,11.71,0,0,0,.74,3.34c-.53,2.72-1.41,7.47-1,7.76.53.39,1.13-4.5,1.13-4.5s-.43,4,.07,4.87,1.29-4.91,1.29-4.91l1-4.6s-.71,5.56-.16,5.44.59-3.46,1.23-4.05.41,0,.41,0-.09,4.5.32,2.68c.23-1,.46-2.83.67-4.17l.47,2,.25-.13c.11,1.59.36,2.24,1.15-2,.63-3.38.8-4.44.8-4.44l1.31-.57s.41.3.58-.91c.21.79.5,1.81.89,3.19,2,7,.74-2.14,1.19-2.17s1.61,6.17,2.1,7.8-.32-5-.32-5a12.68,12.68,0,0,0,1.77,2.82c.83.77.65,6.64,1.37,7s-.29-7.08-.29-7.08l1.19,4.1s.86,5,1.56,4.5.24-3.78.24-3.78.66,4.14,1.38,4.09-1.58-8.25-1.58-8.25l-1.09-3.7c1.08.35.82-3.71-.11-5.32a.73.73,0,0,0-.53-.41c-.08-.33-.13-.56-.13-.56a10.58,10.58,0,0,0,2.68,1.78c1.25.48.82,4.41,1.93,4.62s-.28-4.72-.28-4.72l1.74,2.67s1.2,3.27,2.3,2.91.48-2.53.48-2.53.91,2.73,2,2.66-2.23-5.44-2.23-5.44l-1.59-2.4a.93.93,0,0,0,1.08-.76c.69,1.16.53,4,1.47,4.15,1.11.21-.28-4.72-.28-4.72l1.75,2.68s1.19,3.27,2.29,2.91.48-2.53.48-2.53.91,2.72,2,2.65S1604.55,1002.33,1604.55,1002.33Z"/><path class="cls-1" d="M1591.83,951.11l-3.36-2.31-3.14-5.95-1.76-2.3-.93-6-.22,4c0,1.32-1.13,3-1.58,5.29s-3.36,3.64-3.36,3.64l-2.69,2,1.34.67,2.25-1.32.22,2.31c0,1.65,2.24-.66,2.24-.66,1.12-1.65,1.35.33,1.35.33-.23,1.33.67,1,.67,1l.9-3.3c.83-1.81-1.34-2.65-1.34-2.65l1-1.78a2.55,2.55,0,0,0,1.41,1.78l.22,3c.68,1.32.9-.66.9-.66l1.25,1.83a12.59,12.59,0,0,1,2.11,1.47l-.22-1.65Z"/><path class="cls-1" d="M1583.06,958s-2.89.68-2.22-1c0,0,1.12-2.31-1.34,0,0,0-3.14,4-4.71,4,0,0-3.59.66-4.49,2.31A4.28,4.28,0,0,0,1573,963a4.31,4.31,0,0,1,2.7-.33s.67,2.64,2.24-1l1.34-2s1.8,2,2.47,0S1583.06,958,1583.06,958Z"/><path class="cls-1" d="M1588.24,958.38s.2,4.12-.79,2.89l-1.77-3.4s-2.54,1-1.33,1.73l1.32,2.19,1.45,3.2s1,2.41.67-.66.68-1,.68-1l.44,1.65.68-1.65s1.34,2.64,2,1.32c0,0,1.58,3.31,1.58,1.32l2,.17L1591.6,963S1589.14,962.35,1588.24,958.38Z"/><path class="cls-1" d="M1582.84,965.55s-1.47-.75-2,.28a4.36,4.36,0,0,0-.35,2.3l-1.23,2.3a2.81,2.81,0,0,0-.88,2l.71.26a2.1,2.1,0,0,0-.18,1.79c.35,1,.7-.26.7-.26l.7,2a5.18,5.18,0,0,0,.18-1.54c0-1,1.93,1.28,1.93,1.28s.36-.28-.61-1.67,1.5.39,1.5.39-.19-2-.82-2,.64-.84.11-2.11l.35-2.56Z"/><path class="cls-1" d="M1588,987.8a2.87,2.87,0,0,1-2.69-2.65s-.68-2.64-.9-1l-1.12-1s-.13-4.38,1.39-1.86-.27-.78-.27-.78l2,1.65-.23-2.65,1.8,1.66,1.79,2.32,2.92,1.64s3.14,1,3.81,2-.45,1-.45,1l-1.79-.66s-1.57-1.32-1.57-.32l-.29,3.15a6.67,6.67,0,0,1-1.73-2.83s-1.57-3.63-1.57-1.65-1.12,0-1.12,0Z"/><path class="cls-1" d="M1586.22,967.64s-.07,2.59,1.36,3.65,1.33-.68,1.33-.68l.9,1.65,1.12,3s.28,1,.25-1.14l1.8,1.63,1.09,1.82-.22-2.64,1.79,1.32s-2.89-6.82-5-7.21c0,0-.6,2.9-2,.76s.12-.82.12-.82v-1l-.9.33Z"/><path class="cls-1" d="M1577.7,980.2s-2.46-1.66-4-.67l-5.38,3.31a16.84,16.84,0,0,0-3.36,2.31c-.9,1-1.35,1,2.23-.33l2.58.51,1-1.17.5,2.47,1.3-3.12,1.34.32s.9-.32.67-2Z"/><polygon class="cls-1" points="1576.13 970.28 1576.81 970.61 1577.93 967.31 1576.13 970.28"/><path class="cls-1" d="M1573.67,971.27s-4.71,1.33-5.61,3,1.5.68,1.5.68l1,1.31h.9v-2a3.29,3.29,0,0,1,2.24-1l.67,1.32.9-1.65S1578.18,968.34,1573.67,971.27Z"/><path class="cls-1" d="M1593.62,993.42l.68,1.32a11.34,11.34,0,0,1,2.91.32,27.77,27.77,0,0,1,3.14,3l2,3s4,4,1.34,2.31a30.44,30.44,0,0,1-4.71-3.63l.45,2.31-1.34-.66-1.12,1a6.33,6.33,0,0,0-2-3.31c-1.44-.93-.67-.33-.67-.33l-4.26-1a24.71,24.71,0,0,1,4.53,3.09L1599,1007s1.13,3.64-2.24-1.31l-2-1,.23,1.65s-1.35-3.3-3.37-3c0,0-4-3-4.7-4.3l.22-2.31s.24-1.6-1.56-1.46c0,0,2.46-1.38,3.47.53l3.06.44s1-.45.19-.84c0,0-1.35-3.95-3.14-3.95s1.34,0,2.91,1Z"/><path class="cls-1" d="M1580.84,991.76s-4.26,5.62-4.48,7.27l-2,2,1.57,1.65,2.91-3.64s-1.12-3.3.23-4S1581.74,996.39,1580.84,991.76Z"/><path class="cls-1" d="M1572.1,1002.34s3.81-.33,4.48,1-1.79.33-3.36,1.32-1.57,3-1.57,4,.34,4.14-.51,1.74a1.33,1.33,0,0,0-1.28.9c-.45,1-.86-1.25-1.13.33,0,0,.07-4.54,1.49-5.74Z"/><path class="cls-1" d="M1583.08,997.72s-3.81,3-4.26,4.62c0,0-.22,2.65-.89,2.65s-2.3-.93-3.17,1.35l-.64,8.56s.79.31,1.12-1.32a2.4,2.4,0,0,1,2-1.82l.64,1.16.45-2.32,1.31,1.67.48-5s.45-1.32,1.12-1.65.67-3.64.67-3.64A3,3,0,0,0,1583.08,997.72Z"/><path class="cls-1" d="M1585.55,998l5.38,10.91,1.57,5.95s-1.12,0-2-2.65-.22,2.32-1.34-1l-1.57-1.66a9.66,9.66,0,0,1-2-5.28l-1.12-.33S1583.76,993.42,1585.55,998Z"/><path class="cls-1" d="M1580.39,983.51s-4.26-.67-6.72,2.3-8.07,8.93-8.07,8.93l-3.81,5.62,4-3.31-.84,1.68,2.41-3,2.24-.34,1.57-3s1.35-1,1.79.34c0,0,2,0,1.13-3l2.91-1.66S1583.08,986.81,1580.39,983.51Z"/><path class="cls-1" d="M838.16,952.11s1.72-12.64,1.45-15.12-.27-7.19-.27-7.19l-.6-6.33s-.49-3.58-.17-4.43a19.17,19.17,0,0,0,.6-3.07s.3-6.11.25-7.49.56-5.75.56-5.75l.34-3.53a18.34,18.34,0,0,0,0-2.67c0-1.18-.21-8.49.53-7.69s1.13,9.33,1.13,9.33a6.42,6.42,0,0,1,.19,2.49c-.12,1.66-.24,3.19-.24,3.19l.15,5-.77,7.79,0,4.16.34,8.84s.86,8.82.72,9.66,1.15,13,1.15,13S839,952.79,838.16,952.11Z"/><path class="cls-1" d="M838.88,952.5s1.59-11.58,1.51-13.61L839,921.05l.6-3.17.33-10s.08-4.25.42-4.63.64-5.21.61-5.95c0,0-.05-4.61.22-3.69a46.6,46.6,0,0,1,.26,7c-.08.93-.11,3.33-.08,4.07a15.56,15.56,0,0,1,.12,3.32,104.43,104.43,0,0,0-.88,11.12c.16,1.28.07,5.16.07,5.16s.81,12,.85,12.88,1.28,14.23,1.56,15.33-.38.13-2,.58S838.88,952.5,838.88,952.5Z"/><path class="cls-1" d="M858.53,921.93l-.39-.61c1.76.14-1.21-2.07-1.21-2.07-1.22-.68-1-.78-1.37-1-1-.69-2.85-2-2.22-1.38a5.34,5.34,0,0,0-1.86-.52s-.88.29-.9-.26a3.72,3.72,0,0,0-.4-1.27l-.83-.33a4.6,4.6,0,0,0-.15-1.72,1.84,1.84,0,0,1,1.1.66c1.13,1.6,1.43.21.31-1.13l2.38,1.55,0-1.11,2.2,1.83,2.36,1a5.73,5.73,0,0,0-1.85-1.84c-1.47-1-3.84-2.58-3.84-2.58s-3.77-.65-4.35-1.73a8.33,8.33,0,0,0-.8-1.2c1.81.69,3.69,1.27,3.69,1.27l-2.43-1.54L844.81,906l-1.57-1.74a4.84,4.84,0,0,1-.18-2.33c.05.15.09.31.13.45a2.85,2.85,0,0,0,.4,1.65l.71-2.14s0,0,0,0l-.17,1a3.86,3.86,0,0,1,.77,1.44c.11.37.18.06.21-.42,0,0,.06.05.09.05.24,0,.13-.88,0-1.79v-.07l.34.24.37,1s1,3.78,1.34,3.13c0,0,0,0,0-.05.28.55.32-.46.3-1.42.23.68.5,1.26.69,1.13s0-1.11-.38-2.26l.73.46a8.89,8.89,0,0,0,1.28,2.34c.49.34-.32-2.2-.32-2.2l1.71,1.2s1,2,1.5,2-.67-1.81-.67-1.81l1.48,1.4c1.12,1.42,2.51.43,1.54-.07a41.35,41.35,0,0,1-4.16-3.49,32.57,32.57,0,0,0-3-3.91,3.88,3.88,0,0,0-1.75-.85l-.62-1.66a.23.23,0,0,0,.16-.13l1.57,1.4.69-.59.65,1.45,1,.69-.06-1.48a3.27,3.27,0,0,1,.87,1.07,2,2,0,0,0,1.34.86L850.49,898l.87,1.07c1.12,1.24,1.81.65,1.81.65l-.79-2a19.9,19.9,0,0,0-3.88-2c-1.08-.33-3.9-3.55-5.55-5.52a7.83,7.83,0,0,0-.29-2.27c.72.35,1.81,1,1.82,1.87,0,1.26,2.8.35,2.8.35l-1.14-1.88s1.45.48,2,.73a3.15,3.15,0,0,0,1.25.22s-2.21-2.11-3.11-2.34c-.68-.18-3.62-4.15-5-6.12l-.63-2.19-.86-3.83a9.72,9.72,0,0,0-.76,3.54c.17,1.29-1.78,4.91-1.78,4.91s-2.16,2.32-3.35,2.57a5.07,5.07,0,0,0-2.3,1.77s-1,1-1.64.82-1.15.8.14.55a14.49,14.49,0,0,0,1.89-.46l-1.24,1.72a2.63,2.63,0,0,0,1.51-.81c.8-.78,1.26-1.17,1.26-1.17l-.63,2.24a1.54,1.54,0,0,0,1.28-.8,15.53,15.53,0,0,1,1.12-1.9l.66,1.81,2.09-.27a2.71,2.71,0,0,1-.17.71s-4.15,3.53-5.56,4L829.11,895l-2.05,2.31s-.09.93.84.33l1-1s-1.58,2.11-.76,1.89a3.87,3.87,0,0,0,1.61-1.37l1.18-.43L830,899a2.73,2.73,0,0,0,1.62-1.18,2.85,2.85,0,0,1,1-1.16l.38.35-.77,1.7s.69-.59,1.26-1.17a3.53,3.53,0,0,1,1.82-.28c-.42.63-1.19,1.25-1.15,2.28-.5-.15-.53.69-1.34.73,0,0-4.11,1.31-4.79,2.08a3.3,3.3,0,0,0-2.26-.07c-1.17.43-.32,1.13.4,1.09l-1.39,1s-2.62,2.9-.74,2.44l1.37-1.55s-.43,1.32.61.53l1.37-1.55-.5,2.43s.93-.42.9-1.16l.78-1.51s-.12,3.14.2,2.2.75-2.06.75-2.06.18,1.65.76,1.25.31-1.31.31-1.31l1-.79.9,1.81a5,5,0,0,1,.89-1.71,1.66,1.66,0,0,1,.93-.41l.3.42-.09.31a3.25,3.25,0,0,0-1.8,2l0,.4a30.64,30.64,0,0,0-7.87,3.47,18,18,0,0,0-2.86,3.1s-1.36,1.72-.53,1.68,1.15-1.16,1.15-1.16l1.26-1-.85,2.64s1.49-1.56,1.58-2.3,1.14-1.17,1.14-1.17l-.13,2.78a6.36,6.36,0,0,0,.8-1c.56-.77.51-2.06.87-2.08a5.71,5.71,0,0,0,1.29-.43l-.29,1.38a.39.39,0,0,0-.25.12,3.74,3.74,0,0,1-1.3,1,7.59,7.59,0,0,1-.76,1.15c.6-.67-1.93.69-2.06,2-.07.65-.36-.17-1.52.62,0,0-1.75,1.75-.33,1.5l-1.24,1.72s-2.59,3.82-1.64,3.77,1.59-1.92,1.59-1.92-.42,1.49.54,1.63,1.82-2.12,1.82-2.12l1.35-1.91s-.94,3.37,0,3.14.37-2.79,1.42-3.21a9.68,9.68,0,0,0,2.21-1.4s-.72,3-.15,2.22,1.76-3.59,2.35-3.62-.56,4.09,1.7.84a17.74,17.74,0,0,0,1.56-2.45l1.69.44c.08.23.16.46.25.68l-1.21.79s-.53,0-.62.8a.94.94,0,0,1-.81.87,4.54,4.54,0,0,0-.91,1c.43-.69-1.22-.36-1.07,1.52a8.33,8.33,0,0,0-1.18.53,4.81,4.81,0,0,0-.64,1.13,3.33,3.33,0,0,0-.44.74,5.91,5.91,0,0,0-2.83,1.11l-2.17,2.76-1.9,1.69s-1.92,3.73.79,1.23l1.36-2.07,1.06.17-1.67,2.07s-2.11,3.12,1,.32a10.39,10.39,0,0,0,1.73-2.22l1.17-.64c-.64,1.44-1.44,3.42-1.06,3.55.6.19,1.37-2.37,1.37-2.37s-.55,2.07,0,2.53.88-2.51.88-2.51l.29-.27a5,5,0,0,0,.59.77c0,.79.07,1.62.4,1.58.64-.07.95-3.29,1.69-3.61l.07,0a6.49,6.49,0,0,0,.63,2.2c-.45,1.81-1.2,5-.88,5.15s1-3,1-3-.37,2.61.06,3.22,1.11-3.25,1.11-3.25l.86-3s-.61,3.68-.14,3.6.51-2.29,1.06-2.68.35,0,.35,0-.08,3,.28,1.77c.19-.68.39-1.87.57-2.76l.41,1.31L837,930c.09,1,.31,1.48,1-1.34.54-2.24.69-2.94.69-2.94l1.12-.38s.35.2.5-.6c.18.52.43,1.2.76,2.11,1.72,4.62.64-1.42,1-1.44s1.39,4.09,1.81,5.17-.28-3.3-.28-3.3a8.29,8.29,0,0,0,1.53,1.86c.71.52.55,4.41,1.18,4.65s-.26-4.7-.26-4.7l1,2.72s.74,3.29,1.34,3,.22-2.5.22-2.5.56,2.74,1.17,2.71-1.35-5.47-1.35-5.47l-.94-2.45c.93.23.71-2.45-.09-3.52a.61.61,0,0,0-.46-.27c-.06-.22-.11-.37-.11-.37a9.64,9.64,0,0,0,2.3,1.18c1.08.31.71,2.92,1.66,3s-.24-3.12-.24-3.12l1.5,1.77s1,2.16,2,1.93.41-1.68.41-1.68.78,1.81,1.73,1.76-1.92-3.6-1.92-3.6l-1.36-1.59a.8.8,0,0,0,.93-.51c.59.77.45,2.64,1.26,2.75s-.24-3.12-.24-3.12l1.5,1.77s1,2.17,2,1.93.41-1.68.41-1.68.79,1.81,1.73,1.76S858.53,921.93,858.53,921.93Z"/><path class="cls-1" d="M847.6,888l-2.88-1.53-2.7-3.94L840.51,881l-.8-4-.19,2.63c0,.88-1,2-1.35,3.5s-2.89,2.42-2.89,2.42L833,886.9l1.15.44,1.93-.87.19,1.53c0,1.1,1.93-.44,1.93-.44,1-1.09,1.15.22,1.15.22-.19.88.58.66.58.66l.77-2.19c.71-1.19-1.15-1.75-1.15-1.75l.9-1.19a2,2,0,0,0,1.21,1.19l.2,2c.58.87.77-.44.77-.44l1.07,1.22a11,11,0,0,1,1.82,1l-.2-1.1Z"/><path class="cls-1" d="M840.07,892.59s-2.48.45-1.9-.65c0,0,1-1.53-1.16,0,0,0-2.69,2.63-4,2.63,0,0-3.08.44-3.86,1.53a4.66,4.66,0,0,0,2.31-.22,4.83,4.83,0,0,1,2.32-.22s.58,1.76,1.92-.65l1.16-1.32s1.54,1.32,2.12,0S840.07,892.59,840.07,892.59Z"/><path class="cls-1" d="M844.52,892.82s.18,2.72-.68,1.91l-1.52-2.25s-2.18.63-1.14,1.15l1.14,1.44,1.24,2.13s.88,1.59.58-.44.58-.66.58-.66l.38,1.1.58-1.1s1.15,1.75,1.73.88c0,0,1.35,2.19,1.35.87l1.73.11-3.08-2.08A4.18,4.18,0,0,1,844.52,892.82Z"/><path class="cls-1" d="M839.88,897.56s-1.26-.49-1.71.19a2.24,2.24,0,0,0-.3,1.52l-1.06,1.53s-.91.68-.76,1.35l.61.17a1.14,1.14,0,0,0-.16,1.19c.31.68.61-.17.61-.17l.6,1.35a2.57,2.57,0,0,0,.16-1c0-.68,1.66.84,1.66.84s.3-.19-.53-1.1,1.28.26,1.28.26-.16-1.36-.69-1.31.54-.56.09-1.4l.3-1.7Z"/><path class="cls-1" d="M844.33,912.31a2.39,2.39,0,0,1-2.31-1.76s-.58-1.75-.77-.66l-1-.65s-.11-2.9,1.19-1.23-.23-.52-.23-.52l1.73,1.09-.19-1.75,1.54,1.1,1.54,1.53,2.51,1.09s2.69.66,3.27,1.32-.38.65-.38.65l-1.54-.44s-1.35-.87-1.35-.21l-.25,2.09a4.56,4.56,0,0,1-1.49-1.88s-1.35-2.4-1.35-1.09-1,0-1,0Z"/><path class="cls-1" d="M842.79,899a2.88,2.88,0,0,0,1.16,2.42c1.23.71,1.15-.45,1.15-.45l.77,1.09,1,2s.24.68.22-.76l1.54,1.08.94,1.21-.19-1.75,1.54.87s-2.48-4.52-4.32-4.77c0,0-.52,1.92-1.76.5s.11-.54.11-.54v-.66l-.77.22Z"/><path class="cls-1" d="M835.47,907.27s-2.12-1.1-3.47-.44L827.38,909a15.21,15.21,0,0,0-2.89,1.53c-.77.66-1.15.66,1.93-.22l2.21.34.87-.78.42,1.64,1.12-2.07,1.16.22s.77-.22.57-1.32Z"/><polygon class="cls-1" points="834.12 900.7 834.7 900.92 835.66 898.73 834.12 900.7"/><path class="cls-1" d="M832,901.36s-4,.87-4.81,2,1.28.44,1.28.44l.84.87h.77v-1.31a3.18,3.18,0,0,1,1.92-.66l.58.88.77-1.1S835.88,899.41,832,901.36Z"/><path class="cls-1" d="M849.15,916l.58.87a12.11,12.11,0,0,1,2.5.22,22.89,22.89,0,0,1,2.69,2l1.74,2s3.47,2.63,1.15,1.53a25.4,25.4,0,0,1-4-2.4l.38,1.53-1.15-.44-1,.66a4.09,4.09,0,0,0-1.74-2.19c-1.24-.62-.57-.22-.57-.22l-3.67-.65a22.22,22.22,0,0,1,3.9,2l3.81,4.07s1,2.41-1.93-.87l-1.73-.66.19,1.09s-1.15-2.18-2.89-2c0,0-3.47-2-4-2.84l.19-1.53s.2-1.07-1.34-1c0,0,2.11-.92,3,.35l2.63.29s.84-.3.16-.55c0,0-1.16-2.62-2.7-2.62s1.16,0,2.51.65Z"/><path class="cls-1" d="M838.17,914.93s-3.66,3.72-3.85,4.82l-1.74,1.31,1.35,1.1,2.5-2.41s-1-2.19.2-2.63S838.94,918,838.17,914.93Z"/><path class="cls-1" d="M830.66,921.94s3.27-.22,3.85.65-1.54.22-2.89.88a2.6,2.6,0,0,0-1.35,2.63c0,.65.29,2.74-.44,1.15a1.22,1.22,0,0,0-1.1.6c-.39.66-.74-.83-1,.22,0,0,.06-3,1.28-3.81Z"/><path class="cls-1" d="M840.09,918.88s-3.27,2-3.66,3.06c0,0-.19,1.75-.77,1.75s-2-.61-2.72.9l-.55,5.67s.68.2,1-.88,1.76-1.2,1.76-1.2l.55.77.39-1.54,1.13,1.11.41-3.3s.38-.87,1-1.09.58-2.41.58-2.41S841.44,920.85,840.09,918.88Z"/><path class="cls-1" d="M842.21,919.09l4.62,7.23,1.35,3.94s-1,0-1.73-1.75-.19,1.53-1.16-.66l-1.35-1.1a5.85,5.85,0,0,1-1.73-3.5l-1-.22S840.67,916,842.21,919.09Z"/><path class="cls-1" d="M837.78,909.46S834.12,909,832,911s-6.93,5.91-6.93,5.91l-3.28,3.73,3.47-2.19-.72,1.11,2.07-2,1.93-.22,1.35-2s1.15-.65,1.53.22c0,0,1.74,0,1-2l2.5-1.1S840.09,911.65,837.78,909.46Z"/><path class="cls-1" d="M121.16,970.06s3.14-21.66,2.5-26.78-.64-14.86-.64-14.86l-1.42-13.11s-1.16-7.39-.39-9.14a36.24,36.24,0,0,0,1.41-6.36s.72-12.63.6-15.49,1.31-11.88,1.31-11.88l.81-7.29a31.86,31.86,0,0,0,.08-5.54c-.11-2.43-.51-17.54,1.25-15.9s2.7,19.31,2.7,19.31a12.14,12.14,0,0,1,.43,5.13c-.27,3.45-.56,6.61-.56,6.61l.35,10.44-1.84,16.11,0,8.59.8,18.29s2.05,18.23,1.7,20,1.3,20.18,1.3,20.18S131,974.26,121.16,970.06Z"/><path class="cls-1" d="M123.26,970.06s2.44-18.66,2.26-22.85l-3.29-36.89,1.41-6.55.79-20.64s.19-8.79,1-9.59,1.51-10.75,1.44-12.27c0,0-.13-9.54.52-7.66s.82,12.56.62,14.48-.26,6.88-.2,8.4.78,4.93.3,6.86-2.5,20.34-2.1,23a103.2,103.2,0,0,1,.18,10.67s1.91,24.73,2,26.64.06,14.5.72,16.76,1.89,11-2,11.93S123.26,970.06,123.26,970.06Z"/><path class="cls-1" d="M168.48,912.15l-.92-1.27c4.17.29-2.86-4.29-2.86-4.29-2.88-1.4-2.27-1.6-3.23-2.15-2.51-1.43-6.78-4.08-5.27-2.83-.88-.72-4.41-1.1-4.41-1.1s-2.09.62-2.14-.53a7.08,7.08,0,0,0-1-2.63l-2-.68a8.07,8.07,0,0,0-.35-3.55,4.44,4.44,0,0,1,2.6,1.36c2.68,3.32,3.4.42.74-2.33l5.63,3.2-.1-2.29,5.24,3.78,5.57,2s-.92-1.67-4.38-3.82-9.11-5.33-9.11-5.33-8.92-1.33-10.28-3.56a21,21,0,0,0-1.9-2.5c4.29,1.43,8.73,2.64,8.73,2.64l-5.77-3.19-7.37-4-3.72-3.6a9,9,0,0,1-.44-4.86c.1.33.21.65.31,1a5.32,5.32,0,0,0,1,3.43l1.69-4.43s0,0,0,.05l-.4,2a7.82,7.82,0,0,1,1.81,3c.27.76.42.16.51-.82a.42.42,0,0,0,.21.06c.57,0,.32-1.83-.07-3.7v-.15l.8.5.87,2.06s2.27,7.83,3.19,6.49c0,0,0-.08.05-.11.67,1.16.75-.95.71-2.93.55,1.4,1.17,2.61,1.64,2.32s-.13-2.28-.91-4.66l1.73,1s1.87,4.12,3,4.83-.76-4.55-.76-4.55l4,2.5s2.42,4.1,3.55,4-1.57-3.75-1.57-3.75l3.5,2.9c2.66,2.94,5.95.89,3.66-.16s-9.89-7.21-9.89-7.21a70,70,0,0,0-7.1-8.09,10,10,0,0,0-4.16-1.75L137.79,861a.6.6,0,0,0,.38-.25l3.72,2.88,1.63-1.21,1.54,3,2.31,1.42-.13-3a7.17,7.17,0,0,1,2.07,2.21,4.83,4.83,0,0,0,3.17,1.76l-3-5.21,2.07,2.21c2.64,2.55,4.28,1.34,4.28,1.34L153.92,862s-5.49-3.2-9.19-4.19c-2.55-.68-9.24-7.34-13.15-11.42a13.92,13.92,0,0,0-.7-4.7c1.72.74,4.29,2.14,4.31,3.87.05,2.62,6.65.74,6.65.74l-2.7-3.9s3.42,1,4.71,1.52a8.52,8.52,0,0,0,3,.44s-5.25-4.35-7.38-4.83c-1.61-.36-8.56-8.59-11.92-12.64L126,822.37l-2-7.93s-2.19,4.67-1.79,7.33S118,831.92,118,831.92s-5.14,4.8-7.93,5.3-5.47,3.67-5.47,3.67-2.45,2-3.87,1.7-2.74,1.64.33,1.13a37.26,37.26,0,0,0,4.46-1l-2.94,3.57a6.52,6.52,0,0,0,3.59-1.69c1.9-1.6,3-2.42,3-2.42l-1.49,4.65s2.25-.1,3-1.65a30.72,30.72,0,0,1,2.64-3.94L114.9,845l4.94-.56a4.81,4.81,0,0,1-.4,1.46s-9.81,7.3-13.15,8.2l-7.51,2.23-4.86,4.79s-.19,1.92,2,.68l2.45-2s-3.75,4.36-1.8,3.9,3.81-2.84,3.81-2.84l2.78-.88-2.33,4.67a6.6,6.6,0,0,0,3.84-2.45,6.35,6.35,0,0,1,2.42-2.4l.88.73-1.81,3.51s1.63-1.21,3-2.41c.49-.44,2.26-.58,4.3-.58-1,1.3-2.81,2.59-2.72,4.71-1.17-.31-1.25,1.43-3.17,1.52,0,0-9.73,2.7-11.35,4.3a8.77,8.77,0,0,0-5.36-.15c-2.78.88-.74,2.32.94,2.25l-3.29,2s-6.21,6-1.75,5L90,877.6s-1,2.71,1.45,1.08l3.24-3.19-1.19,5s2.22-.86,2.15-2.38L97.48,875s-.29,6.5.48,4.56,1.78-4.27,1.78-4.27.43,3.42,1.8,2.59.73-2.7.73-2.7l2.46-1.64,2.14,3.73s1-2.71,2.1-3.53a4.45,4.45,0,0,1,2.21-.85l.7.87-.2.61a7,7,0,0,0-4.26,4.22l.06.81c-11.07,3-16.91,6.14-18.65,7.19-2.74,1.64-6.76,6.39-6.76,6.39s-3.22,3.58-1.26,3.5,2.71-2.41,2.71-2.41l3-2-2,5.43s3.52-3.2,3.74-4.74S91,890.29,91,890.29L90.65,896a14.39,14.39,0,0,0,1.88-2c1.34-1.58,1.23-4.25,2.07-4.29a15.89,15.89,0,0,0,3.06-.89L97,891.7a1,1,0,0,0-.59.27,9,9,0,0,1-3.07,2,16.87,16.87,0,0,1-1.8,2.37c1.39-1.38-4.58,1.43-4.89,4-.17,1.34-.87-.35-3.61,1.3,0,0-4.13,3.61-.78,3.08l-2.94,3.57s-6.13,7.89-3.89,7.8,3.77-4,3.77-4-1,3.09,1.27,3.38,4.32-4.38,4.32-4.38l3.18-3.93a0,0,0,0,0,0,0c-.2.62-2.11,6.88,0,6.43s.88-5.77,3.37-6.64a23.84,23.84,0,0,0,5.23-2.89s-1.7,6.18-.36,4.59,4.18-7.43,5.58-7.49-1.32,8.45,4,1.73a40.35,40.35,0,0,0,3.71-5l4,.9q.28.71.6,1.41l-2.87,1.63s-.69-.21-.92,1.47a1.89,1.89,0,0,1-1.55,1.81,8.09,8.09,0,0,1-1,2.32c1-1.44-3.24,2-4.38,2.88a21.53,21.53,0,0,0-3,1.16,7.72,7.72,0,0,0-1.63,2.82c-.58.43-1.15.83-1.63,1.16a14.78,14.78,0,0,0-6,2.2l-5.14,5.69-4.48,3.51s-4.55,7.71,1.85,2.54l3.23-4.29,2.51.36-4,4.29s-5,6.45,2.37.66a22.3,22.3,0,0,0,4.09-4.59l2.79-1.34c-1.53,3-3.44,7.09-2.53,7.34,1.43.4,3.25-4.9,3.25-4.9s-1.31,4.28,0,5.24,2.09-5.19,2.09-5.19l.69-.56a11.88,11.88,0,0,0,1.39,1.59c0,1.63.17,3.36,1,3.28,1.5-.16,2.23-6.81,4-7.48.05,0,.1,0,.16-.07a12.13,12.13,0,0,0,1.5,4.57c-1.09,3.72-2.85,10.22-2.09,10.61,1.07.54,2.31-6.15,2.31-6.15s-.88,5.41.15,6.66,2.61-6.73,2.61-6.73l2-6.29s-1.44,7.61-.33,7.44,1.22-4.74,2.51-5.55.84,0,.84,0-.18,6.16.66,3.66c.47-1.4.93-3.86,1.36-5.7l1,2.72.49-.17c.23,2.16.74,3.06,2.35-2.77,1.27-4.63,1.63-6.08,1.63-6.08l2.67-.78s.82.41,1.18-1.25c.43,1.07,1,2.48,1.81,4.36,4,9.56,1.51-2.93,2.41-3s3.28,8.44,4.29,10.69-.67-6.84-.67-6.84a17.52,17.52,0,0,0,3.63,3.85c1.68,1.07,1.3,9.1,2.78,9.61s-.6-9.71-.6-9.71l2.42,5.63s1.75,6.79,3.18,6.16.5-5.18.5-5.18,1.34,5.67,2.79,5.61-3.22-11.31-3.22-11.31l-2.22-5.06c2.21.48,1.69-5.08-.22-7.29A1.49,1.49,0,0,0,141,915l-.27-.77a23.55,23.55,0,0,0,5.45,2.44c2.56.65,1.67,6,3.93,6.32s-.56-6.47-.56-6.47l3.54,3.67s2.45,4.47,4.68,4,1-3.48,1-3.48,1.85,3.73,4.1,3.64-4.54-7.44-4.54-7.44l-3.24-3.3c1.26.09,2-.37,2.22-1.06,1.39,1.59,1.06,5.47,3,5.71,2.26.28-.57-6.47-.57-6.47l3.54,3.67s2.45,4.47,4.68,4,1-3.48,1-3.48,1.85,3.73,4.1,3.64S168.48,912.15,168.48,912.15Z"/><path class="cls-1" d="M120,848l-7.25,4.13a74.25,74.25,0,0,1-7.25,3.44s-6.22,2.41-3.8,2.41l-3.31,1.81s-.49,1.29.89.6l3.45-2.07h2.08s-3.11,2.76-1.38,2.42a9.77,9.77,0,0,0,3.45-1.73l1.72-.34-.61,1.85,2-.82,3.46-.69,2.07-2.41-2.76-.34s-1-1.72,2.07-2.76S123.09,846.31,120,848Z"/><path class="cls-1" d="M121.71,837a12.47,12.47,0,0,0,3.1-4.13c1-2.41,2.77,2.07,2.77,2.07s4.1,2.44,2-.85l5.2,4.29-7.6-8.61a48.51,48.51,0,0,1-2.07-5.85c-.35-1.72,0-4.82-2.07.34l-4.15,8.27-2.76,2.75s-4.49,2.07-6.22,2.76-4.83,3.79-4.83,3.79-.34,2.75,1.73.34,3.1-2.07,3.1-2.07l1.39.35,2.76-1.72,4.83-1.38s-1.38,2.75,0,2.07A10.44,10.44,0,0,0,121.71,837Z"/><path class="cls-1" d="M124.61,848.71s.2,3.45,3,4.14-.35-2.62-.35-2.62l2.86,1s5.68,3.18,4,1.35-3.57-4.42-3.57-4.42-3.92-2.52-2.22-.47-4-.41-4-.41Z"/><path class="cls-1" d="M135.52,853.88s6.21,4.13,8.63,4.82,7.25,2.76,7.94,3.79,2,2-.35,1-3.45-1.38-3.45-1.38L150,864.9l-3.45-3.1-.69,2.07-1.73-3.1-2.76,1-3.45-3.1-7.6-3.1.34-1.72S136.21,858.35,135.52,853.88Z"/><path class="cls-1" d="M128.11,863.77s-6.2.65-5.7-1.08l-.89,2.37-2.08-.86-2.43.86s0,1.94.69,1.08l2.08.21a3.7,3.7,0,0,0-2.77,1.73c-.69,1.51,1.39,0,1.39,0L117,870.24s-.69,1.51,1.73-.43.7,1.72.7,1.72.69,1.29,1.39-.22,2.08-1.07,3.47-.21,3.12,4.74,2.77,1.94l-1.47-2.78s3.21,1.92,3.21,2.78,2.08-.43-.7-3c0,0,2.43-.65.35-1.94l-1.14-1.34,1.83.69s.17-.58-1.73-1.51l-.7-1.29S130.63,866,128.11,863.77Z"/><path class="cls-1" d="M113.77,867.66l-4.5,3.78-2.07-1s-3.1,3.44-3.45,2.06,5.18-4.81,5.18-4.81Z"/><path class="cls-1" d="M102.71,870.07l-4.48,2.75-2.07,2.41-1-1.38-3.8,3.1s-3.45,0,0-2.41S102.71,870.07,102.71,870.07Z"/><path class="cls-1" d="M95.81,872.47s-6.56-1.37-3.11.69Z"/><path class="cls-1" d="M106.86,881.08s-9.32,1.73-10.36,2.76-6.22,2.75-2.77,2.75h6.57L112,880.74Z"/><path class="cls-1" d="M113.42,881.08,97.19,893.14s-3.11,1-3.8,2.41-4.14,1.37-4.49,3.1l-1,2.75a6.44,6.44,0,0,0-4.15,1.72L83,905.53l-4.49,5.17s0,1,2.77-1c0,0-1.73,6.2,2.76-.34l3.8-3.8s-.35,4.82.69,2.76l1.72-2.76,5.53-2.41,1.73-.69.34,1.38,2.76-4.13,1.73-7.23s2.42-2.07,4.14-1.72,1.38-2.41,1.38-2.41,8.64-2.76,4.5-3.1l-2.77.34S117.56,878.33,113.42,881.08Z"/><path class="cls-1" d="M122.94,881.35l-4.55,3.08s-2.15,1,.24,1.13.75.19.75.19l-.9,1.37s-4.1,2.4-2.72,2.23,1.57.14,1.57.14l-2,2.42s-2,2.42-.46,1.75l-1.09,2.12s-.53,2,1.18.58l2.48-2.3-1.88,5.13s-.52,2,1.27-.75,1.8-3.8,1.8-3.8l-.26,6.07s1,1.33,1.53-1.74l.66-3.56s2-1.35,2.13,1.09,1.41,2.77,1-1.62l-.42-2.51s3.28,4.86,2.08.27c0,0,.93.51,0-3.19a2.64,2.64,0,0,0,1.35-3.12l-.63-2.15s-2.58,3.18-2.87.17l2.42-3.1s-1.89,1.1-.92-1.58c0,0-3.28,1.28-3,0l-2,1.61S119.53,883.13,122.94,881.35Z"/><path class="cls-1" d="M131,885s8.29,1.3,10.1,2.85,4.14,5.16,4.14,7.23c0,0-1.32,1.84-1.44.53l-1.41,2.56a7.93,7.93,0,0,1-1.29-2.32c-.26-1-2.59,1-2.59,1s-1.3,0,0-2.84-.76-1.54-1.82,0-1.29.26-.51-1.55a1.57,1.57,0,0,0-.78-2.32s-2.59,3.1-2.07,1.29a7,7,0,0,1,.77-2.07s-.25-2.06-1.8-2.58A1.63,1.63,0,0,1,131,885Z"/><path class="cls-1" d="M131.29,880.66s3.11,1.54,3.37,2.58-1.3.77-1.3.77Z"/><path class="cls-1" d="M136.21,881.94s4.4.26-.26-1.55-2.33,0-2.33,0Z"/><path class="cls-1" d="M126,906.35s-10.51.65-13.1,4-6.21,15-6.21,15l-.78,6.2s.78,3.35,1.29-.52c0,0,2.76-6,3.71-4.54,0,0,.9,2.42,2.09-1.43s-.36.54-.36.54l1,.78s.52,4.39,1.81-1.55l2.33,1.55-.26-8s1-8.52,1.56-6.71c0,0,.77,5.94,1.55,4.13a12.88,12.88,0,0,0,.52-4.91s3.11,2.84,3.36-.26l-1-1.28,2.85-.52-.78-1Z"/><path class="cls-1" d="M88.21,922.41s3-5.17,5.18-5.51,5.42.39,6.12-1.65,1.48-2.48,3.2-3.17,5.18-3.79,5.18-3.79,2.77-4.14,2.07-.69c0,0-1,4.82-3.1,5.86s-2.42,0-2.42,0l-1.38,4.82s-1.73,1-1.38-1-2.07,4.82-2.07,4.82-2.42-.34-1.73-2.41-3.11,3.45-3.11,3.45l-3.1.69a17.32,17.32,0,0,1,1.37-3.1c.69-1-2.46,2.39-4.48,3.44s-4.15,1.38-5.53,3.45C83,927.58,85.45,923.79,88.21,922.41Z"/><path class="cls-1" d="M133.1,902.35s15.28,7.23,18.39,9.81,8,7,8,7,.25,1-2.59-1c0,0,3.1,3.36,1.29,3.88a25.29,25.29,0,0,0-5.18-5.17c-3.62-2.84-4.4-1.55-4.4-1.55l.52,2.84a13.77,13.77,0,0,0-4.41-5.16s.52-1.55-1.81-2.84S133.1,902.35,133.1,902.35Z"/><path class="cls-1" d="M146.31,903.38s9.32-1.29,14.5,2.07l7.51,8,3.36,3.87s0,.26-2.84-2.33l-1.55-.77s.77,3.61,0,2.32a23.19,23.19,0,0,1-3.89-5.42c-1.55-3.1-3.11-2.58-3.11-2.58H157.7s2.33,4.13,2.07,5.42-1.55-3.1-1.55-3.1l-2.59-3.36-5.18-1-1.29-1.55s-5.94-1.47-7.24-2.8Z"/><path class="cls-1" d="M146.05,890s6.21,0,7.25.78l3.37,2.06-2.59-.51-.26,1-3.89-1.81s-1.29,0-.51,1.29l-1.56-.51-3.36-2.85-1-1Z"/><path class="cls-1" d="M132.06,913.46s.78,5.42,1.82,6.19,5.18,4.39,4.66,2.84a38.62,38.62,0,0,0-2.07-4.39Z"/><path class="cls-1" d="M140.09,923.53s-.52,4.13,1,5.68,2.59,4.91,2.59,4.91,1.29-.26.78-2.33Z"/><path class="cls-1" d="M810.3,951.84s1.59-18.62,1.26-23-.32-12.78-.32-12.78l-.71-11.27s-.59-6.36-.2-7.86a53.25,53.25,0,0,0,.71-5.48s.36-10.86.3-13.31.66-10.23.66-10.23l.41-6.27a44.91,44.91,0,0,0,0-4.76c-.05-2.08-.26-15.08.63-13.67s1.36,16.6,1.36,16.6a17.69,17.69,0,0,1,.22,4.42c-.14,3-.29,5.68-.29,5.68l.18,9-.93,13.85,0,7.39.4,15.73s1,15.68.86,17.17.65,17.35.65,17.35S815.26,955.46,810.3,951.84Z"/><path class="cls-1" d="M811.36,951.84s1.23-16.05,1.14-19.65l-1.66-31.72.71-5.64.4-17.75s.09-7.56.5-8.25.76-9.25.73-10.55c0,0-.07-8.21.26-6.59a123,123,0,0,1,.31,12.45c-.1,1.65-.13,5.92-.1,7.23a40.18,40.18,0,0,1,.15,5.9c-.24,1.66-1.26,17.49-1.06,19.78s.09,9.18.09,9.18,1,21.27,1,22.91,0,12.47.36,14.41.95,9.46-1,10.26S811.36,951.84,811.36,951.84Z"/><path class="cls-1" d="M834.15,902l-.46-1.09c2.09.24-1.45-3.69-1.45-3.69-1.45-1.21-1.14-1.38-1.63-1.85-1.26-1.23-3.41-3.51-2.65-2.44-.44-.62-2.23-.94-2.23-.94s-1,.53-1.07-.46a9.25,9.25,0,0,0-.48-2.26l-1-.59a11.71,11.71,0,0,0-.17-3.05,2.3,2.3,0,0,1,1.31,1.17c1.35,2.85,1.71.37.37-2l2.84,2.75,0-2,2.63,3.25,2.81,1.77a9.64,9.64,0,0,0-2.21-3.29c-1.74-1.84-4.58-4.59-4.58-4.59s-4.5-1.14-5.19-3.06a19.45,19.45,0,0,0-1-2.15c2.16,1.23,4.4,2.27,4.4,2.27l-2.91-2.74-3.72-3.44-1.87-3.09a13.07,13.07,0,0,1-.22-4.17c.05.28.1.55.16.82a7,7,0,0,0,.47,2.95l.85-3.81,0,0-.21,1.75a8.35,8.35,0,0,1,.92,2.56c.13.65.21.13.25-.71a.15.15,0,0,0,.11.06c.29,0,.16-1.58,0-3.19v-.12l.41.42.44,1.78s1.14,6.73,1.6,5.58l0-.1c.33,1,.38-.81.36-2.52.27,1.21.59,2.24.82,2s-.06-2-.46-4l.88.82s.94,3.54,1.52,4.15-.38-3.91-.38-3.91l2,2.15s1.22,3.52,1.79,3.48-.79-3.23-.79-3.23l1.76,2.5c1.34,2.53,3,.76,1.84-.13s-5-6.21-5-6.21a60.21,60.21,0,0,0-3.58-7,4.32,4.32,0,0,0-2.09-1.51l-.74-2.95c.08,0,.14-.11.2-.23l1.87,2.48.82-1,.78,2.57,1.16,1.23-.06-2.62a5.73,5.73,0,0,1,1,1.89,2.34,2.34,0,0,0,1.6,1.52l-1.54-4.48,1.05,1.89c1.33,2.2,2.15,1.15,2.15,1.15l-.94-3.54a22.58,22.58,0,0,0-4.63-3.6c-1.29-.58-4.66-6.31-6.63-9.82a19.39,19.39,0,0,0-.35-4c.86.64,2.16,1.84,2.17,3.33,0,2.25,3.35.63,3.35.63l-1.36-3.35s1.73.86,2.38,1.31a2.65,2.65,0,0,0,1.49.38s-2.64-3.75-3.72-4.16c-.81-.31-4.31-7.38-6-10.87l-.76-3.9-1-6.82a24.26,24.26,0,0,0-.9,6.3c.2,2.29-2.12,8.73-2.12,8.73s-2.59,4.14-4,4.57-2.76,3.15-2.76,3.15-1.23,1.74-2,1.46-1.38,1.42.17,1a12.2,12.2,0,0,0,2.25-.82l-1.49,3.07s.85-.06,1.81-1.45,1.51-2.08,1.51-2.08l-.75,4a1.85,1.85,0,0,0,1.53-1.42,31.62,31.62,0,0,1,1.33-3.38l.79,3.22,2.49-.48a6.52,6.52,0,0,1-.2,1.26s-5,6.27-6.63,7L799,854.06l-2.45,4.12s-.1,1.65,1,.58l1.23-1.73s-1.89,3.75-.91,3.35,1.92-2.44,1.92-2.44l1.4-.76-1.17,4a3.56,3.56,0,0,0,1.93-2.12,4.79,4.79,0,0,1,1.22-2.06l.45.63-.92,3s.83-1,1.51-2.08c.25-.37,1.14-.49,2.17-.49-.5,1.11-1.42,2.22-1.37,4-.6-.27-.64,1.23-1.6,1.3,0,0-4.91,2.33-5.72,3.7A2.76,2.76,0,0,0,795,867c-1.4.76-.38,2,.47,1.94l-1.65,1.76s-3.14,5.16-.89,4.34l1.63-2.75s-.5,2.33.74.93l1.63-2.74-.6,4.31a2.55,2.55,0,0,0,1.08-2.05l.93-2.7s-.14,5.59.24,3.92.9-3.67.9-3.67.22,2.94.91,2.23.36-2.33.36-2.33l1.25-1.4,1.07,3.2a11.52,11.52,0,0,1,1.06-3,1.79,1.79,0,0,1,1.11-.74l.36.75-.1.53c-1.62.82-2.15,3.63-2.15,3.63l0,.7A32.55,32.55,0,0,0,794,880a30.94,30.94,0,0,0-3.41,5.5s-1.62,3.07-.63,3,1.37-2.07,1.37-2.07l1.51-1.75-1,4.67s1.77-2.76,1.88-4.08a3,3,0,0,1,1.36-2.07l-.15,4.94a12.68,12.68,0,0,0,1-1.72c.67-1.36.61-3.65,1-3.68a6,6,0,0,0,1.54-.77l-.35,2.44a.45.45,0,0,0-.29.23,5.14,5.14,0,0,1-1.55,1.76,16,16,0,0,1-.91,2c.7-1.18-2.31,1.24-2.46,3.47-.09,1.16-.44-.3-1.82,1.12,0,0-2.09,3.1-.4,2.65l-1.48,3.06s-3.09,6.8-2,6.71,1.9-3.42,1.9-3.42-.5,2.66.64,2.91S792,901.2,792,901.2l1.6-3.37v0c-.1.53-1.06,5.92,0,5.53s.45-5,1.7-5.71a12.63,12.63,0,0,0,2.64-2.49s-.86,5.32-.19,4,2.11-6.39,2.82-6.44-.67,7.27,2,1.49a40.08,40.08,0,0,0,1.87-4.34l2,.77.3,1.22-1.44,1.4s-.35-.18-.47,1.27-.78,1.55-.78,1.55a9.84,9.84,0,0,1-.52,2c.52-1.24-1.63,1.68-2.21,2.47a9,9,0,0,0-1.5,1A8.19,8.19,0,0,0,799,904c-.3.37-.58.71-.83,1a5.86,5.86,0,0,0-3,1.89l-2.6,4.89-2.25,3s-2.3,6.63.93,2.19l1.63-3.69,1.26.3-2,3.69s-2.52,5.55,1.2.57a19.43,19.43,0,0,0,2-3.95l1.41-1.15c-.77,2.57-1.73,6.1-1.27,6.31.72.35,1.64-4.21,1.64-4.21s-.67,3.68,0,4.51,1.05-4.47,1.05-4.47l.35-.48a9.12,9.12,0,0,0,.7,1.37c0,1.4.08,2.89.48,2.82.76-.14,1.13-5.85,2-6.43l.08-.06a15.83,15.83,0,0,0,.75,3.93c-.54,3.2-1.44,8.79-1.05,9.12.54.47,1.16-5.29,1.16-5.29s-.44,4.65.08,5.73,1.31-5.79,1.31-5.79l1-5.41s-.73,6.54-.17,6.4.62-4.07,1.26-4.77.43,0,.43,0-.09,5.3.33,3.15c.24-1.2.47-3.32.68-4.91l.49,2.35.25-.15c.11,1.86.37,2.64,1.18-2.38.64-4,.82-5.23.82-5.23l1.35-.68s.41.36.59-1.07c.22.92.51,2.14.91,3.75,2,8.23.76-2.52,1.22-2.55s1.65,7.27,2.16,9.2-.33-5.88-.33-5.88a14.92,14.92,0,0,0,1.82,3.31c.85.92.66,7.83,1.4,8.26s-.3-8.34-.3-8.34l1.22,4.83s.88,5.85,1.6,5.3.26-4.45.26-4.45.67,4.88,1.4,4.82-1.62-9.72-1.62-9.72L821,911.21c1.11.41.85-4.37-.11-6.27-.17-.32-.35-.46-.54-.48-.08-.39-.14-.66-.14-.66a10.85,10.85,0,0,0,2.75,2.1c1.29.56.84,5.19,2,5.43s-.28-5.56-.28-5.56l1.78,3.15s1.23,3.85,2.36,3.44.49-3,.49-3,.93,3.22,2.07,3.13-2.29-6.39-2.29-6.39l-1.64-2.84a1,1,0,0,0,1.12-.91c.71,1.37.54,4.7,1.5,4.91,1.14.24-.28-5.56-.28-5.56l1.78,3.15s1.23,3.84,2.36,3.44.49-3,.49-3,.93,3.21,2.07,3.13S834.15,902,834.15,902Z"/><path class="cls-1" d="M809.71,846.89l-3.66,3.55a33.72,33.72,0,0,1-3.65,3s-3.13,2.08-1.91,2.08L798.82,857s-.25,1.11.45.52l1.74-1.78h1s-1.56,2.37-.69,2.07a4.75,4.75,0,0,0,1.74-1.48l.86-.29-.3,1.59,1-.7,1.74-.6,1.05-2.07-1.4-.29a2,2,0,0,1,1.05-2.37C808.66,850.74,811.27,845.41,809.71,846.89Z"/><path class="cls-1" d="M810.58,837.41a11.8,11.8,0,0,0,1.56-3.56c.53-2.07,1.4,1.78,1.4,1.78s2.06,2.1,1-.73l2.62,3.69-3.83-7.4s-.87-3.55-1-5,0-4.15-1.05.29l-2.08,7.11-1.4,2.37s-2.26,1.77-3.13,2.37a15.51,15.51,0,0,0-2.43,3.26s-.18,2.36.87.29,1.56-1.77,1.56-1.77l.7.29,1.39-1.48,2.44-1.19s-.7,2.38,0,1.78A8,8,0,0,0,810.58,837.41Z"/><path class="cls-1" d="M812,847.48s.1,3,1.5,3.55-.18-2.25-.18-2.25l1.44.88s2.86,2.73,2,1.17S815,847,815,847s-2-2.16-1.12-.41-2-.34-2-.34Z"/><path class="cls-1" d="M817.54,851.92s3.13,3.56,4.35,4.15,3.65,2.37,4,3.26,1,1.69-.18.88L824,859l.86,2.37-1.73-2.67-.35,1.78-.87-2.67-1.39.89-1.74-2.66-3.83-2.67.17-1.48S817.88,855.77,817.54,851.92Z"/><path class="cls-1" d="M813.81,860.43s-3.13.55-2.88-.93l-.45,2-1-.74-1.23.74s0,1.67.35.92l1.05.19a2,2,0,0,0-1.4,1.48c-.35,1.3.7,0,.7,0l-.7,1.86s-.35,1.3.87-.37.36,1.48.36,1.48.34,1.11.69-.18,1-.93,1.75-.19,1.58,4.08,1.4,1.67l-.74-2.39s1.62,1.65,1.62,2.39,1-.37-.35-2.6c0,0,1.22-.55.17-1.67L813.4,863l.93.6s.08-.5-.87-1.3l-.35-1.11S815.07,862.35,813.81,860.43Z"/><path class="cls-1" d="M806.58,863.77,804.31,867l-1-.89s-1.57,3-1.74,1.78,2.61-4.15,2.61-4.15Z"/><path class="cls-1" d="M801,865.84l-2.26,2.37-1,2.08-.52-1.19-1.91,2.67s-1.75,0,0-2.08S801,865.84,801,865.84Z"/><path class="cls-1" d="M797.53,867.92s-3.31-1.19-1.57.59Z"/><path class="cls-1" d="M803.1,875.32s-4.7,1.48-5.22,2.37-3.14,2.37-1.4,2.37h3.31l5.91-5Z"/><path class="cls-1" d="M806.4,875.32l-8.18,10.37a4.57,4.57,0,0,0-1.91,2.07c-.35,1.18-2.09,1.18-2.26,2.67l-.53,2.36a2.63,2.63,0,0,0-2.08,1.49l-.35,2.07-2.26,4.44s0,.89,1.39-.89c0,0-.87,5.33,1.39-.29l1.91-3.26s-.17,4.14.35,2.37l.87-2.37,2.79-2.07.87-.6.17,1.19,1.39-3.56.87-6.22s1.22-1.77,2.09-1.48.7-2.07.7-2.07,4.35-2.37,2.26-2.67l-1.39.3S808.49,873,806.4,875.32Z"/><path class="cls-1" d="M811.2,875.54l-2.3,2.66s-1.08.89.13,1,.37.17.37.17l-.45,1.17s-2.07,2.07-1.37,1.92.79.12.79.12l-1,2.08s-1,2.09-.23,1.51L806.6,888s-.27,1.72.6.5l1.24-2-.94,4.41s-.27,1.71.63-.64A10.88,10.88,0,0,0,809,887l-.13,5.22s.5,1.14.77-1.49l.34-3.07s1-1.16,1.07.94.71,2.38.48-1.39l-.21-2.17s1.66,4.19,1,.24c0,0,.47.44,0-2.74a2.85,2.85,0,0,0,.68-2.69l-.32-1.84s-1.29,2.73-1.44.14l1.22-2.67s-.95.95-.46-1.36c0,0-1.66,1.11-1.49,0l-1,1.38S809.48,877.08,811.2,875.54Z"/><path class="cls-1" d="M815.27,878.73s4.18,1.11,5.09,2.44a14.32,14.32,0,0,1,2.09,6.22s-.66,1.59-.72.46l-.71,2.2a9.19,9.19,0,0,1-.66-2c-.13-.89-1.3.88-1.3.88s-.65,0,0-2.44-.38-1.32-.91,0-.66.22-.27-1.33-.39-2-.39-2-1.3,2.66-1,1.11a8.33,8.33,0,0,1,.39-1.78s-.13-1.77-.91-2.22A1.68,1.68,0,0,1,815.27,878.73Z"/><path class="cls-1" d="M815.41,875s1.56,1.33,1.69,2.22-.65.67-.65.67Z"/><path class="cls-1" d="M817.88,876.06s2.22.22-.13-1.33-1.17,0-1.17,0Z"/><path class="cls-1" d="M812.74,897.05s-5.29.56-6.6,3.44S803,913.38,803,913.38l-.39,5.33s.39,2.89.65-.44c0,0,1.39-5.15,1.87-3.91,0,0,.45,2.09,1.05-1.22s-.18.46-.18.46l.52.67s.26,3.77.92-1.34l1.17,1.34-.13-6.89s.52-7.33.78-5.77c0,0,.39,5.1.79,3.55a18.78,18.78,0,0,0,.26-4.22s1.56,2.44,1.69-.22l-.52-1.11,1.44-.45-.4-.89Z"/><path class="cls-1" d="M793.7,910.86s1.52-4.44,2.61-4.74,2.73.34,3.08-1.42.75-2.13,1.62-2.72a18.54,18.54,0,0,0,2.61-3.26s1.39-3.56,1-.6c0,0-.52,4.15-1.56,5s-1.22,0-1.22,0l-.7,4.15s-.87.89-.69-.89-1,4.14-1,4.14-1.22-.29-.87-2.07-1.57,3-1.57,3l-1.56.59a22.26,22.26,0,0,1,.69-2.66c.35-.89-1.24,2.06-2.26,3s-2.08,1.19-2.78,3C791.09,915.31,792.31,912,793.7,910.86Z"/><path class="cls-1" d="M816.32,893.61s7.7,6.22,9.27,8.44,4,6,4,6,.13.89-1.3-.89c0,0,1.56,2.89.65,3.33a21.52,21.52,0,0,0-2.61-4.44c-1.83-2.45-2.22-1.34-2.22-1.34l.26,2.45a12.64,12.64,0,0,0-2.22-4.44,2.84,2.84,0,0,0-.91-2.45A79.48,79.48,0,0,1,816.32,893.61Z"/><path class="cls-1" d="M823,894.5s4.69-1.11,7.3,1.77l3.79,6.89,1.69,3.33s0,.22-1.43-2l-.78-.66s.39,3.11,0,2a22.75,22.75,0,0,1-2-4.67c-.79-2.66-1.57-2.22-1.57-2.22h-1.3s1.17,3.55,1,4.66-.78-2.66-.78-2.66l-1.31-2.89-2.61-.89-.65-1.33s-3-1.27-3.65-2.41Z"/><path class="cls-1" d="M822.84,883s3.14,0,3.66.66l1.69,1.78-1.3-.44-.13.88-2-1.55s-.65,0-.26,1.11l-.78-.44-1.7-2.45-.52-.89Z"/><path class="cls-1" d="M815.8,903.16s.39,4.66.91,5.33,2.61,3.78,2.35,2.45-1-3.78-1-3.78Z"/><path class="cls-1" d="M819.84,911.82s-.26,3.56.52,4.89a17,17,0,0,1,1.31,4.22s.65-.22.39-2Z"/><path class="cls-1" d="M1870.3,1021s1.59-17.11,1.26-21.17-.32-11.74-.32-11.74l-.71-10.36s-.59-5.84-.2-7.23a44.88,44.88,0,0,0,.71-5s.36-10,.3-12.24.66-9.39.66-9.39l.41-5.77a37.84,37.84,0,0,0,0-4.37c0-1.92-.26-13.87.63-12.57s1.36,15.26,1.36,15.26a15,15,0,0,1,.22,4.06c-.14,2.73-.29,5.23-.29,5.23l.18,8.24-.93,12.74,0,6.79.4,14.45s1,14.42.86,15.79.65,15.94.65,15.94S1875.26,1024.34,1870.3,1021Z"/><path class="cls-1" d="M1871.36,1021s1.23-14.75,1.14-18.06l-1.66-29.16.71-5.18.4-16.31s.09-6.95.5-7.58.76-8.5.73-9.7c0,0-.07-7.54.26-6a103.79,103.79,0,0,1,.31,11.44c-.1,1.51-.13,5.44-.1,6.64a34.06,34.06,0,0,1,.15,5.43c-.24,1.52-1.26,16.07-1.06,18.17s.09,8.44.09,8.44,1,19.55,1,21.06,0,11.46.36,13.25,1,8.68-1,9.42S1871.36,1021,1871.36,1021Z"/><path class="cls-1" d="M1894.15,975.24l-.46-1c2.09.23-1.45-3.39-1.45-3.39-1.45-1.11-1.14-1.26-1.63-1.69-1.26-1.13-3.41-3.23-2.65-2.24-.44-.57-2.23-.87-2.23-.87s-1,.48-1.07-.42a8,8,0,0,0-.48-2.08l-1-.54a10,10,0,0,0-.17-2.81,2.29,2.29,0,0,1,1.31,1.08c1.35,2.62,1.71.34.37-1.84l2.84,2.53,0-1.81,2.63,3,2.81,1.62a8.79,8.79,0,0,0-2.21-3c-1.74-1.69-4.58-4.22-4.58-4.22s-4.5-1-5.19-2.81a17.61,17.61,0,0,0-1-2c2.16,1.13,4.4,2.09,4.4,2.09l-2.91-2.52-3.72-3.16-1.87-2.84a11.09,11.09,0,0,1-.22-3.84c0,.26.1.51.16.76a5.94,5.94,0,0,0,.47,2.71l.85-3.51,0,.05-.21,1.61a7.26,7.26,0,0,1,.92,2.35c.13.6.21.12.25-.65a.18.18,0,0,0,.11.05c.29,0,.16-1.45,0-2.93v-.12l.41.4.44,1.63s1.14,6.18,1.6,5.13l0-.09c.33.91.38-.75.36-2.32.27,1.11.59,2.06.82,1.84s-.06-1.81-.46-3.68l.88.74s.94,3.26,1.52,3.82-.38-3.6-.38-3.6l2,2s1.22,3.24,1.79,3.2-.79-3-.79-3l1.76,2.29c1.34,2.32,3,.7,1.84-.12s-5-5.7-5-5.7a54.11,54.11,0,0,0-3.58-6.4,4.3,4.3,0,0,0-2.09-1.38l-.74-2.72c.08,0,.14-.1.2-.2l1.87,2.28.82-1,.78,2.36,1.16,1.13-.06-2.41a5.18,5.18,0,0,1,1,1.74,2.33,2.33,0,0,0,1.6,1.4l-1.54-4.12,1,1.74c1.33,2,2.15,1.06,2.15,1.06l-.94-3.26a22.41,22.41,0,0,0-4.63-3.3c-1.29-.54-4.66-5.81-6.63-9a16.46,16.46,0,0,0-.35-3.72c.86.59,2.16,1.69,2.17,3.06,0,2.07,3.35.58,3.35.58l-1.36-3.08s1.73.8,2.38,1.2a2.78,2.78,0,0,0,1.49.35s-2.64-3.44-3.72-3.82c-.81-.28-4.31-6.78-6-10l-.76-3.58-1-6.27a20.68,20.68,0,0,0-.9,5.79c.2,2.1-2.12,8-2.12,8s-2.59,3.8-4,4.19-2.76,2.9-2.76,2.9-1.23,1.6-2,1.34-1.38,1.3.17.9a13,13,0,0,0,2.25-.76l-1.49,2.82s.85-.06,1.81-1.33,1.51-1.91,1.51-1.91l-.75,3.67a1.84,1.84,0,0,0,1.53-1.31,28.05,28.05,0,0,1,1.33-3.11l.79,3,2.49-.44a5.56,5.56,0,0,1-.2,1.16s-5,5.76-6.63,6.48l-3.78,1.76-2.45,3.79s-.1,1.51,1,.54l1.23-1.6s-1.89,3.45-.91,3.08,1.92-2.24,1.92-2.24l1.4-.7-1.17,3.7a3.46,3.46,0,0,0,1.93-1.94,4.3,4.3,0,0,1,1.22-1.89l.45.57-.92,2.78s.83-1,1.51-1.91c.25-.35,1.14-.46,2.17-.46-.5,1-1.42,2-1.37,3.72-.6-.24-.64,1.14-1.6,1.2,0,0-4.91,2.14-5.72,3.41a2.93,2.93,0,0,0-2.7-.12c-1.4.7-.38,1.83.47,1.78l-1.65,1.62s-3.14,4.74-.89,4l1.63-2.52s-.5,2.14.74.85l1.63-2.52-.6,4a2.32,2.32,0,0,0,1.08-1.88l.93-2.48s-.14,5.14.24,3.6.9-3.38.9-3.38.22,2.71.91,2,.36-2.13.36-2.13l1.25-1.29,1.07,2.94a10.11,10.11,0,0,1,1.06-2.79,1.8,1.8,0,0,1,1.11-.67l.36.69-.1.48c-1.62.76-2.15,3.33-2.15,3.33l0,.65A32.72,32.72,0,0,0,1854,955a28.28,28.28,0,0,0-3.41,5.05s-1.62,2.83-.63,2.76,1.37-1.9,1.37-1.9l1.51-1.61-1,4.29s1.77-2.53,1.88-3.74a2.77,2.77,0,0,1,1.36-1.91l-.15,4.54a11.41,11.41,0,0,0,1-1.57c.67-1.26.61-3.37,1-3.39a6.28,6.28,0,0,0,1.54-.71l-.35,2.24a.46.46,0,0,0-.29.22,4.83,4.83,0,0,1-1.55,1.61,14.4,14.4,0,0,1-.91,1.87c.7-1.08-2.31,1.14-2.46,3.18-.09,1.07-.44-.27-1.82,1,0,0-2.09,2.86-.4,2.44l-1.48,2.82s-3.09,6.24-2,6.17,1.9-3.15,1.9-3.15-.5,2.45.64,2.67,2.18-3.46,2.18-3.46l1.6-3.1v0c-.1.49-1.06,5.44,0,5.08s.45-4.56,1.7-5.25a12,12,0,0,0,2.64-2.28s-.86,4.88-.19,3.63,2.11-5.88,2.82-5.93-.67,6.69,2,1.38a35.07,35.07,0,0,0,1.87-4l2,.71.3,1.11-1.44,1.3s-.35-.17-.47,1.16-.78,1.43-.78,1.43a8.39,8.39,0,0,1-.52,1.83c.52-1.14-1.63,1.55-2.21,2.28a8.4,8.4,0,0,0-1.5.92A7.25,7.25,0,0,0,1859,977c-.3.34-.58.66-.83.92a6,6,0,0,0-3,1.74l-2.6,4.5-2.25,2.78s-2.3,6.08.93,2l1.63-3.39,1.26.28-2,3.39s-2.52,5.1,1.2.53a17.41,17.41,0,0,0,2.05-3.63l1.41-1.06c-.77,2.36-1.73,5.6-1.27,5.8.72.32,1.64-3.87,1.64-3.87s-.67,3.38,0,4.14,1-4.1,1-4.1l.35-.44a8.32,8.32,0,0,0,.7,1.25c0,1.29.08,2.66.48,2.59.76-.13,1.13-5.38,2-5.91l.08,0a13.54,13.54,0,0,0,.75,3.61c-.54,2.94-1.44,8.08-1,8.38.54.43,1.16-4.86,1.16-4.86s-.44,4.28.08,5.27,1.31-5.32,1.31-5.32l1-5s-.73,6-.17,5.89.62-3.75,1.26-4.39.43,0,.43,0-.09,4.88.33,2.9c.24-1.11.47-3,.68-4.51l.49,2.15.25-.13c.11,1.71.37,2.42,1.18-2.19.64-3.66.82-4.81.82-4.81l1.35-.62s.41.33.59-1c.22.85.51,2,.91,3.45,2,7.55.76-2.32,1.22-2.35s1.65,6.68,2.16,8.46-.33-5.41-.33-5.41a13.27,13.27,0,0,0,1.82,3c.85.85.66,7.2,1.4,7.6s-.3-7.67-.3-7.67l1.22,4.44s.88,5.37,1.6,4.87.26-4.09.26-4.09.67,4.48,1.4,4.43-1.62-8.94-1.62-8.94l-1.12-4c1.11.38.85-4-.11-5.76-.17-.3-.35-.43-.54-.44-.08-.36-.14-.61-.14-.61a10.91,10.91,0,0,0,2.75,1.93c1.29.51.84,4.77,2,5s-.28-5.11-.28-5.11l1.78,2.9s1.23,3.54,2.36,3.16.49-2.75.49-2.75.93,2.95,2.07,2.88S1889,979,1889,979l-1.64-2.61a1,1,0,0,0,1.12-.84c.71,1.26.54,4.32,1.5,4.51,1.14.23-.28-5.11-.28-5.11l1.78,2.9s1.23,3.53,2.36,3.16.49-2.75.49-2.75.93,3,2.07,2.88S1894.15,975.24,1894.15,975.24Z"/><path class="cls-1" d="M1869.71,924.55l-3.66,3.27a33.78,33.78,0,0,1-3.65,2.72s-3.13,1.9-1.91,1.9l-1.67,1.43s-.25,1,.45.48l1.74-1.64h1s-1.56,2.18-.69,1.91a4.68,4.68,0,0,0,1.74-1.36l.86-.27-.3,1.46,1-.65,1.74-.54,1-1.91-1.4-.27a1.75,1.75,0,0,1,1-2.17C1868.66,928.09,1871.27,923.19,1869.71,924.55Z"/><path class="cls-1" d="M1870.58,915.84a10.47,10.47,0,0,0,1.56-3.27c.53-1.9,1.4,1.64,1.4,1.64s2.06,1.92,1-.67l2.62,3.39-3.83-6.81s-.87-3.26-1-4.62,0-3.82-1,.27l-2.08,6.53-1.4,2.18s-2.26,1.63-3.13,2.18a14.33,14.33,0,0,0-2.43,3s-.18,2.18.87.27,1.56-1.63,1.56-1.63l.7.27,1.39-1.36,2.44-1.09s-.7,2.18,0,1.64A7.41,7.41,0,0,0,1870.58,915.84Z"/><path class="cls-1" d="M1872,925.09s.1,2.73,1.5,3.27-.18-2.07-.18-2.07l1.44.81s2.86,2.51,2,1.07-1.8-3.5-1.8-3.5-2-2-1.12-.37-2-.32-2-.32Z"/><path class="cls-1" d="M1877.54,929.18s3.13,3.26,4.35,3.81,3.65,2.18,4,3,1,1.56-.18.82l-1.73-1.09.86,2.18-1.73-2.45-.35,1.63-.87-2.45-1.39.82-1.74-2.45-3.83-2.45.17-1.36S1877.88,932.71,1877.54,929.18Z"/><path class="cls-1" d="M1873.81,937s-3.13.51-2.88-.86l-.45,1.88-1-.69-1.23.69s0,1.53.35.85l1,.17a1.88,1.88,0,0,0-1.4,1.36c-.35,1.19.7,0,.7,0l-.7,1.71s-.35,1.19.87-.34.36,1.36.36,1.36.34,1,.69-.17,1-.85,1.75-.17,1.58,3.75,1.4,1.53l-.74-2.2s1.62,1.52,1.62,2.2,1-.34-.35-2.38c0,0,1.22-.52.17-1.54l-.58-1.06.93.55s.08-.46-.87-1.19l-.35-1S1875.07,938.76,1873.81,937Z"/><path class="cls-1" d="M1866.58,940.07l-2.27,3-1-.81s-1.57,2.72-1.74,1.63,2.61-3.81,2.61-3.81Z"/><path class="cls-1" d="M1861,942l-2.26,2.18-1,1.91-.52-1.09-1.91,2.45s-1.75,0,0-1.91S1861,942,1861,942Z"/><path class="cls-1" d="M1857.53,943.88s-3.31-1.09-1.57.54Z"/><path class="cls-1" d="M1863.1,950.68s-4.7,1.36-5.22,2.18-3.14,2.18-1.4,2.18h3.31l5.91-4.63Z"/><path class="cls-1" d="M1866.4,950.68l-8.18,9.53s-1.56.82-1.91,1.91-2.09,1.08-2.26,2.45l-.53,2.17a2.65,2.65,0,0,0-2.08,1.36l-.35,1.91-2.26,4.08s0,.82,1.39-.81c0,0-.87,4.9,1.39-.27l1.91-3s-.17,3.81.35,2.18l.87-2.18,2.79-1.91.87-.54.17,1.09,1.39-3.27.87-5.72s1.22-1.63,2.09-1.36.7-1.9.7-1.9,4.35-2.18,2.26-2.45l-1.39.27S1868.49,948.5,1866.4,950.68Z"/><path class="cls-1" d="M1871.2,950.89l-2.3,2.43s-1.08.83.13.9.37.15.37.15l-.45,1.08s-2.07,1.9-1.37,1.76.79.12.79.12l-1,1.91s-1,1.92-.23,1.39l-.55,1.67s-.27,1.58.6.46l1.24-1.82-.94,4s-.27,1.58.63-.59a9.34,9.34,0,0,0,.91-3l-.13,4.8s.5,1,.77-1.38L1870,962s1-1.07,1.07.86.71,2.19.48-1.28l-.21-2s1.66,3.85,1.05.22c0,0,.47.4,0-2.52a2.5,2.5,0,0,0,.68-2.47l-.32-1.7s-1.29,2.51-1.44.14l1.22-2.46s-1,.88-.46-1.25c0,0-1.66,1-1.49,0l-1,1.27S1869.48,952.3,1871.2,950.89Z"/><path class="cls-1" d="M1875.27,953.81s4.18,1,5.09,2.25a12.45,12.45,0,0,1,2.09,5.72s-.66,1.45-.72.42l-.71,2a8,8,0,0,1-.66-1.83c-.13-.82-1.3.81-1.3.81s-.65,0,0-2.24-.38-1.22-.91,0-.66.2-.27-1.23-.39-1.83-.39-1.83-1.3,2.45-1,1a7.13,7.13,0,0,1,.39-1.64s-.13-1.63-.91-2A1.49,1.49,0,0,1,1875.27,953.81Z"/><path class="cls-1" d="M1875.41,950.34s1.56,1.23,1.69,2-.65.62-.65.62Z"/><path class="cls-1" d="M1877.88,951.36s2.22.21-.13-1.22-1.17,0-1.17,0Z"/><path class="cls-1" d="M1872.74,970.65s-5.29.52-6.6,3.17-3.13,11.84-3.13,11.84l-.39,4.9s.39,2.66.65-.41c0,0,1.39-4.73,1.87-3.59,0,0,.45,1.92,1-1.12s-.18.43-.18.43l.52.61s.26,3.47.92-1.23l1.17,1.23-.13-6.33s.52-6.74.78-5.31c0,0,.39,4.7.79,3.27a15.89,15.89,0,0,0,.26-3.88s1.56,2.25,1.69-.21l-.52-1,1.44-.41-.4-.82Z"/><path class="cls-1" d="M1853.7,983.35s1.52-4.08,2.61-4.36,2.73.31,3.08-1.3a3.06,3.06,0,0,1,1.62-2.51,17,17,0,0,0,2.61-3s1.39-3.27,1-.55c0,0-.52,3.82-1.56,4.63s-1.22,0-1.22,0l-.7,3.81s-.87.82-.69-.81-1,3.81-1,3.81-1.22-.28-.87-1.91-1.57,2.72-1.57,2.72l-1.56.55a18.75,18.75,0,0,1,.69-2.45c.35-.82-1.24,1.89-2.26,2.72s-2.08,1.09-2.78,2.72C1851.09,987.43,1852.31,984.44,1853.7,983.35Z"/><path class="cls-1" d="M1876.32,967.49s7.7,5.72,9.27,7.76,4,5.51,4,5.51.13.82-1.3-.81c0,0,1.56,2.65.65,3.06a19.53,19.53,0,0,0-2.61-4.09c-1.83-2.24-2.22-1.22-2.22-1.22l.26,2.25a11.29,11.29,0,0,0-2.22-4.09,2.46,2.46,0,0,0-.91-2.24A73.62,73.62,0,0,1,1876.32,967.49Z"/><path class="cls-1" d="M1883,968.31s4.69-1,7.3,1.63l3.79,6.33,1.69,3.06s0,.21-1.43-1.84l-.78-.61s.39,2.86,0,1.84a20.15,20.15,0,0,1-2-4.29c-.79-2.45-1.57-2-1.57-2h-1.3s1.17,3.27,1,4.29-.78-2.45-.78-2.45l-1.31-2.66-2.61-.81-.65-1.23s-3-1.16-3.65-2.21Z"/><path class="cls-1" d="M1882.84,957.69s3.14,0,3.66.61l1.69,1.64-1.3-.41-.13.82-2-1.43s-.65,0-.26,1l-.78-.41-1.7-2.25-.52-.81Z"/><path class="cls-1" d="M1875.8,976.27s.39,4.29.91,4.9,2.61,3.47,2.35,2.25-1-3.47-1-3.47Z"/><path class="cls-1" d="M1879.84,984.23s-.26,3.27.52,4.49a14.76,14.76,0,0,1,1.31,3.88s.65-.2.39-1.84Z"/></g><path class="cls-1" d="M-44,986.84s621.68-169.16,864.39-45.49c258.74,131.84,690.68,121.59,939,80.57s199.8-26.83,199.8-26.83L1963,1175H-44Z"/><polygon class="cls-1" points="948.5 996.15 942 971 955.45 956.28 970 954 988 949 998 952 1004.06 961.49 1014.15 972.58 1014 981 1021 992 1016 1000 1002 1007 948.5 996.15"/><path class="cls-1" d="M1498,1047.24l19.72,7.76h22.47l8.71-7.76L1553,1037v-15l-11.92-12.39-17.43-9.89-19.26,7.92-24.39,9.75v13.11s3.34,8.53,4.67,12S1498,1047.24,1498,1047.24Z"/><path class="cls-1" d="M1841.47,1006.63s.9-12.7.64-14.78-.26-6-.26-6l-.57-5.3s-.46-3-.15-3.69a15.79,15.79,0,0,0,.56-2.58s.29-5.1.24-6.26a42.85,42.85,0,0,1,.53-4.8l.33-3a12.83,12.83,0,0,0,0-2.23c0-1-.21-7.09.5-6.43s1.09,7.8,1.09,7.8a5,5,0,0,1,.17,2.08c-.11,1.39-.22,2.67-.22,2.67l.14,4.22-.74,6.51,0,3.47.32,7.39s.82,7.37.68,8.07,1.14,11.9,1.14,11.9S1845.33,1007.18,1841.47,1006.63Z"/><path class="cls-1" d="M1841.84,1006.54s1.09-11.4,1-13.1l-1.32-14.91.56-2.64.32-8.35s.08-3.55.4-3.87.61-4.35.58-5c0,0-.05-3.85.21-3.09a33.66,33.66,0,0,1,.25,5.85c-.08.77-.11,2.78-.08,3.4a11.82,11.82,0,0,1,.12,2.77,75.39,75.39,0,0,0-.85,9.3,42,42,0,0,1,.07,4.31s.78,10,.81,10.77.11,5.84.29,6.77c1.66,8.49,1.72,7.22-.54,7.76C1842.11,1006.92,1841.84,1006.54,1841.84,1006.54Z"/><path class="cls-1" d="M1824.27,977.74l1.18-1.44c-1.35.21.32-1.25.32-1.25,1.1-.66,1.38,0,1.44-.52.13-1,2.53-2.19,2-1.63a6.68,6.68,0,0,0,.72-1,3.73,3.73,0,0,0,1.24-.82.35.35,0,0,1,.24-.11l.27-1.15a6.22,6.22,0,0,1-1.22.36c-.34,0-.3,1.09-.84,1.73a6.05,6.05,0,0,1-.75.81l.12-2.32s-1,.35-1.09,1-1.5,1.92-1.5,1.92l.81-2.2L1826,972s-.3.94-1.09,1,.51-1.41.51-1.41a15.77,15.77,0,0,1,2.72-2.59,30.8,30.8,0,0,1,7.5-2.9l0-.33a2.85,2.85,0,0,1,1.71-1.7l.09-.25-.29-.36a1.76,1.76,0,0,0-.89.35,4.12,4.12,0,0,0-.84,1.42l-.86-1.5-1,.66s.26.76-.29,1.09-.73-1-.73-1-.41.94-.71,1.72-.2-1.84-.2-1.84l-.73,1.26c0,.62-.87,1-.87,1l.48-2-1.3,1.29c-1,.66-.59-.44-.59-.44l-1.3,1.29c-1.79.39.71-2,.71-2l1.32-.83c-.68,0-1.5-.55-.38-.91a3.54,3.54,0,0,1,2.15.06c.65-.64,4.57-1.74,4.57-1.74.77,0,.8-.73,1.27-.61,0-.86.7-1.38,1.1-1.91a3.62,3.62,0,0,0-1.73.24c-.55.49-1.21,1-1.21,1l.73-1.41-.35-.3a2.58,2.58,0,0,0-1,1,2.65,2.65,0,0,1-1.55,1l.94-1.89-1.12.36a3.53,3.53,0,0,1-1.53,1.14c-.79.19.72-1.57.72-1.57l-1,.81c-.88.5-.8-.27-.8-.27l1.95-1.94,3-.9c1.34-.36,5.29-3.31,5.29-3.31a2.17,2.17,0,0,0,.15-.6l-2,.23-.63-1.51a12.33,12.33,0,0,0-1.06,1.59,1.53,1.53,0,0,1-1.22.66l.6-1.87s-.44.33-1.21,1a2.56,2.56,0,0,1-1.44.67l1.18-1.43a13.29,13.29,0,0,1-1.79.38c-1.24.21-.7-.58-.13-.46s1.55-.68,1.55-.68a4.76,4.76,0,0,1,2.2-1.48c1.13-.21,3.19-2.15,3.19-2.15s1.85-3,1.69-4.1a7.16,7.16,0,0,1,.73-3l.81,3.2.61,1.83c1.34,1.64,4.14,5,4.78,5.11a13.56,13.56,0,0,1,3,2,3.25,3.25,0,0,1-1.2-.17c-.52-.21-1.9-.62-1.9-.62l1.09,1.58s-2.65.76-2.67-.3c0-.7-1-1.26-1.74-1.56a5.8,5.8,0,0,1,.29,1.9c1.57,1.64,4.26,4.34,5.29,4.61a20.09,20.09,0,0,1,3.69,1.69l.75,1.67s-.66.49-1.72-.54l-.83-.89,1.22,2.1a1.94,1.94,0,0,1-1.28-.71,2.82,2.82,0,0,0-.83-.89l.06,1.23-.93-.58-.62-1.2-.66.49-1.49-1.17a.31.31,0,0,1-.16.1l.59,1.39a4.09,4.09,0,0,1,1.67.71,27.84,27.84,0,0,1,2.86,3.27,39.84,39.84,0,0,0,4,2.92c.93.42-.4,1.25-1.47.06l-1.41-1.17s1.09,1.49.64,1.51-1.43-1.63-1.43-1.63l-1.63-1s.77,2.12.31,1.84a7.09,7.09,0,0,1-1.22-2l-.7-.38c.32,1,.53,1.78.37,1.88s-.44-.37-.66-.94c0,.8,0,1.64-.29,1.18a.08.08,0,0,1,0,.05c-.37.54-1.28-2.62-1.28-2.62l-.35-.83-.32-.2v.06c.16.75.26,1.51,0,1.49l-.09,0c0,.39-.09.63-.2.33a3.18,3.18,0,0,0-.73-1.2l.16-.83v0l-.68,1.8a2.25,2.25,0,0,1-.38-1.38l-.12-.4a3.62,3.62,0,0,0,.17,2l1.5,1.46,3,1.61,2.31,1.29s-1.78-.49-3.51-1.07a8.76,8.76,0,0,1,.77,1c.55.91,4.13,1.44,4.13,1.44s2.27,1.3,3.66,2.16a5.18,5.18,0,0,1,1.77,1.54l-2.25-.82-2.1-1.53,0,.92-2.26-1.29c1.06,1.11.78,2.28-.3.94a1.83,1.83,0,0,0-1-.55,3.19,3.19,0,0,1,.14,1.43l.79.28a3,3,0,0,1,.39,1.06c0,.47.85.22.85.22a5.51,5.51,0,0,1,1.77.44c-.6-.5,1.11.57,2.12,1.15a5,5,0,0,0,1.3.87s2.83,1.85,1.16,1.73l.36.51s2.73,3,1.83,3-1.65-1.47-1.65-1.47.51,1.21-.39,1.4-1.88-1.61-1.88-1.61l-1.42-1.48s1.13,2.72.22,2.61-.63-1.66-1.19-2.31c-.1.28-.39.47-.9.43l1.3,1.33s2.73,3,1.83,3-1.65-1.47-1.65-1.47.51,1.21-.39,1.41-1.88-1.62-1.88-1.62l-1.42-1.48s1.13,2.73.22,2.61-.55-2.29-1.58-2.55a9.68,9.68,0,0,1-2.19-1s0,.13.11.31a.58.58,0,0,1,.43.23c.77.89,1,3.14.09,3l.89,2s1.88,4.54,1.3,4.57-1.12-2.26-1.12-2.26.37,1.83-.21,2.09-1.27-2.49-1.27-2.49l-1-2.27s.84,4.13.24,3.92-.44-3.45-1.12-3.89a7.15,7.15,0,0,1-1.45-1.55s.67,3.67.26,2.76-1.35-4.34-1.72-4.32.66,5.06-1,1.2c-.32-.76-.55-1.33-.73-1.77-.14.68-.47.51-.47.51l-1.07.32s-.15.58-.66,2.45c-.65,2.36-.85,2-1,1.12l-.19.07L1839,985c-.17.75-.36,1.74-.55,2.31-.34,1-.26-1.48-.26-1.48s.18-.32-.34,0-.56,2.17-1,2.24.14-3,.14-3l-.82,2.54s-.64,3.24-1.05,2.73-.06-2.7-.06-2.7-.5,2.71-.93,2.49.41-2.79.84-4.3a5,5,0,0,1-.61-1.84l-.06,0c-.71.27-1,3-1.6,3-.33,0-.39-.66-.39-1.32a4,4,0,0,1-.56-.64l-.28.23s-.29,2.48-.84,2.09,0-2.11,0-2.11-.74,2.14-1.31,2c-.37-.1.4-1.76,1-3l-1.12.54a9.14,9.14,0,0,1-1.64,1.86c-3,2.34-1-.27-1-.27l1.58-1.74-1-.14-1.29,1.74c-2.58,2.08-.75-1-.75-1l1.8-1.42,2.07-2.3a6.1,6.1,0,0,1,2.7-.93,2.31,2.31,0,0,1,.42-.61,3.81,3.81,0,0,1,.61-1,9,9,0,0,1,1.12-.44c-.14-1.57,1.43-1.85,1-1.27a4.19,4.19,0,0,1,.87-.79.85.85,0,0,0,.77-.73c.09-.68.59-.67.59-.67l1.16-.65c-.09-.2-.17-.38-.24-.58l-1.61-.36a15.86,15.86,0,0,1-1.49,2c-2.15,2.72-1-.73-1.61-.7s-1.71,2.39-2.25,3,.14-1.86.14-1.86a9.29,9.29,0,0,1-2.1,1.17c-1,.35-.46,2.49-1.35,2.68s0-2.62,0-2.62l-1.29,1.6s-.83,1.88-1.74,1.77-.51-1.37-.51-1.37-.61,1.57-1.51,1.61S1824.27,977.74,1824.27,977.74Z"/><path class="cls-1" d="M1838,948.9s2.39-.73,2.76-2,1.28-2.2,1.28-2.93l.19-2.2.76,3.3,1.44,1.27,2.57,3.3,2.75,1.28-2.2-.73.18.91a10.47,10.47,0,0,0-1.73-.81l-1-1s-.18,1.1-.73.37L1844,948a1.78,1.78,0,0,1-1.15-1l-.87,1s1.78.47,1.1,1.47l-.73,1.83s-.73.18-.55-.55c0,0-.18-1.1-1.1-.18,0,0-1.84,1.28-1.84.36l-.18-1.28-1.84.73-1.09-.36Z"/><path class="cls-1" d="M1842.55,954.75s-2.36.37-1.81-.55c0,0,.92-1.28-1.1,0,0,0-2.57,2.2-3.85,2.2,0,0-2.94.37-3.67,1.28a5,5,0,0,0,2.2-.18,5,5,0,0,1,2.2-.18s.55,1.46,1.83-.55l1.1-1.1s1.47,1.1,2,0S1842.55,954.75,1842.55,954.75Z"/><path class="cls-1" d="M1846.79,954.94s.17,2.28-.65,1.6l-1.44-1.89s-2.08.53-1.09,1l1.08,1.21,1.19,1.78s.83,1.33.55-.37.55-.55.55-.55l.37.92.54-.92s1.11,1.47,1.66.73c0,0,1.28,1.83,1.28.74l1.65.09-2.93-1.74A3.87,3.87,0,0,1,1846.79,954.94Z"/><path class="cls-1" d="M1846.61,971.22s-1.83,0-2.2-1.46c0,0-.55-1.47-.73-.55l-.92-.55s-.11-2.43,1.14-1-.22-.43-.22-.43l1.65.91-.19-1.46,1.47.91,1.47,1.29,2.38.91s2.57.55,3.12,1.1-.36.55-.36.55l-1.47-.37s-1.29-.73-1.29-.18l-.24,1.74a3.91,3.91,0,0,1-1.41-1.56s-1.28-2-1.28-.91-.92,0-.92,0Z"/><path class="cls-1" d="M1845.14,960.06a2.28,2.28,0,0,0,1.11,2c1.17.59,1.1-.38,1.1-.38l.73.91.92,1.65s.22.57.2-.63l1.47.9.9,1-.19-1.46,1.47.73s-2.36-3.78-4.12-4c0,0-.49,1.62-1.67.43s.1-.46.1-.46v-.55l-.73.19Z"/><path class="cls-1" d="M1838.17,967s-2-.91-3.3-.36l-4.4,1.83a15.67,15.67,0,0,0-2.76,1.28c-.73.55-1.1.55,1.84-.18l2.1.28.83-.65.41,1.36,1.06-1.72,1.1.18a.85.85,0,0,0,.55-1.1Z"/><path class="cls-1" d="M1834.87,962.07s-3.86.74-4.59,1.65,1.22.37,1.22.37l.8.73h.73v-1.1a3.32,3.32,0,0,1,1.84-.55l.55.73.73-.91S1838.56,960.45,1834.87,962.07Z"/><path class="cls-1" d="M1851.2,974.34l.55.73a13.36,13.36,0,0,1,2.38.18,21.12,21.12,0,0,1,2.57,1.64l1.65,1.65s3.31,2.2,1.11,1.29a25.16,25.16,0,0,1-3.86-2l.37,1.28-1.1-.36-.92.55a3.51,3.51,0,0,0-1.65-1.84c-1.18-.52-.55-.18-.55-.18l-3.49-.55a23.07,23.07,0,0,1,3.71,1.72l3.63,3.41s.92,2-1.83-.74l-1.66-.54.19.91s-1.1-1.83-2.75-1.64c0,0-3.31-1.65-3.86-2.39l.19-1.27s.19-.89-1.28-.81c0,0,2-.77,2.84.29l2.5.24s.8-.25.16-.46c0,0-1.1-2.19-2.57-2.19s1.1,0,2.38.55Z"/><path class="cls-1" d="M1836.7,979.46l-1.28-.92,1.65-1.1c.18-.91,3.67-4,3.67-4,.73,2.56-.37,1.47-1.47,1.83s-.18,2.19-.18,2.19Z"/><path class="cls-1" d="M1832.05,981.22l1.53-1.94s3.12-.19,3.67.55-1.46.18-2.75.73a2.09,2.09,0,0,0-1.28,2.19c0,.55.27,2.29-.42,1a1.26,1.26,0,0,0-1,.51c-.37.55-.7-.7-.92.18C1830.83,984.4,1830.89,981.88,1832.05,981.22Z"/><path class="cls-1" d="M1842.57,976.71s-3.12,1.65-3.48,2.57c0,0-.19,1.46-.74,1.46s-1.88-.51-2.59.75l-.53,4.74s.65.17.92-.73,1.68-1,1.68-1l.52.64.37-1.28,1.08.92.39-2.75a2.09,2.09,0,0,1,.91-.92c.56-.18.56-2,.56-2S1843.86,978.36,1842.57,976.71Z"/><path class="cls-1" d="M1844.59,976.89l4.41,6.05,1.28,3.29s-.92,0-1.65-1.46-.18,1.28-1.1-.55l-1.29-.92a4.76,4.76,0,0,1-1.65-2.93l-.91-.18S1843.12,974.34,1844.59,976.89Z"/><path class="cls-1" d="M1840.37,968.85s-3.49-.37-5.5,1.28-6.61,4.94-6.61,4.94l-3.12,3.11,3.31-1.83-.69.93,2-1.67,1.84-.18,1.28-1.64s1.1-.55,1.47.18c0,0,1.65,0,.91-1.65l2.39-.91S1842.57,970.67,1840.37,968.85Z"/><path class="cls-1" d="M1818.54,1009.14s-2.23-15.34-1.77-19,.46-10.53.46-10.53l1-9.28s.82-5.24.28-6.48a25.6,25.6,0,0,1-1-4.51s-.51-9-.42-11a74.52,74.52,0,0,0-.93-8.42l-.57-5.17a22.25,22.25,0,0,1-.06-3.92c.08-1.72.37-12.43-.88-11.26s-1.92,13.68-1.92,13.68a8.44,8.44,0,0,0-.3,3.63c.19,2.44.39,4.68.39,4.68l-.24,7.4,1.3,11.41,0,6.09-.57,13s-1.45,12.91-1.21,14.14-.91,14.3-.91,14.3S1811.57,1012.12,1818.54,1009.14Z"/><path class="cls-1" d="M1817.05,1009.14s-1.72-13.22-1.6-16.19l2.33-26.13-1-4.64-.56-14.63s-.13-6.22-.7-6.79-1.07-7.62-1-8.7c0,0,.09-6.76-.37-5.42s-.58,8.9-.44,10.26.19,4.87.14,6-.55,3.49-.21,4.86,1.77,14.41,1.49,16.29a74.51,74.51,0,0,0-.13,7.57s-1.35,17.52-1.41,18.87,0,10.27-.52,11.88-1.33,7.78,1.43,8.44S1817.05,1009.14,1817.05,1009.14Z"/><path class="cls-1" d="M1785,968.11l.65-.9c-3,.21,2-3,2-3a9,9,0,0,0,2.29-1.52c1.78-1,4.8-2.9,3.74-2,.61-.52,3.12-.78,3.12-.78s1.48.43,1.51-.38a5,5,0,0,1,.68-1.86l1.39-.48a5.66,5.66,0,0,1,.24-2.52,3.2,3.2,0,0,0-1.84,1c-1.9,2.36-2.41.31-.52-1.64l-4,2.26.07-1.62-3.71,2.68-4,1.45a8.9,8.9,0,0,1,3.11-2.7c2.46-1.52,6.45-3.78,6.45-3.78s6.32-1,7.28-2.53a15.45,15.45,0,0,1,1.35-1.77c-3,1-6.19,1.87-6.19,1.87l4.09-2.26,5.22-2.83,2.64-2.54a6.45,6.45,0,0,0,.31-3.44c-.07.23-.15.45-.22.67a3.77,3.77,0,0,1-.67,2.44l-1.2-3.15a.08.08,0,0,1,0,0l.29,1.44a5.67,5.67,0,0,0-1.29,2.11c-.18.54-.29.11-.35-.58a.42.42,0,0,1-.16,0c-.4,0-.22-1.3.06-2.62V939l-.57.35-.62,1.46s-1.6,5.54-2.25,4.59a.2.2,0,0,1,0-.08c-.48.83-.54-.66-.51-2.07-.38,1-.83,1.85-1.16,1.64s.09-1.61.65-3.3l-1.23.67s-1.32,2.92-2.14,3.43.54-3.23.54-3.23l-2.87,1.78s-1.72,2.9-2.52,2.86,1.11-2.65,1.11-2.65l-2.48,2c-1.89,2.08-4.22.63-2.59-.11s7-5.11,7-5.11a49.4,49.4,0,0,1,5-5.73,7.06,7.06,0,0,1,2.94-1.24l1-2.43a.43.43,0,0,1-.27-.19l-2.64,2-1.16-.86-1.08,2.12-1.64,1,.09-2.16a5,5,0,0,0-1.46,1.57,3.44,3.44,0,0,1-2.25,1.25l2.15-3.69-1.46,1.56c-1.87,1.81-3,1-3,1l1.32-2.92a35,35,0,0,1,6.51-3c1.81-.48,6.55-5.2,9.32-8.09a9.88,9.88,0,0,1,.49-3.33c-1.21.53-3,1.51-3.05,2.75,0,1.85-4.71.51-4.71.51l1.91-2.76s-2.42.71-3.34,1.08a6,6,0,0,1-2.1.31s3.72-3.08,5.23-3.42c1.14-.26,6.06-6.08,8.44-9l1.06-3.21,1.44-5.62s1.55,3.32,1.27,5.2,3,7.19,3,7.19,3.65,3.4,5.62,3.76,3.88,2.6,3.88,2.6,1.73,1.43,2.74,1.2,1.94,1.17-.23.8a24.12,24.12,0,0,1-3.16-.68l2.08,2.53a4.65,4.65,0,0,1-2.54-1.19c-1.35-1.14-2.12-1.72-2.12-1.72l1,3.29a2.71,2.71,0,0,1-2.14-1.17,21.62,21.62,0,0,0-1.87-2.79l-1.12,2.66-3.49-.4a3.31,3.31,0,0,0,.28,1s7,5.17,9.32,5.81l5.31,1.58,3.45,3.39s.14,1.36-1.42.49l-1.73-1.43s2.65,3.09,1.27,2.76a6.31,6.31,0,0,1-2.7-2l-2-.63,1.65,3.32a4.68,4.68,0,0,1-2.71-1.74,4.5,4.5,0,0,0-1.72-1.7l-.63.52,1.29,2.49s-1.16-.86-2.12-1.72a6.6,6.6,0,0,0-3-.41c.7.92,2,1.84,1.93,3.34.83-.22.89,1,2.25,1.08,0,0,6.89,1.91,8,3a6.12,6.12,0,0,1,3.79-.11c2,.62.53,1.64-.66,1.59l2.33,1.46s4.4,4.24,1.24,3.56l-2.3-2.26s.72,1.93-1,.77l-2.29-2.26.84,3.55s-1.57-.61-1.52-1.69l-1.3-2.22s.2,4.61-.34,3.23-1.27-3-1.27-3-.3,2.42-1.27,1.84-.52-1.92-.52-1.92l-1.74-1.15-1.51,2.64a7.32,7.32,0,0,0-1.49-2.5,3.18,3.18,0,0,0-1.57-.61l-.5.62.14.43a4.94,4.94,0,0,1,3,3l0,.58c7.84,2.13,12,4.35,13.22,5.09a27.8,27.8,0,0,1,4.79,4.53s2.28,2.53.89,2.48-1.92-1.71-1.92-1.71l-2.14-1.44,1.43,3.84s-2.49-2.27-2.64-3.35-1.92-1.71-1.92-1.71l.22,4.06a9.54,9.54,0,0,1-1.34-1.41c-1-1.12-.86-3-1.46-3a11.68,11.68,0,0,1-2.17-.64l.49,2a.68.68,0,0,1,.41.2,6.35,6.35,0,0,0,2.19,1.44,11.66,11.66,0,0,0,1.27,1.68c-1-1,3.25,1,3.46,2.85.12,1,.62-.24,2.56.93,0,0,2.93,2.56.55,2.18l2.09,2.53s4.34,5.59,2.75,5.52-2.67-2.81-2.67-2.81.7,2.19-.9,2.39-3.06-3.11-3.06-3.11l-2.25-2.78s0,0,0,0c.14.44,1.49,4.88,0,4.56s-.62-4.09-2.39-4.71a16.65,16.65,0,0,1-3.7-2s1.21,4.37.26,3.25-3-5.27-4-5.31.94,6-2.85,1.23a27.33,27.33,0,0,1-2.62-3.58l-2.83.64c-.14.34-.28.67-.43,1l2,1.16s.5-.15.66,1a1.33,1.33,0,0,0,1.1,1.28,6,6,0,0,0,.73,1.65c-.73-1,2.3,1.38,3.11,2a14.88,14.88,0,0,1,2.11.82,5.59,5.59,0,0,1,1.16,2c.41.3.81.58,1.16.82a10.44,10.44,0,0,1,4.25,1.56l3.64,4,3.18,2.49s3.22,5.46-1.31,1.8l-2.29-3-1.78.25,2.8,3s3.54,4.57-1.68.47a15.84,15.84,0,0,1-2.9-3.25l-2-1c1.08,2.11,2.43,5,1.79,5.2-1,.28-2.31-3.47-2.31-3.47s.93,3,0,3.71-1.47-3.68-1.47-3.68l-.49-.39a8.65,8.65,0,0,1-1,1.12c0,1.16-.12,2.38-.68,2.32-1.07-.11-1.58-4.82-2.83-5.29l-.12,0a8.68,8.68,0,0,1-1.06,3.24c.77,2.63,2,7.24,1.48,7.51-.76.39-1.63-4.36-1.63-4.36s.62,3.83-.11,4.72-1.85-4.77-1.85-4.77l-1.44-4.46s1,5.4.23,5.28-.86-3.36-1.77-3.93-.6,0-.6,0,.13,4.37-.46,2.6c-.33-1-.66-2.73-1-4l-.68,1.93-.35-.12c-.16,1.53-.52,2.17-1.66-2-.9-3.28-1.16-4.31-1.16-4.31l-1.89-.55s-.58.3-.84-.88c-.3.76-.71,1.76-1.27,3.09-2.87,6.77-1.07-2.08-1.72-2.1s-2.32,6-3,7.57.47-4.85.47-4.85a12.39,12.39,0,0,1-2.57,2.73c-1.19.77-.92,6.45-2,6.81s.43-6.87.43-6.87l-1.72,4S1803,987.41,1802,987s-.36-3.67-.36-3.67-.94,4-2,4,2.28-8,2.28-8l1.57-3.59c-1.56.34-1.2-3.6.16-5.16a1.07,1.07,0,0,1,.76-.4l.19-.54a17.12,17.12,0,0,1-3.87,1.73c-1.81.46-1.18,4.27-2.78,4.47s.39-4.58.39-4.58l-2.5,2.6s-1.73,3.17-3.31,2.83-.7-2.46-.7-2.46-1.31,2.64-2.9,2.58,3.22-5.27,3.22-5.27l2.29-2.34c-.89.06-1.4-.26-1.57-.75-1,1.13-.75,3.87-2.11,4-1.6.2.4-4.58.4-4.58l-2.51,2.6s-1.73,3.17-3.31,2.83-.69-2.46-.69-2.46-1.31,2.64-2.9,2.57S1785,968.11,1785,968.11Z"/><path class="cls-1" d="M1819.38,922.68l5.13,2.93a54.59,54.59,0,0,0,5.14,2.44s4.4,1.71,2.69,1.71l2.35,1.28s.34.91-.64.42l-2.44-1.46h-1.47s2.2,2,1,1.71a7,7,0,0,1-2.45-1.22l-1.22-.25.43,1.32-1.41-.58-2.45-.49-1.46-1.71,2-.24s.74-1.22-1.46-2S1817.17,921.46,1819.38,922.68Z"/><path class="cls-1" d="M1818.15,914.87a8.83,8.83,0,0,1-2.2-2.93c-.73-1.7-2,1.47-2,1.47s-2.91,1.73-1.45-.6l-3.69,3,5.39-6.1a36,36,0,0,0,1.47-4.15c.24-1.22,0-3.41,1.46.25l2.94,5.85,2,1.95s3.18,1.47,4.4,2a16.51,16.51,0,0,1,3.43,2.69s.24,2-1.23.24-2.2-1.46-2.2-1.46l-1,.24-2-1.22-3.42-1s1,2,0,1.46A7.5,7.5,0,0,1,1818.15,914.87Z"/><path class="cls-1" d="M1816.09,923.17s-.14,2.44-2.1,2.93.25-1.86.25-1.86l-2,.72s-4,2.26-2.83,1,2.53-3.14,2.53-3.14,2.78-1.78,1.57-.34,2.84-.28,2.84-.28Z"/><path class="cls-1" d="M1808.37,926.83s-4.41,2.93-6.12,3.41-5.14,2-5.63,2.69-1.39,1.4.25.73l2.45-1-1.23,2,2.45-2.2.49,1.46,1.22-2.19,2,.73,2.44-2.2,5.39-2.19-.25-1.22S1807.88,930,1808.37,926.83Z"/><path class="cls-1" d="M1813.61,933.84s4.4.45,4.05-.77l.63,1.68,1.47-.61,1.72.61s0,1.38-.49.76l-1.48.16a2.62,2.62,0,0,1,2,1.22c.49,1.07-1,0-1,0l1,1.53s.49,1.07-1.23-.31-.49,1.23-.49,1.23-.49.91-1-.16-1.48-.76-2.46-.15-2.21,3.36-2,1.37l1-2s-2.27,1.36-2.27,2-1.47-.3.49-2.14c0,0-1.72-.45-.24-1.37l.81-.95-1.3.49s-.12-.41,1.23-1.07l.49-.92S1811.83,935.42,1813.61,933.84Z"/><path class="cls-1" d="M1823.78,936.59l3.18,2.68,1.47-.73s2.2,2.44,2.44,1.46-3.66-3.41-3.66-3.41Z"/><path class="cls-1" d="M1831.61,938.3l3.18,2,1.47,1.71.73-1,2.69,2.2s2.45,0,0-1.71S1831.61,938.3,1831.61,938.3Z"/><path class="cls-1" d="M1836.5,940s4.65-1,2.2.49Z"/><path class="cls-1" d="M1828.67,946.1s6.61,1.22,7.34,2,4.41,2,2,2h-4.65l-8.32-4.15Z"/><path class="cls-1" d="M1824,946.1l11.5,8.54s2.2.74,2.7,1.71,2.93,1,3.18,2.2l.73,2a4.52,4.52,0,0,1,2.93,1.22l.49,1.71,3.18,3.66s0,.73-2-.73c0,0,1.22,4.39-2-.25l-2.69-2.68s.24,3.41-.49,2l-1.22-2-3.92-1.71-1.22-.49-.25,1-2-2.93-1.23-5.12s-1.71-1.47-2.93-1.22-1-1.71-1-1.71-6.12-2-3.18-2.2l2,.25S1821.09,944.15,1824,946.1Z"/><path class="cls-1" d="M1817.28,946.29l3.23,2.18s1.52.74-.18.8-.53.14-.53.14l.64,1s2.91,1.7,1.92,1.58-1.11.1-1.11.1l1.4,1.72s1.4,1.71.33,1.24l.77,1.5s.37,1.41-.84.41l-1.76-1.63,1.33,3.63s.37,1.41-.89-.53a6.4,6.4,0,0,1-1.28-2.69l.18,4.3s-.7.94-1.08-1.23l-.47-2.52s-1.39-1-1.51.77-1,2-.67-1.15l.29-1.78s-2.32,3.44-1.47.19c0,0-.66.36,0-2.26a1.88,1.88,0,0,1-1-2.21l.45-1.52s1.83,2.25,2,.12l-1.72-2.2s1.35.78.66-1.12c0,0,2.32.91,2.09,0l1.44,1.13S1819.69,947.55,1817.28,946.29Z"/><path class="cls-1" d="M1811.55,948.91s-5.88.92-7.16,2-2.93,3.66-2.93,5.13c0,0,.93,1.3,1,.38l1,1.81a5.44,5.44,0,0,0,.92-1.64c.18-.74,1.84.73,1.84.73s.91,0,0-2,.53-1.09,1.28,0,.92.19.37-1.09a1.11,1.11,0,0,1,.55-1.65s1.83,2.2,1.47.92a4.85,4.85,0,0,0-.55-1.47s.18-1.46,1.28-1.83A1.16,1.16,0,0,0,1811.55,948.91Z"/><path class="cls-1" d="M1811.36,945.8s-2.2,1.1-2.38,1.83.92.55.92.55Z"/><path class="cls-1" d="M1807.88,946.71s-3.12.19.18-1.09,1.65,0,1.65,0Z"/><path class="cls-1" d="M1815.11,964s7.45.46,9.28,2.84,4.4,10.62,4.4,10.62l.55,4.39s-.55,2.38-.91-.37c0,0-2-4.24-2.63-3.22,0,0-.63,1.73-1.48-1s.25.38.25.38l-.73.55s-.37,3.11-1.28-1.1l-1.65,1.1.18-5.67s-.74-6-1.1-4.76c0,0-.55,4.21-1.1,2.93a9.21,9.21,0,0,1-.37-3.48s-2.2,2-2.39-.18l.74-.92-2-.36.55-.74Z"/><path class="cls-1" d="M1841.88,975.38s-2.14-3.66-3.66-3.9-3.84.28-4.34-1.17a3.07,3.07,0,0,0-2.27-2.25,19.55,19.55,0,0,1-3.67-2.68s-2-2.93-1.47-.49c0,0,.74,3.42,2.2,4.15s1.71,0,1.71,0l1,3.41s1.23.74,1-.73,1.47,3.42,1.47,3.42,1.71-.25,1.22-1.71,2.21,2.44,2.21,2.44l2.2.49a11.94,11.94,0,0,0-1-2.2c-.49-.73,1.75,1.7,3.18,2.44s2.93,1,3.91,2.44A12,12,0,0,0,1841.88,975.38Z"/><path class="cls-1" d="M1810.08,961.17s-10.82,5.13-13,7-5.69,5-5.69,5-.18.73,1.84-.74c0,0-2.2,2.38-.92,2.75a18,18,0,0,1,3.67-3.66c2.57-2,3.12-1.1,3.12-1.1l-.37,2a9.69,9.69,0,0,1,3.12-3.66s-.36-1.09,1.29-2A83.67,83.67,0,0,0,1810.08,961.17Z"/><path class="cls-1" d="M1800.72,961.9s-6.6-.91-10.27,1.47l-5.32,5.67-2.39,2.74s0,.19,2-1.64l1.1-.55s-.55,2.56,0,1.65a16.66,16.66,0,0,0,2.75-3.85c1.1-2.19,2.2-1.83,2.2-1.83h1.84s-1.65,2.93-1.47,3.84,1.1-2.19,1.1-2.19l1.84-2.38,3.67-.73.91-1.1s4.21-1,5.13-2Z"/><path class="cls-1" d="M1800.91,952.39s-4.41,0-5.14.55l-2.39,1.46,1.84-.37.18.74,2.75-1.28s.92,0,.37.91l1.1-.37,2.39-2,.73-.73Z"/><path class="cls-1" d="M1810.81,969s-.55,3.84-1.28,4.39-3.67,3.11-3.3,2a26.91,26.91,0,0,1,1.46-3.11Z"/><path class="cls-1" d="M1805.13,976.18s.36,2.92-.74,4a10.37,10.37,0,0,0-1.83,3.48s-.92-.18-.55-1.65Z"/></g></svg>