<svg xmlns="http://www.w3.org/2000/svg" xmlns:xlink="http://www.w3.org/1999/xlink" viewBox="0 0 1920 1080"><defs><style>.cls-1{fill:url(#linear-gradient);}.cls-2{fill:url(#linear-gradient-2);}.cls-3{fill:url(#linear-gradient-3);}.cls-4{fill:url(#linear-gradient-4);}.cls-5{fill:url(#linear-gradient-5);}.cls-6{fill:url(#linear-gradient-6);}.cls-7{fill:url(#linear-gradient-7);}.cls-8{fill:url(#linear-gradient-8);}.cls-9{fill:url(#linear-gradient-9);}.cls-10{fill:url(#linear-gradient-10);}.cls-11{fill:url(#linear-gradient-11);}.cls-12{fill:url(#linear-gradient-12);}.cls-13{fill:url(#linear-gradient-13);}</style><linearGradient id="linear-gradient" x1="1412.4" y1="615.54" x2="1490.4" y2="663" gradientUnits="userSpaceOnUse"><stop offset="0" stop-color="#e062ff"/><stop offset="0.2" stop-color="#bb42de"/><stop offset="0.42" stop-color="#9b26c0"/><stop offset="0.63" stop-color="#8412ab"/><stop offset="0.83" stop-color="#76069e"/><stop offset="1" stop-color="#71029a"/></linearGradient><linearGradient id="linear-gradient-2" x1="1575.8" y1="618.72" x2="1512.72" y2="625.98" gradientUnits="userSpaceOnUse"><stop offset="0" stop-color="#5a189a"/><stop offset="0.19" stop-color="#5922a0"/><stop offset="0.63" stop-color="#5733ab"/><stop offset="0.96" stop-color="#5639af"/></linearGradient><linearGradient id="linear-gradient-3" x1="1535.42" y1="589.58" x2="1652.85" y2="661.35" gradientUnits="userSpaceOnUse"><stop offset="0" stop-color="#e062ff"/><stop offset="0.21" stop-color="#c248e4"/><stop offset="0.56" stop-color="#9622bc"/><stop offset="0.84" stop-color="#7b0ba3"/><stop offset="1" stop-color="#71029a"/></linearGradient><linearGradient id="linear-gradient-4" x1="923.02" y1="677.61" x2="793.51" y2="674.76" xlink:href="#linear-gradient-2"/><linearGradient id="linear-gradient-5" x1="1030.18" y1="633.53" x2="909.62" y2="722.74" gradientUnits="userSpaceOnUse"><stop offset="0" stop-color="#e062ff"/><stop offset="1" stop-color="#71029a"/></linearGradient><linearGradient id="linear-gradient-6" x1="583.26" y1="587" x2="292.43" y2="580.6" xlink:href="#linear-gradient-2"/><linearGradient id="linear-gradient-7" x1="143.8" y1="659.89" x2="-97.65" y2="655.52" gradientUnits="userSpaceOnUse"><stop offset="0" stop-color="#5a189a"/><stop offset="0.72" stop-color="#572fa9"/><stop offset="1" stop-color="#5639af"/></linearGradient><linearGradient id="linear-gradient-8" x1="380.87" y1="695.25" x2="115.05" y2="804.67" gradientUnits="userSpaceOnUse"><stop offset="0" stop-color="#e062ff"/><stop offset="0.21" stop-color="#ce52ef"/><stop offset="0.63" stop-color="#9f2ac4"/><stop offset="1" stop-color="#71029a"/></linearGradient><linearGradient id="linear-gradient-9" x1="830.34" y1="561.29" x2="523.24" y2="687.09" xlink:href="#linear-gradient-5"/><linearGradient id="linear-gradient-10" x1="1761.26" y1="608.59" x2="1857.66" y2="667.08" xlink:href="#linear-gradient-5"/><linearGradient id="linear-gradient-11" x1="1915.96" y1="852.14" x2="1916.05" y2="498.72" xlink:href="#linear-gradient-2"/><linearGradient id="linear-gradient-12" x1="1852.19" y1="561.37" x2="1669" y2="707.7" xlink:href="#linear-gradient-2"/><linearGradient id="linear-gradient-13" x1="923.56" y1="844.26" x2="923.59" y2="749.24" gradientUnits="userSpaceOnUse"><stop offset="0" stop-color="#df6788"/><stop offset="1" stop-color="#b928cd"/></linearGradient></defs><g id="mountains"><path class="cls-1" d="M1348,723.47A206.62,206.62,0,0,1,1366.49,659L1395,584.39c.84-2.21,1.69-4.42,2.53-6.62l51-37.77a157.35,157.35,0,0,1,70.11-54.18L1546.49,505l18,57h0l56.83,15.77,14.68,42.1V750.52l-288,20.17A205,205,0,0,1,1348,723.47Z"/><path class="cls-2" d="M1480,661q10-20,20-40,12.49-28,25-56l-24-23,9-31,8.6-24.8,27.89,19.18,18,57,56.83,15.77,14.68,42.1V750.9L1496,730Q1488,695.5,1480,661Z"/><path class="cls-3" d="M1417.75,789.58q56.54-98.4,113-196.81l50.67-54.42,31.89-11.26a35.4,35.4,0,0,1,5.63-9.38c9.1-10.81,22.16-12.71,26.27-13.14q5.64-9.37,11.26-18.76.95-12.19,1.88-24.39l14.5-26.48Q1676,421,1679,407l5.63,1.88q31.66,34.61,63.34,69.22l82.56,165.12L1900,815.85"/><path class="cls-4" d="M766,631l74-100,18-69,29,16,35,31,50,26,58,47q30.49,64,61,128,18.49,75,37,150L648.89,885.76Q707.44,758.38,766,631Z"/><path class="cls-5" d="M938,670l-9-66-58-21,14-41-17-27q2-14,4-28l-13.7-25.18,29,16,35,31,50,26,58,47q30.51,64,61,128,18.51,75,37,150L925,823Q931.5,746.5,938,670Z"/><path class="cls-6" d="M207.51,538.51,563.49,207l48.69,72.58,16.54,58,17.45,21,16.54,41.34,88.2,58.8-5.51,11,299.5,466.71-1075,16.6Z"/><path class="cls-7" d="M-27.83,561.47l204-200A942.34,942.34,0,0,0,269,485a943.31,943.31,0,0,0,98.17,95.47c8.79,83,34.86,185.2,110,269,36.24,40.41,62.84,53.64,60,70C530.86,955.82,383.26,980.9-210,939Z"/><path class="cls-8" d="M176.17,361.47,139,498,65,623q2,44.5,4,89l99,105c55.89,93.78,97.23,148.89,124.78,181.85,2.83,3.38,4.94,5.78,7.64,8.79,6.1,6.82,84.94,91,153.7,74.5C507.4,1069.37,552.44,996.64,545,908a397.56,397.56,0,0,1-68-59c-89.25-97.39-106.06-214.7-110-269l-49-65-57-45-19-42Z"/><path class="cls-9" d="M544.19,270.39q9.57-31.53,19.13-63L612,279.92l16.54,58q8.73,10.51,17.45,21.05l16.54,41.34,88.2,58.8-5.51,11,299.5,466.71L716.92,942q-33.54-49.15-67.07-98.3L537.76,829l27.57-83.61L603,716.89l-87.28-35.83q21.6-35.82,43.18-71.66l-59.71-15.62,16.53-107.49,44.1-50.53,12.87-69.82-57-20.21Q530,308.07,544.19,270.39Z"/><path class="cls-10" d="M1934,570l-37-64.36L1860,475l-29,11-17,30,2.62,17.84L1795,548l-31,45s29,30,33,35-25,58-29,62-33.22,42.94-34.61,47.47,1.39,40.63,0,46.08S1877,863,1880,864s113-56,113-56l-58.06-232Z"/><path class="cls-11" d="M1934,570.11l-37-64.36-37-30.64L1844,491l10,16,6,29q-5.51,17-11,34l29,23q-7,36-14,72l-25,44,18,65c-2.57,63,9.5,84.13,23,90.11l113-56h0Q1963.47,689.1,1934,570.11Z"/><path class="cls-12" d="M1632.13,808.56,1579,783l22-35-25-35,22-35,56.65-28.94,50.66-71.3-22.52-50.67,22.52-71.3L1679,407h1.88l3.75,1.88,3.75,3.75,22.52,13.13L1748,478.1c27.62,50.07,55.54,105.13,82.56,165.12,27.25,60.49,50.13,118.36,69.43,172.63Z"/><path class="cls-13" d="M772,755.29s321.38-41.68,687.71-23.86S1935,796.55,1935,796.55l268,50.06V1237H-28l-312-63.92q-8-135.21-16-270.42C-242.56,877-123.82,853.58,0,833.16A6173.42,6173.42,0,0,1,772,755.29Z"/></g></svg>